<mxfile host="app.diagrams.net" agent="Mozilla/5.0 (X11; Linux x86_64) AppleWebKit/537.36 (KHTML, like Gecko) Chrome/128.0.0.0 Safari/537.36" version="24.7.8">
  <diagram name="Page-1" id="p2wxRjl5uP_WKYdbO88H">
    <mxGraphModel dx="2614" dy="1040" grid="1" gridSize="10" guides="1" tooltips="1" connect="1" arrows="1" fold="1" page="1" pageScale="1" pageWidth="850" pageHeight="1100" math="0" shadow="0">
      <root>
        <mxCell id="0" />
        <mxCell id="1" parent="0" />
        <mxCell id="lt6rpjhU2XfIqA4amkJT-1" value="" style="rounded=1;whiteSpace=wrap;html=1;fillColor=#dae8fc;strokeColor=#6c8ebf;" vertex="1" parent="1">
          <mxGeometry x="-370" y="208" width="200" height="90" as="geometry" />
        </mxCell>
        <mxCell id="lt6rpjhU2XfIqA4amkJT-2" value="" style="shape=image;verticalLabelPosition=bottom;labelBackgroundColor=default;verticalAlign=top;aspect=fixed;imageAspect=0;image=data:image/png,iVBORw0KGgoAAAANSUhEUgAAALsAAAA3CAYAAABU4jvJAAAAGXRFWHRTb2Z0d2FyZQBBZG9iZSBJbWFnZVJlYWR5ccllPAAAA3FpVFh0WE1MOmNvbS5hZG9iZS54bXAAAAAAADw/eHBhY2tldCBiZWdpbj0i77u/IiBpZD0iVzVNME1wQ2VoaUh6cmVTek5UY3prYzlkIj8+IDx4OnhtcG1ldGEgeG1sbnM6eD0iYWRvYmU6bnM6bWV0YS8iIHg6eG1wdGs9IkFkb2JlIFhNUCBDb3JlIDUuNS1jMDE0IDc5LjE1MTQ4MSwgMjAxMy8wMy8xMy0xMjowOToxNSAgICAgICAgIj4gPHJkZjpSREYgeG1sbnM6cmRmPSJodHRwOi8vd3d3LnczLm9yZy8xOTk5LzAyLzIyLXJkZi1zeW50YXgtbnMjIj4gPHJkZjpEZXNjcmlwdGlvbiByZGY6YWJvdXQ9IiIgeG1sbnM6eG1wTU09Imh0dHA6Ly9ucy5hZG9iZS5jb20veGFwLzEuMC9tbS8iIHhtbG5zOnN0UmVmPSJodHRwOi8vbnMuYWRvYmUuY29tL3hhcC8xLjAvc1R5cGUvUmVzb3VyY2VSZWYjIiB4bWxuczp4bXA9Imh0dHA6Ly9ucy5hZG9iZS5jb20veGFwLzEuMC8iIHhtcE1NOk9yaWdpbmFsRG9jdW1lbnRJRD0ieG1wLmRpZDphMjUxYzllMi02YTljLTk5NGYtYTlmOS04MjdhZjJkYmUyZGMiIHhtcE1NOkRvY3VtZW50SUQ9InhtcC5kaWQ6NjUyNkIyMzE5RTYyMTFFNUI1OUVDNjU4RDUxQThGMEUiIHhtcE1NOkluc3RhbmNlSUQ9InhtcC5paWQ6NjUyNkIyMzA5RTYyMTFFNUI1OUVDNjU4RDUxQThGMEUiIHhtcDpDcmVhdG9yVG9vbD0iQWRvYmUgUGhvdG9zaG9wIENDIChXaW5kb3dzKSI+IDx4bXBNTTpEZXJpdmVkRnJvbSBzdFJlZjppbnN0YW5jZUlEPSJ4bXAuaWlkOjYzNDU0YTMxLWQ4NDktMzM0NS1hZDIyLWVlZmUzMGUyY2M0YiIgc3RSZWY6ZG9jdW1lbnRJRD0ieG1wLmRpZDphMjUxYzllMi02YTljLTk5NGYtYTlmOS04MjdhZjJkYmUyZGMiLz4gPC9yZGY6RGVzY3JpcHRpb24+IDwvcmRmOlJERj4gPC94OnhtcG1ldGE+IDw/eHBhY2tldCBlbmQ9InIiPz7oL0dEAAATaUlEQVR42uxdB3hW1Rk+GQQMAQJIkDAEESruhYJCVbTuuleduGrralW0tmqtkzpatYoLR5S696AO3KIiFUedCAlLkJ1EAoHMnvfPe5IvX+79c//k/gP5v+f5ntz/jnPPPec93zrfOck45ZRTTJraRoWFhaZnz56mqqqq1XszMjJMhw4dzLx588xPP/20oTbZSMuHWd7J8uaWu1qusDzX8meWX7T8ZiwFFhUVBb43Ow3ZNCWAdrF8neV9PK51t9zf8mjL51uebvlKy6+GXYnMdD+kKc50keWPfYDuNzBesXxzGuzrKdXX1zc0eOYG1eQ3twO0GCSPpcHuT2Ms32Z5ouVtYnhuB8sPWn7c8oDAjecN3OGWJ1l+wnJuo72YnW1qa2vN2rVrE9EOsIsfZTs4U7Wj5WtYrxMTUIfbCNj20HGWnw2rQj8Xmx2gusvyyQr4gwMOeKjN3vw9wfL8IC+trq7Wp3rT5nR0uhsU4Llz5yYC7IMsPyd+n2u5xvKlli8X3/zvOAP9/JDKOpyAPyIt2Y35peVvFNBrOAByAg6UnuJ3ZdAXL1++3NTU1ESiLKTd3EFGRsbTWVlZFZYjUn3ZsmVm1apViWgPqZmWWa7j8S/E+R/j+P5/hQh0DfgNGuxQk+9a3pS/v6OKhne/HUzlIOa05dVteTnMkoULFzaGFS2wP8vJybnc8ln2+Oi6urrItRUrVpjFixcnqk3W+ZyvSMC777Z8XpzKBuAnb6hmzPHC+UHg+jLLd7TVf2xrJRAz/+GHH0yfPn0A/rkVFRXXrVu3zqxevbox/h4kDp8IHzkBQD8rzu84kIA/KJXBvrPl/SlxoVaLLT9veXaUZ440DZMQ+Zah//9L56qW12UoaxXNket4P97xg+W3+FwYdBBNpp6UkjNYn6rS0lJTXl4ekeIW8DCdRrGeU0V9QcMs97U8z/IsVf5oOpHTlBTubHkEzasP1TPbWi6w/H1QP2M9Bnq7AZ8IsN9r+UyP8zeZhsmDq9X5YQw5befxzNU0UwCIZyyfyvMA0A0+73/b8jjLn7ax/v0J6pEe166lr/AuTBbTMCOIwTWU17tyIBo6WM/wGJGSE0Q5KP8YAfqpPC7goOpneQ2B7+gMRltA11OzJYPuc454AgmAf5UCNGVs9gkK6JgKfl/8vsry2eJ3FwLZAX2F5dcsL+HvwZRuvTi6JxNMmutEmXsRMDu0of45rI8DehXfXyqcwXcIRqfBHNDXKNNBgnuNOO4qgG5U3YeLsperusnw4dokAb0oCUB3tJ+JMbUgnmAfpIB8Ck0PmAJ/EefvME3x6EvZ+YYmzhCOXvz92gU6qBFAB1Oqa4bDeo4Czktt+AZohEIeL7K8heXdTUNex1fivss9nq2O4iDWKO261gfsxucZULn0lZME9GQnVo0ZO3bsm6kA9kPFMUyIh8Xv8QSPA+9wHh+mpH6psMn/Jq4drOx1zbDX71RqDoNg7xi/QUrPv1qew+OVYsAZ8Z5oGV5+gKxr5Vqs5SWCHkoBoEvAv5UKkt2Rl5P4jTjenH/7iHNfqftnimOYDxsHqMMUZauPjqH+nYQJAfpYXZfOdT8x8H7u9JhpPqeRCrSXBfzUZIK9YyvvqVbAAnWIIrkyVRitU8B6LFGRDU0ZHmV7Oe+1UaRupnrWlZvhUa7xOB/tmh+15ZkwgH5cig7C3VsDfDzBLsGR5XFdSvFlHnZtvro/SwGtLmA9dhLHcwPYwqtFXeQ7eqn7ZP2WewBtrZL0crKnVL1P9sMKj7roY5Cc6a3yuS9jAwF6IMAnaga1VP3e2jTEiB3N4N8vxLmz1TPFSnotCvBehPgKxO/n+fcky6cJUEpnz+XTFDI65Fef08TxA/y7pTjXQQ2QYeJ4M3FcqLRUf3Esp/i7Kc20hY/zO1QJhZoQ+u+59QDoEvDTLbcIqydqUmkEwZFBW/tPYqB9IIB8I0NKho3rQn3VygfIYqSk1EN61RPgx6kB9U/LCy1fYZpi+whx/sE0xLnH8dz9lh+x/CslDI61XGb5IzrUpyqfAzH334pzWJSAySNkUvawvKe4dgwjRl/zvHzPG6ZhDqKGESXpp2Di6AU621JjXc8BBO3xO3H+Jx+zJidGoB8WT3BgMs7XVqtvk1WG/plmAT+iqKiocbBnxHFZ3gQPaahpMTtNSulbLP8x5LoAwGfwGMu/tucxwDiQknU2QRQrIWae63EeDu2uPubdfDV4pSMP0Pb0uTY8xrpdxEGuzRBM9J2VLKDn5eVFuFOnTsgn8rwHuUZInEPuUTvoEwv24Yk2Y2poS4JXUqLdTrWvzZELaGa8yWsVfK5M3bdOlKkZ935HM2Z/AXTQhaYhNLmY73KmDAYActpLaNYsopTdm1J+iqgPegCTXXsQnJM4cMrpF1xLbQYJPo12OLTQdPEMsgNn8ZmF1C67UII/ZXkBrxVT6+DamTT5VrLM96md0I6v0xkvZ+RqvAC6Yd3LONgnBOizJ8MGeufOnc2gQYMi3KtXL9OlS5cI4L0YYO/YsWN7X7mzle4vJVqyTxIqucYET6PNotSELhsiwoi1lMjlUZzjNa045lmm5cRPo/DhAKjxqM9GLLvO5zmv7EI8U2ulWBXSfdGZSBZjbnse28Mr+pTrU55rk0oP8yTH55kOvBYkw1OaeqEQwL3JJps0hOGqq1s1T3JyciJJdligHgKdaiV8UaJs9lUmeAw6R0QXasVzY8Q9Mymd20qtRXMqogyiiqDPQToB2N26dauElMICDqhtnHerllauXFlRVlbmV8eKKKaTF1WpyIyk6iiDW9KmYQO9oKDA9O7dO/LN4CTQbVbCP5wosOfGGOIaRk3wGcGP2Vi5lvHOVA4HwOEaMGCAyc3NjYDb/t6/rq7uPCvNyi2Ps5LtEntua6vW77b8dI8ePcySJUsiacEpQFeFWRhMFQAdi1yYLJcMQgrKkfEEe6YKmzUSpB1yvD0+Hs+45Vdv0ZTIVlGj9wLanEmjgQMHRhwwSDHbyf0swF8Rl7F0bwzUuG2DaVjR5GxZmDbz58+P/E0SIbR5QmgAsJqsb9++EZMliUBvjIDF00HtIY4bnQSM8iFDhpihQ4caSDQP1Y18FJeD0kkAHar7Djp4KSvR+/fvHwE6BjPAbjtaZlveICI+MM+KCPqI5IMQ6Nq1azI/YTcTYji6e/fuEZPNY61uMmjbeEp2xMxfZkjvI6hzSDyodnQsHDWMerdsTdAjjKIgbDeYTiHs8y9N00xrShJ2B8vPz9ed+wnDfIi4TKbGAuCRj924FhSgR1skeauN7cMszPoqbY2TN7ZJmMI3nmCfQY6M7s022yziYbslalBrGADYQg6kAF/PkN00sx6RW3itOgmAvlf8ft1LI+BZrHbCqqckUkFYBaGv4ZS3xyENeTljVqxgx0IITEd/ERSIkORQ7QQ6UnO3od39AdV8BPCQaFiBvz6TA7nXjKCLxGCQyw2T3L0Y7IsWLUr2J9SGOfDxvdDibaU1a9aE+W0VsYL9WtO0XcSvaab4jmzEVqHW0aHW6Rpn/97Ey1jK9YEDRgqo71Dtdpho8jfADaezoqIiAgJcxzkAAYDATGECdx+IRvPCKqg9/Yn2gVRHe4VIJbGCXabLHhAN7PhY54Cio22nXy8uT0anAwiwbyHVEHpb3wnfUVlZ2SzygHYAqBFThyZzg8GBPcUoJcxGtBn25Ak5gjMlVrDLt0edJELnYgcsOKWw3WzFH7UdPcAytiV+HtfxQZglS9JEQ+iEgQu7uzVTJ0WiE16EeQ2omE2SVQFYBJhvUD5cGPRgexzUVocd1POcOXMie6rYTh7rRio6Gwk+KRB7TVNLQiLeDckCOrCBuYawgV5UVLRIg70PbXIsTEB66FQT21ZpCF0hV70TJcRUa3eVzZo1C+o72wI+yKKLTrwnmiuOOrp87u9N09YTUb1x05AfstbnnVAvfiIXkg6zut35PN45O8YGx5JApALDmJ1DJ93LjsE7kEQGGxBTqp8b70UnXoQcHK+8I2RUZZhguxAA7FhA3iVRIIffAnbWQMjmHdrwXGOaz3JOYKM+TQfySXbKeOl/RQHfh1SDSPrCfiYvsTzsGJBlgT6ZA8BNMGELBuzpchsb9hx2LLL9MLTfMS3XjO7De+Dc3k9G5t8nHGSGoES5eN9WpiHX4yU6Xyj7f6ZpMfilrPMCXocPMkS870CWhQGP+PgzLBfZisiC7B2gsU/m4AC4H2DbIqMT2ZVjPYCGNvuPadh49Dn2wVOmaWUUBNSzLONIDg6UW8zvmM1AAugQvnc++UOei2qNMfjQbkcd7Pa6lOzOQZKDYdotXbrUQCjGwcTb00r1SFjHZT1OZscaNgo6Z1cxupEKeys7203nI7JyieUdTdNKI0fQCnIqsBc7bhR/A4TYvs5t7LPMtFz25giLmReyPtKBepuSepQYwcggxOqe73iuktLOi/zyzZdRw0HSy4D5cmqbQnFuuk8ZjjCZdHcrbeMEiOwDL8IAG0oBJZ2cdab5el9HWGQy0qcspAR/2wpIvOoemJACgfwgSGmvySE3c4zwIvycODnre1ugN+484HJRDhQAgiRE/jaWhy3l+RtdwEEU5DwxuT0y4u+7EBCDKZ0AiFKlRfJN89nQXpQ6fzcNK3skuW0z5Mb02PpsDCX/Na59LR+tzIuNqLpR/zsUSHal1JxEbSHrsiOPb6WU3Y3n+1KDuJmfXYz/tth9FVgep9YoZPlo6xd57UjRBzDhTuIgP8Q0peTi2TN5fYkyUe6knS37ZyS/9xHTckPQQwMA5R7Tjk1KAeKZM2ea2bNnm+Li4kYuKSmJMI4XLFgQcUQTAXSnEuXSrysUmF9gA0OCFpjmu1JBZWJFzQAFTJd6W8JOcySlWZUyibA29HDlO7gcGLwbiWRuZc8MAtCIgXiFMHPeFtdqaNvPE1LwIiHZR6iwqptBHGgaVgZd4NGIX/Pb3LK4Aab5+lhpvsi2+o2KesiU5XHieLxp2jt9Ie3nW0SZE5VdfiIBbWjeuQFUyoHpZqqw2GRfHm8cEDBuo9jbY0UaJLefRE8AtQC6A/tW4vdDVN0Z/NtPAVCm40FiyjWen5voOebR4otapX4jwL5O1RGrfGbS4axXGqOPMluqCRiv9yxQ75wvwJ6n/BGsN93LBPvnBo5k20TbjSxX3fu8uv6GOB5A01LmAsuBNlv1zyL17fsKh9zEAHj0wb3rSTRptAW6Z8BCp88O9gBomZD0GylbU/5uzxSgTvXr4BFNcNSNTpkkZyaVmJb7qeQLjZSnytFt0aiF+fcfpmEZnxyEcynVe7cSgs1Tdrof5Zvm+f46qb1GRY06K8GR79OO7t7VwqRrFLAx9s9EPjMxxYG+uwX6h34Xswlmt8D3eEZjOnh0vB4M9aoTNw+x0nquebmSZEMVQOQStWiLkqNtJiSvzaQTd6EwO47iYDI0ow5o5RtKlcbxozLTfNF2lygDfTWFTnbA7wtzI6X7WMa96yPQHajktm7HUPWvEezX8LkM40mw7xylA9qaLJGvzI/NybKOlQIAYRiFdSpEd6UAujHNN2ySx3Kfl0+VL+P1/Vmsv9wKUA+iA1VEplJpjUTSRNN8C5FUIGi5Ea0B3QHwFvEbq8kRb9+GUZl9COgSglZK8v78/b04N5mO5hA6f1NEJKBKDYCsKJJGAqOQqnyKePYjRpEGEmAXU0LuaaJP9mQFvFav/BMZvRiltIeLgExhyPNzgvEhcU9POo+j2Tb7cTDcxetymeFlFDqDGKWRG6jeKQRNEI0Y9NtjoSKTOns9Ahe7WqB/HORmSENMyNwsIgJnG+/9XrIUAJzNe5SQ8HDwnvV5T6ZyHDtG6Yg8FT50kYjvqeYRTXjG4z0HmOb/nSJbqe+Noryzh7J38R1uK4rTGWZEecM8GryjafpPINsx0oKoCDaGcruFYfC/p56FWYiNlR7kvaNoQj7h8W1vMTqm7fRMH1MlSwmRLiECfxL/PpwCEn1GrLbxxYypfudxTzHDkzVscG3SfElJ97rHs3Dmfs9nX1OO1Ms+4AY95gHQxQTSE6bltHc9wXk7NchXHk6n0zxVPg6qlMRbM1z5Z2HKbUOgI3Z+vgr9VYm2g6R32/gBxMea5nF8GX6UoVlIfewloxPsyjno9lbS1cux/so0/fuabgrsj0Vp77YC/oQkAX0thc+MWB7y2jdma5oOkBJLPDpqe0YiIGXnqGubMjSYw06foRp8dzb05yx7K4Y35yhzyIhrJabl/x8qoN3elTZssQp7ZjNUiHe/oyIa/Vj2UgJO0kiW+aUI2xUQ6Jk0keaIdujOQfgtv3k0gb7co623YOgwg2V/6dMnPegc5xH4X5uWG0SBfklBMF05w6jHHvzmd1W0aEuan17t3VbCRN6TSQB6pP2sZG8X2NOUplQFfDOgxwr2zHQ/pSkEeso0/79Q8aBKDfRYKQ32NIUJ+CPiVDaifju1B+hpsKcpbEJS4KFxAPrOpvUszTTY05RwejFEwDugzwqjsDTY0xQvwLd3AcjSMIGeBnua4kmYR0Eoti3bRmCic/swgZ4Ge5riTUi1xfzCPQHvx3wC1iZgkvLHsCuTne6PNMWZAGD8nycsskF4EikRyPvBhBwmvJZRgmNNLWL1cdv/7/8CDACyBReY5F0AEAAAAABJRU5ErkJggg==;" vertex="1" parent="1">
          <mxGeometry x="-363.5" y="225.5" width="187" height="55" as="geometry" />
        </mxCell>
        <mxCell id="lt6rpjhU2XfIqA4amkJT-4" value="" style="image;html=1;image=img/lib/clip_art/computers/Database_128x128.png" vertex="1" parent="1">
          <mxGeometry x="660" y="120" width="150" height="200" as="geometry" />
        </mxCell>
        <mxCell id="lt6rpjhU2XfIqA4amkJT-5" value="&lt;font style=&quot;font-size: 21px;&quot;&gt;الموقع المراد سحب البيانات والصور منه&lt;/font&gt;" style="text;html=1;align=center;verticalAlign=middle;whiteSpace=wrap;rounded=0;" vertex="1" parent="1">
          <mxGeometry x="-390" y="100" width="220" height="90" as="geometry" />
        </mxCell>
        <mxCell id="lt6rpjhU2XfIqA4amkJT-6" value="&lt;span style=&quot;font-size: 21px;&quot;&gt;قاعدة البيانات الخاصة بنا&lt;/span&gt;" style="text;html=1;align=center;verticalAlign=middle;whiteSpace=wrap;rounded=0;" vertex="1" parent="1">
          <mxGeometry x="610" y="60" width="220" height="90" as="geometry" />
        </mxCell>
        <mxCell id="lt6rpjhU2XfIqA4amkJT-7" value="" style="html=1;verticalLabelPosition=bottom;align=center;labelBackgroundColor=#ffffff;verticalAlign=top;strokeWidth=2;strokeColor=#0080F0;shadow=0;dashed=0;shape=mxgraph.ios7.icons.settings;" vertex="1" parent="1">
          <mxGeometry x="-86" y="272.5" width="130" height="130" as="geometry" />
        </mxCell>
        <mxCell id="lt6rpjhU2XfIqA4amkJT-8" value="" style="shape=flexArrow;endArrow=classic;html=1;rounded=0;entryX=0.161;entryY=0.33;entryDx=0;entryDy=0;entryPerimeter=0;" edge="1" parent="1">
          <mxGeometry width="50" height="50" relative="1" as="geometry">
            <mxPoint x="-176" y="250" as="sourcePoint" />
            <mxPoint x="-65.07000000000016" y="315.4" as="targetPoint" />
          </mxGeometry>
        </mxCell>
        <mxCell id="lt6rpjhU2XfIqA4amkJT-10" value="&lt;span style=&quot;font-size: 21px;&quot;&gt;Scrapper Back-End Service&lt;/span&gt;" style="text;html=1;align=center;verticalAlign=middle;whiteSpace=wrap;rounded=0;" vertex="1" parent="1">
          <mxGeometry x="-170" y="382.5" width="305" height="90" as="geometry" />
        </mxCell>
        <mxCell id="lt6rpjhU2XfIqA4amkJT-11" value="" style="shape=image;html=1;verticalAlign=top;verticalLabelPosition=bottom;labelBackgroundColor=#ffffff;imageAspect=0;aspect=fixed;image=https://cdn4.iconfinder.com/data/icons/scripting-and-programming-languages/512/660277-Python_logo-128.png" vertex="1" parent="1">
          <mxGeometry x="-135" y="144.5" width="128" height="128" as="geometry" />
        </mxCell>
        <mxCell id="lt6rpjhU2XfIqA4amkJT-12" value="" style="image;sketch=0;aspect=fixed;html=1;points=[];align=center;fontSize=12;image=img/lib/mscae/Docker.svg;" vertex="1" parent="1">
          <mxGeometry x="14" y="180" width="50" height="41" as="geometry" />
        </mxCell>
        <mxCell id="lt6rpjhU2XfIqA4amkJT-14" value="sqal" style="shape=image;verticalLabelPosition=bottom;labelBackgroundColor=default;verticalAlign=top;aspect=fixed;imageAspect=0;image=data:image/png,iVBORw0KGgoAAAANSUhEUgAAB7EAAAgACAMAAAB3tTfDAAAABGdBTUEAALGPC/xhBQAAACBjSFJNAAB6JgAAgIQAAPoAAACA6AAAdTAAAOpgAAA6mAAAF3CculE8AAAC91BMVEUAAAD/LR7/Lh7/LiH/LiD/LSD/LSD/LSD/LSD/LSD/LSD/LSD/LCH/Lh//MCD/KyP/Lh//LiD/LSD/LSD/LR7/Kyv/LiH/LSD/LR//LSD/QAD/LiH/LR//LiD/LiD/ICD/AAD/LCH/LSD/LiD/LCL/LiH/LSD/LR//MR3/LSD/LSD/LSD/Lh//KyD/LSD/LSD/LiD/LiH/LSD/Lx//LSD/LiD/KyH/KBv/LiD/LSD/LiP/MzP/LSD/LSD/JCT/LSL/LSD/LCL/LiH/LSD/LR//LiP/LSD/LSD/LSD/Myb/LSH/LSD/LSD/LSD/LSD/LiD/LSD/Lh//LB3/Lhf/LSD/JCT/AAD/LSD/VQD/LiD/LSD/LiH/LiT/MCD/Mxr/Kyv/LSH/LSD/KR//LB//LCP/LR//LiD/LSD/MCL/LR//LR//LSD/LSD/LSD/Lx7/LSH/LSD/LCH/LB//LCD/LSD/LSD/LSD/LCD/LR7/LSD/LR//LSH/LyL/LyH/LSD/LyD/Kx//LSD/LyL/LB//LSD/Kxz/LSD/LSD/LiD/LB//LR//LSD/LSD/KSH/Lxz/LSD/LSD/LSD/MyL/LSD/LR//MST/LSD/LSD/Jyf/LSD/Lh//LSD/ORz/Kx7/KyL/LCD/Lh//LSH/LCD/Kx7/LR//LSH/LSL/LCH/KyL/LSD/KyD/LB//LiD/LSD/LCD/LCD/LSD/LiD/LSD/LiD/LR//LSD/LSD/LSD/Lh//LSH/LSD/LCD/LR//LCD/LSH/LCD/LCH/LSD/LSD/LiH/Lh//LSD/LSD/LCH/LSD/LSD/LB//LCH/LR//LSH/LiH/LR//LSD/LB//LR//LB//LSH/LSD/LSD/LiD/LiD/LSD/LiH/LCD/LiD/LB//LB//LCH/LCD/LCD/LSD/LCH/LCH/LSD/LSH/LR//LB//LCH/LR//LSD/LR//LSD/LSD/LR//Lh//LSD/LSH/LSD/LCD/LCD/LR//LSH/LB//LSD/LCH/LSD///88Of1yAAAA+3RSTlMAEUN1qMbW5vbVxaZ0QhAkes/NdyIGZM7LYARe2+BvCAFc4lg0xMo5Gpn9/qIY8vSATd4xwb4vE5H8FgXw7wdE2UwntbssiPn6FGbq7dLXSKqzIwv4DgLoAzfIPRwgCgxV5BnrHZqXPyVJ+8fn0Su01C4puOHd8ckz9fPMPDb3R0HpJkvuEr23OMPj378fG+XQ7A/Y0xUotg3cMsIJOzXaIT5AKkq8LRcewDA6cHGQobGtnVmjmJ9+anx4eYN/fadWZ2Gce65PrI6PYm2SpIxrUFGrimyeqV+GdlRuaVJjlbJXsIVdoI1yc0VauZO6pYKLgZSvaJZbZZuJhLkOI1QAAAABYktHRPw8DqN/AAAAB3RJTUUH6AcYFDgQAEk3HAAAgABJREFUeNrt/XuclfW+2HmCiQomQKSso6mCRR0CSF2AVaBQWkIpYlVZIFYJlIBalMJptcQb2xuoqAheUES8oqLi9oKXTk53On3Sne6kT07SPenOSdKddE6STid9Sff0baZnemZ6pmfWP7O3e7u3Fy5VtdZ6vs/l/f7fl9Tz+9XzqfX8nvX7TZlCykw970/96fMvuHDatAunX/Rn/uyMma4IAKTOrD93ceVHZjdc4roAQIo0/s6lldO67M83uToAkJJeN8+pnNHc0jxXCADitfzu/MpZzf0LLa4SAARbsLByTosud50AINLi1rbKOLR3LHGtACBKY2lpZZyWlS1nA0CMzuWVCZjf7IoBQPJWXFGZoCtXumoAkKxVXVdVJqyt42pXDgCS0126pjIpqxvWuHoAkJCe6ZVJu/Y61w8AkrD2+kpV1t3gGgJAvU3t7atUqb/1RtcRAOqpaWB9pQY2lBwQAgD1M+OmSo1svNnVBID6mDVYqaGhW1xRAKi9TeXNlZrq79riqgJAbQ0331qpuQsHtrqyAFBD27ZX6mL2ba4tANTK7R3tlXoZusP1BYBaGClPq9TRtN4drjEAVKtldG6lzu5sbnGdAaAqCxZWErDoclcaACZvcWtbJRHtHXe52gAwOY2lpZXELCvPc8UBYBI6l1cSNb/ZNQeAiVpxRSVxV6503QFgIlZ1XVUJ0NZxtWsPAOPVXbqmEmR1wxrXHwDGpWd6JdC11xkBADi3tddXgq27wSgAwNlN7e2rhOtvvdFIAMCZNQ2sr6TChlKT0QCAM5hxUyU1Nt5sPADgdGYNVlJl6BZjAgA/tqm8uZIy/V1bjAsAfN9w862VFLpwYKuxAYDf2La9klKzbzM6APArt3e0V9Jr6A4jBABTpoyUp1VSbVrvDqMEQNG1jM6tpN6dzS1GCoBCW7CwkgmLLjdWABTX4ta2Ska0d9xlvAAopsbS0kqGLCvPM2YAFFDn8krGzG82agAUzYorKhl05UojB0CRrOq6qpJJbR1XGz0AiqK7dE0ls1Y3rDGCABRCz/RKpl07agwByL+111cyb90NxhGAfJva21fJgf7WG40lAPnVNLC+khMbSk3GE4CcmnFTJUc23mxEAcijWYOVnBm6xagCkDebypsrudPftcXIApAnw823VnJpZ2mr0QUgN7Ztr+TW7NuMLwD5cHtHeyXPhu4wxgBk30h5WiXnpvXuMM4AZFvL6NxKAdzZ3GKsAciwBQsrBbHocqMNQFYtbm2rFEb74C4jDkAWNZaWVgplWXmeUQcgczqXVwpnfrNxByBbVlxRKaQrVxp7ALLj6t+LXMAO/fb3Vf+aczgByIju0jWxm5DdfXHk/391wxpzAIAM6JkevtF38Dbm146aBQCk3drrU3GY1o7Yo8LW3WAmAJBmU3v70nJg9T2hx3H3t1rOBiC1mgbWR1Zy470//Oecd1Pkv2ZDqcmMACCVZqStkNF/QdxsTgCQPrNCn0KPnf4p9NSusbQ8pQeANEjtm14peRMOANIg1d+mSsG3zQAgFbZtT/WOJeE7upghAKTB7R2R24K2dVx97n/iqq6rQpez7zBLAIg2Up6WhZM3Yk8mmda7w0wBIFLL6NysnG4Ze/rnnc0tZgsAYRYsjKzgsvK8ifxjG0tLI/+1iy43XwCIsbg19EzNjiUZ+wcP7jJnAEheJj+yZuqhAADUQEaXhTO08A4A1cvwq9cZebkdAKqX8a83Z+AL5ABQvRxsIbbtvlRv0gYANRC7TfeFAzXZpnu4eXd6N0IHgOrl5iisTWk9bAwAqje1ty8/x03HHujdf/oDvQGgek0D6yMbd8HNtf6BZtwf+fNsKDWZUwDUwYybYvtWh3Omg/8G2XizWQVAreX0GXKunvMDwI7g97QeqN+PtvbBnLxLBwDDzbeGfhfquvr+eD0PRf50O+vxuB+AQtq2PXa/kcZ6/4A52BMGAAqxp2fG910FgOhzMx5O6gfd87PMnm0CAMFnUz6S6NmUnY9m8vxQAJiyYGFkw5aV5yX74zaWHov8eRddbsYBMBmLW9sC+9XesST5H/mu2B95cJdZB8DEP3AujfzA+XjQB84nivVYAYDM61xe0EXd4KX7+c3mHgDjt+KKyGrtjX1xeqRhX+jr8SvNPwDGJ/bLye2D4V9OLsRX0AHIuuANwJ58Kg0X4en7Yrd5W2MeAnAOPdMjW3XhwHA6LkNL8+7QrdRHzUQAzmbt9ZGd6kvTQVabyvtDjyu7wWwE4EyiD4u+JF2XI/ZI8LF6HQkOQNY1DayPLNQFz6Tvkjx7f+QV2VBqMisB+InzboqtUypPiR5ufi7yqmy817wE4IdinwD3d81M64WJXim4xdwE4Ld2lDeHvmX1QJovzoGh2D9mtpifAPzKcPOtod9kej7tF6jnocjrszOdCwYAJG7b9sgeHWxoTP8l6h7YGXmNZt9mlgJgR85xORS6c2tl6A4zFaDYRsrTIkP0wsPZuVR7Xoy8UtNiT0cBIFbwyZJzRrN1uTofLegJpAAEW7AwskDLyvOydsEaS49FXrFFl5uzAEW0uLUt8kzNjiVZvGh3tcYeRLrLvAUomsbS0siPi4+/lNUL98TLHkwAkJzO5ZHdOZzpJdnOVyKv3fxmsxegOFZcEdmcvVl/7XmkYV/k9Xt1pRkMUAyrumLXYo9k/xK+5kvsANRbd+mayA+ITz6Vj8v49PmRV3F1wxozGSDneqZHlubowHBeLmRL8+7QzdhHzWWAPFt7fWRl+vJ1DNWm8v7QA89uMJ8B8ir6qOdL8nZBd3VEXs+x1hvNaYA8ahpYH9mXC57J40V99vXIa7qh1GReA+TOeTdFtuVYXs94Hm5+LvK6brzXzAbIl1mDkV3p73ojv5d2Zu/m0LWGW8xugPzYUQ6NyroH8n15DwT/ObTFDAfIh+HmWyOL8ubz+b/EPW9FXuGdeV1yACiYbdsja3KwobEIF7l7YGfkVZ59m3kOkHW3h+6nOdb6dlEu9KGusdDl7DvMdYAsGylPi8zICw8X6WK/827ktZ7We9x8B8iqltFHIhsyZ7RoF7zzvcjrfWemzzAFKLIFCyP7saxcwMMqukuPRV7zRZeb9QDZs7i1LfRAyCXFvOw3Bh9lusvMB8iWxtLSyA97218q7qV//4PYRxvzzH6ADOlcHlmNwwVfUO18JfLqz282/wGyYsUVkcXYWz5R9AE40RD6hOPVlX4HALJgVfBK6hFDMGXKa6Ffg2/ruNoQAKRdd+mayI93l31oCH7lo4six2F1wxpDAJBqPdMjO3F0YNgQfCf42/AfjxoCgPRae31kI/q67Lr1A5vK+0OPTLvBEACk09TevtCdrU8agh/b1RE5ImOtNxoCgPRpGlgfWYdLPzEEp/Pz1yNHZUOpyRAApMx5N0WW4ZgTms8k+HTyjfcaAoA0mTUYWYX+rjcMwZnN7N0culpxiyEASIsd5dAkrPvUEJzdPcF/UG0xBABpEPzY9c3PDMG5nfdW5BjttGgBkALbtke24GBDoyEYj+AXA2ffZggAYt0euhvmWOvbhmC8DnWNhS5n32EIAOKMlKdFRuDzLwzBRLzzbuRoTeu1wQ1AENtgZk7PBZEjdmfBT0EFiLJgYeTdf1/ZUROTEHxQy6LLDQFA0ha3toUe53jKEExO9GGoXxoCgCQ1lpZGflT76mtDMHkrrogcu2XleYYAIDGdyyPv+Ycth2Z6/OY3GwGAInxG2+szWvVONIQ+I3l1pSEAqD/roLkQ/R7C1YYAoL6C3zW+7BtDUCsLLoocydUN3vUHqKee6ZF3+aMDw4agdnyfHiC31l5vz6xcGSnvDz107QZDAFAPU3v7QvelPmkIai96X/gbDQFArQWf/XTpJ4agPu6+OHJcN5SaDAFATZ13U+R9/Zjzlesn+HzzjfcaAoDauWcw8p7e3/WGIainHeXNoesdtxgCgFzc0Nd9agjy/ifZFkMAUL3oh6afGYIkxC577LTsAVC1bdsj7+QHvZiUlOBXC2ffZggAqhH95Z+3DUFyor++d4chAJiskfK0yFv4518YgmTZIgcgk2xiWUCx29De6RxVgElYsDDy3r2v7KCIEMFHvSy63BAATEz0YYynDEEUx6kCZEhjaWnkB61XvzYEkVZcETn6y8rzDAHAOHUuj7xjz7eYWfgZYAQA0v8Ja69PWJ6yVF5daQgAzsUqJt+KfpPhakMAcDbRbwp/YwjSI/bbAqsbfFsA4Mxiv417dGDYEKRJy+hc38gHSCM7XvEjwbverbvBEAD8VPSu0icNQRpF7yx/oyEA+CEnN3EG2+6LnBkbnN4G8AOxpyMfczpymg037w49If1eQwDwnXsGI+/I/V1vGIJ021TeHLpicoshAPilHW7HnMus4D/qthgCgOHmWz3y5Nxm3B85T3ZaOAEK7+6LvVbEOP+283IiQBhf3WECor8AeIchAIrK9hhM0NoHbbIDkLiW0UdsQclE9TwUOWvudBIrUEALLnLMA5MQfVjM5YYAKJbooxRPGYLsciArQGJONCyN/Jj06kpDkG17fhY5f5aV5xkCoCA6l0feb+c3G4EczKFHzSGAeltxhc9HVK2x9JjnNAD1ZA2SGrkr+F2Iqw0BkGfe86WGnnjZ9w0A6qNnuu/SUkMto3N9px+g9tZeb78qamykYZ998wBqa2rXmD2hqb3X7E0PUEtNA85dok6evs/5bwC1ct5NzjamblqadztjHaAW7hmMvJ/2d20xBHm3qbw/dM3lFkMA5MGO8mY3U+rtyw5/FgJUZbj51tAHljcbgqJ49n5LLwCTd/fFXgoisb8On/N6I8Dk3B76xZt+X7wpmpm9fb5CCDBxI+VpNrcgWQeGbNMDMEEto49E3juvvc4QFFPPQ7bCBZiIl7aHHtLwr3cbgqLq/ourI+feRQsMAcXQ+P7v/KXf/zc+ePLKf/Mv9/5bB4ZdkMx67a9ELmBf9a9ZwC60t//tyCNd2/7gLkNA7r3zVxf98K2RpZ//O6dcliw68e8ui/yQ88LDhqDoVl4ZOQOX/jXncJJrU//aab9LedULf97TzczpXB55t5zfbAT4xSx8zyyEulhVPvPC0yOleS5Qlqy4wqcbUmDevxd6DueVnvSQTzv+/aVn/3P1d6xoZ+ePr67IFcT2jiWGgO/c1Rq6nN1hUY/8Gc+XgC79xHXKhO7SNZEfax6/3BDwfe9/EPqNhQYPfMiZBReNbzOhky5V+vVM901Y0qXzlcg5+fGoESBHFre2jXPq93XZTCjlTj0YeW/c+9dHDAE/NVLeGzkvH7zaEJATJ/7GRL4EdOfv+giVZndHntHV/md2GQFOb9d/ELk5wG5LeuTDH86d4Ny/72kXLbWaI49guOwbA8CZfXhZ5IE0f9MAkH2TeSek/fcXu3CpdPwPAm+JF/55XybgrIb/aHfgBP0P3jACZNupv9U2qbm/72/7dnYKzQo8fKGva4sB4Fw2lffHzdE5nxoAMqyaLwEd9kZw6hzYEHcz/Dcvcf0Zj0v+w7hZevCA609m/Udzqpr9X33tEqbKzDfD7oT3P+vyM14z7g+bqBs9GCejblhX9dFMv+cbE2nyp6NugxtKW119xm+4+bmoufp/cvXJoqldYzWY/vvKNhNKjT+Kegf378x08Zng86D/uD9ouv4nLj6Z0/R3a7Xiee11rmY6rAjaoGLdA649E3fPYMx83f+Ra0/GnHdTDX8DPv/CBU2BQ/Nj1gVvdumZnHs3hkzZuR4JkSkHhmr7GzD2x4dc1HAhn1gOlhybzqR1/+sHI2bt33PlyY43/n7tN8U69g+aXNhYDwdsANnW4c1DqnsyVJPXaSa6AZR1HLJiuLk+u06/+ZlrG+rPJH/ju/Jhl51qvfNu8jP3D1x2suHui+v3ApLthAK9nfibt+/9p646tfCfvZf49nyrXHUy4OQ/rOuvwT+yS2WYv5vwPW9Z2S611Eh36bGEp+9/7qKTeiN139D3mI00oixKdgH7Ly9xyamdJf+4LdEJPNslJ+Vamo8m8ZvgDNoQ3yR6v3v5CVec2npiYaJT+ENXnFS7/PGEfhX+5IiLnby/kuDN7k5HwFAHna8kOIl/3/UmxRa3JvfQqa/ruAuesK37EhvevX/1hOtNPYz89eR27dtn/Y7UOvE3liX6xOnO3/UhLFk3JPZN1kGPUKib1zoS21XAV7JJ7dOm5Yl/3/Eyy0SJ+icJjeuTT7nW1NNHFyU0lZtda1Lp/Ssi9gH0WSxRf5zIoF44MOxSU18to48kMpm7XGpSaFXXVZUYe8vWOxOzLoEB3f9Pd7jQ1N+Of7o/gen8uQtN6qz5Z49V4rzyXxiBhFxa/9EcusRlJhm7EljOvtRlJm16LqjE2r7NICSi7t+LueAZF5nk/Pzies/ouS4y6RKxw/5P9sbqOGUgEnBNfYdxg73sSFa9Tiz6jcdcY9Ik5BS7033vsbzGYNRdfb9tv9QWZyRuxub6vhvb4hKTGt3//GAlLa69znjUW52HsL/LGS8kqv6vzPreA6lx3luVNPn8C0OS6WJXKjs9FyfBTxyla+o+pRWblLhnsJIyY61vG5ZMF7tSmX2by0wyEnllVrFJhR3lzZX0OdjQaGgyXexKZegOF5r6S+iVWcUmBer+iuWkvfmZ0cl2sSvTep3xQp0l9sqsYhOv/l9jrMK6Tw1QpovtoE3qrGlgfVJzWbGJtiu5k28m+crxGwYp08WuVBZ942pTL0m+MqvYxBop76+k3TGvHGe82JX2wS9db+oh2VdmFZtISR15U/V2vp8Yq0wXu1JZVp7nilNrSb8yq9gESuxY2Rq8cnzScGW62JXKfIcLU1vJvzKr2IR5rbWtkh19XV45znaxK5VXV7ro1E7AK7OKTZATDUsr2XJ0wK9LtovtjBdqJ+SVWbcgYnQur2TPZR8auEwXu1JZ3eCMF2og6JVZxSbC+x9UMql98IjBy3SxK5WPR115qhT2yqxik7z6n3BTP3vLJwxgpotdqXx+g2tPNeJemVVskpbECTf1dNgOWhkvdmWs9UZXn8laHPjKrGKTsM73Klm3fZthzHSxK5UNpSbXn8mIfWVWsUlUQifceOVYsc9h470GgEl84oh9ZVaxSVBiJ9zU3b6yV46zXexKZegWQ8DErLgieNIqNolpGthZyY85o0Y028V2xgsTk4JXZhWbpCR5wk0yrxx/YVAzXWxnvDABqXhlVrFJRrIn3CT1yvHbBjbTxa5UZt9mHBiPngvSMF8VmyTM7N1cyaODDY0GN9PFrlSG7jASnMs716djtio29Zf8CTfJefMz45vtYlem9TrjhbOamppXZhWbuvv565U8W/epIc50sSuVO22Kw5k1DaxPzVRVbOpsV0cl57xynPViVyqLvjEcnN55N6Vooio2dbUp5oQbrxwr9sS0D35pQPiplL0yq9jUUdgJN4m79BOjneliVyrLyvMMCT+0o5yyV2YVm/qJO+Em4pXjkwY808WuVOY3GxO+J4WvzCo29fJaR3ulSPq6vHKc7WJXKq+uNCp85+6L0zdDFZv6iD3hJsbRAb9P2S62M174zq5UfuJwh6EuOl+pFNFlHxr6TBe7Ulnd4IwXpoyk9JVZxaYO3v+gUlDtg0cMf6aLbVMcprQ0H03p5FRsam7JX26LbObv93wV+Su172975Tjbxa5UPr/B4BTZgvS+MqvY1Fh36bHIGf3tVhidj0b+Ew7bQSvjxa6Mtd5oeIpqcWtbRbEpiM730vDuV2Psnw3bt5kImS52pbKh1GSAiijlr8wqNrX0zruRs/n7RzrE/qHsleOsF7tS2XivESrgJ47l6Z6Vik3tHIo94eZHe5g8sTB0ObvsleNsF/sXE+oWY1QsK65I+5xUbGqlaWBn5FSe/ZN9QltG50b+g+aMmhPZLrYzXoplVddVFcWmIHreipzIpz+LY6RhX+grx1+YFpkutjNeCqS7dE0GJqRiUxOxJ9yc+bPQ7aEbF421vm1qZLrYlcrs2wxUIT5xTM/EdFRsamBmb+gJN+v2nOXf9vR9kf+0gw2Npkemi12pDN1hqPJu7fUZmYyKTdWGm59L8zu9w827I/95dtDKerF/8B0Ecmhq7Cuzik2Sfv565Awez/dmN8XuEbzuU5Mk08WuVO60KU5+NQ2sz85MVGyqs6sjcv6Od6F4VkqX2RU7K77dS48cOu+mLM1DxaYawZ9eJ7D/84z7vXKs2FVoH/zSiOVP7Cuzik2SWkYfiZy8H49O5B8bvNp+6SfmS6aLXaksKzvjJWd2lDdXFJuC+Oj8yKk78U3Fpvb2hb5yfNKUyXSxK5X5zQYtR4abb83cFFRsJum10G86T27j7gMPRv6y9XV55Tjbxa5UXl1p2PLi7oszOAEVm0kJPuFm0jfOnoci/9nfHS1GVovtjJe8iN1bSbFJVOcrsQ8nWyb9L+8urY78p1/2ocmT6WJXKqsbnPGSeSOxr8wqNkl6/4MsvwB0KHS///bBIyZQpos90VceSZ3gV2YVmyTdGFy86r9ks+dnkb9ze8snTKJMF3tCXyskdRZclN2Zp9hM9KnyY5ETtkYbWXQ+GvlDHLaDVsaLXRlrvdH4ZdPi1raKYlMQne9FTtfabRbZGPuHx/ZtplLVxR4Nfdd3PNvjkjrBr8xe9h8pNsl5593I2V7bAxnuCv1T2yvH1Rf76uDv057rCBpS+IljefB3RW5UbJJyKPaEm5ofevjEy5E/zsR3gFHsHxU7fM+qoVvcFbJkxRWRs+Xb/RgUm4Q0DeyMnO6zb6v9j9QyOjfyR5ozqthVFjt6X2hnvGTIqtBXZitDl/zyH6HYJKPnrcjZvrNOJ2mMNOwLfeX4C8WustjRZy854yUjukvXRM6TS+/+1T9DsUnCgeBPMlvq9pPFbn003tNCFfvMxY4+37geT3+o+SeO6en4u06xqb+ZvXleLXz6vsgf7mBDo2JXV+z4M17ucI9It7XXp2XtRLGpt+BjKuv/Rm5L8+7IH/DNzxS7ymL/4pYcesZLbb/FQI1NjX1ldt2n3/u3KDZ19uzrkbM9mW+9bordZfgHv9KKPZliR5/xcqdNcdIqeNHkR3+QKzZ1tasjcrYnt7PULK8cZ7zY0a8W1Wg3Pmos9sXEnyx6KTY5/uyZ5O7Nz97vleNMFzv66zu12PGeGov98t9pXixVbOqmZXR+5HRP+oSk4PX6Sz9R7CqLHX3GS7WnylFjwRvsvHCaL28qNvXy0fmRsz3iFOLoV45PKnaVxY4+42V+s/tGagRvYnv6DZIUm/p4LfR7ylHbbh8Yivwd/3YbQ8WuqtjRZ7y8utK9Ix22bY993nL6TxyKTT2ciN0LLPC2F/vK8dGBIv1G1qXYvzzj5aoC/rHJD9ye0k8cik0ddL5S3EeL3bH7p1/2oWJXWezoM14iFnT4gZHytMgZsP2lM/7LFJuae/+DYr++cyj4leMjil1lsaP/5kz6pUl+oGX0kcjRP3y27+YrNjUW+0wxHV+R2fNi5G/83vIJxa6y2OFnvNzgThJlwcIU//YqNrV9Jhz73k5qtqGIfeX4cDF20KpnsaPfnUxu8x9+YHFrW5qfkCk2NQ3Ve5GhStNWj8GvHG/fpthVFjv6+4nJbLDLj35tl6b7LRTFpnbeCX0YnLbjFLxynPViRy9o1v8QG370iWN52r/podjUyqHYE25SeGRh7CvH+8p5f+W47sUO32e3zgfF8gMrrogc6/HtpqDY1Ebwl5pm35bOv9lDXzk+/a5Jij2BYkefZVPQM14ixO4qP94dCxWbmuh5K3K270ztORjRrxx/odhVFnvKlJ+HnhdbyDNeAj5xxJ7cNu5TARSbGojdnLO/a0uKr030K8dvK3aVxY7eYDqlz4/y9Yljekb+KlNsqjazN/SEm9Sv9T0d+srxT07YVeyJFjv8EKfCnfGSsLXXZ2blQ7GpUvAhk1l4n7aleXfkJXrzM8WustjRByWn7XsQuRJ85N66Tyfyj1VsqvNs6CJfVr6zGvzK8cRuCop9WufdFDmEdxZjU5zkNQ2sz9Kf04pNNWJfpM3SvlBeOc56saPv7anZzy9XZoT+HTbxJSvFJrufHLO19/Kz93vlONPFjn5+mo4983NlVuhax2ReC1VsJit4dTZ75xsFr/iP+wskin1mse8oxZ9LlyvB7xO+MJmvXio2kxS76XI2zxCOfqv+pGJXWezo7wHFnv2eK8Hf2Zvk9kaKzaTEfsu4rePqjF632G+uj28jRMU+q+C9Nl5d6e5TC9u2xz4tmeQnDsVmEoJ38sr0TavnochLN57DBhT7HGL3syzCGS91d3vwJ45JD6FiM3Gxu2Vn/cFg8A7s5z7QT7HP6euvLAll+RNHeVrk+FVzFK5iM1Hvf+Dlm+rEnnKWn1eO44r9i79aH/XaZUa1jM6NHLvDVX2zXrGZmNhTn9sHd+XiKsaeJL63fEKxqyz2lMbSY5Fj+PkN7kWTs2Bhln/3FJsJPdGNvU0tujw3V7Lzvez+na/Yv/7jtS1wCLO0fVCKLA4dtPbBI1X++xWbzGQmXxs1Bv/xU81ammL/2hMvRw5hVrboTZHG0tKMv0Oi2IzbntBHudN6d+TsesYuMOTglePwYk9pGQ19CTMLx+Ck6hPH8sx/T0OxGadDoV9pqQzdkcNrGvsS375yxl85ji92+BcdU3/UbIqsuCJypGq0F4JiM75nuLFfSZp9W17/6g/9jDbJfZcU+/tiNxPK5xkvdbAq+BPHydr8GIrNeMRu+7Ezh6dYfOdE7Ge0z7/I8LVLR7GnTHk6dMPeYzn+7ajdJ47Yjepqt6e/YnNusVtr9ndtyfXVjf2MNpnzgxT7R4IPxcntE6jafeKYnpe/qRSbc4k+viL/K3Wxh6pM/Ixexf6J4INn83bGS23FHrhW23ULxebsgo+I3HhzES5yy+j8yIv85meKXbVdHbHfpDjuXnV6sYeaV9Z9WtOfRrE5q2fvj5ztxfnGafBntBrfVopY7F/8rrweOYT52q2gZpoG1ufqj2HFJrWfG/oLtatT8LXO4ivHKSt29InLi75xx/qxGTflbMFJsUnt576i7Zwc+xktg68cp63Y0e985OeMlxqZNRj5G1WXlzoVmzMIfv/12tHiXfLgdwZq9xWUwhZ7ypR7QiORh5PtaviJI/SV2fp8cVKxOb3Y75gW9QTg6PfyTyp21c57K3IIs356fA3//A1doqjXeaiKzenEfke4rePqwl75A6Gf0Wq0lWKhix39stOrK92/pkzZdl/kGNRvA2DF5qeC90q+sti3nJ7Qz2g1Oa6g2MX+5R78Y6F/8J4q+h3s9uBPHPUbAMXmJ2L3uvZYryl2D/caHAlY9GJPmfJO6KYdRV1U+u4TR3la5NWv60G2is2PxJ7569WZ+M9omXnlOMXFjt4Ys17LqBnQMjo38sofru/34hWbH4g9s7m9Y4kh+NVntHcj7zp7yycUu1rBh098fkMxf3MWLMz1b45i8z2Npccip/uiyw3Bb3S+l+NPCkUodvQBj2OF2oDo1xa3tuX76ZRi871IPBoZCdss/vgzWuifT3VdjStGsadMWXFF5BAWZ5Pf33ziWBr6BkgCm84pNt/Z82LkbJ/Wu8MQ/Pi3M/QzWvpfOU5/sX/xV/DyyN+qjfcW6hNH6LVO5lsWis2vHAqtQ2XoDkNwGu9/EDko9ftWaXGKHf25rwCH1X73POOr2E8cyexkoNh8+wQ29gtFs28zBGf63PBK5MDMGVXsqsWurWbyjJeJWxX8ieNkUs/dFJspU3oeipztFw5sNQRndKIh9DNafXZHLlSxp0x5IvT95Qye8TLhTxyx7+UnuCO/YjPlwFAl9DPAFkNwVrFbxtblBKKCFTv6O8J5f4YV+933RP8iUuzCm9nbZ50t5T66KHKI6nDKb9GKHb7zb8bOeJmQtaH7yyW86qDYBRd8wOPGmw3B+D6jPRI5TG9+pthVi93rOqk3oxI3NfYTx7pPk/1xFbvYnr0/crYX7vuiVdhU3l+kG1MOiz1lytP3RQ5hLvc7CD4nLfk/ZRW7yL7sCH2cVMQ9maqwK3a0UvjKcdaKPaWleXfkGC76Jm+/EzNCP3EcDPjEodg+tUV9anvAEEzQz1/3ynGmix39S5eZM17GZ1boWfIxr2QqdlEF/7l/7XWGYOKGm28tyJdY8lrs6EclOTobb1N5c+SVDPrao2IX1NPnR872gp/fW4WZvaG3qXS9cpzJYk+Z8mzoo5KcnD8/HPuJI+w0U8UupNhv+LZ1XG0IJu2e0EeBfV0peuU4o8WO/oLGqyuz/1uwLfQlvsDtexW7gIK/GnrlSkNQlfPeihy+ZA48yHWxox+VpP+Ml3O4PfgTR+DlU+ziid2pOicP5UI1xe4Cf9mHil21A6GPSjK9LDVSnhZ57b76OvKHV+yieeJlL75k36GuMa8cZ7rYU6b0hD4qCVuIrVbwhq+Hg7/VrtjFclfoMULtHUsMQY28827kfWtv+YRiZ/xRyec3ZHHeL1gYO++jP3EodpE0lh6LnO6PX24IaqjzvSJ/1shBsaMflYxlbwuj2INL0/BsSbGLdIt/NPIWn8tNEkMFHzG4fZtiV+2LzyOHcOd/malzOOf9udBXZu97OgXXQLELY+WVoY+T/vqIIai5JX858iPHVb8X3LwcFDv6UcnGe33iyNR3JBS7IA51XRU53YfuMAR18f4HkcMa+L3U3BR7SnfsWlVWjrv9+qvIq5Sao88UuyDPT1dHTvfZTxmC+n3yWB45tHNGFbv6u3Don9NpPOPlJ1YFf+I4mZq5otgF0PNQ5Gy/cGCrIaijEw1LQ185/iLsJ89LsaMflaTvjJeffOIIfWMjTfvpK3b+HXgwcrb3dW0xBHUW+wZtzBlG+Sp29L5Gs2/ziSMbf88odt5N7e0LfZx0iSFIwEcXRQ7ywYZGxa7+UUnoi9DpOuPl+9aGfuJI25qBYudb8JkDF9xsCJLRMvpI5EC/+ZliVy32fJ7UvFuVqk8c6z5N2fVQ7Fx79v7I2b6hZAE7OSPl/UW7teWs2FOmfBR6Bm4Kd0wYbl5fvD9EFbuoZoUeNtCfvR2VMm5X6Ge0gMeHuSv2lJbmCyN/Zxd9k67LMSP0E8fBUlP6Zohi59am4M9cDxiCxP384kK9opO/Ykf/2qbljJcUfOKIe6FSsYuopXl35HS/9jpDEPMU8dYCfQ0mj8X+5aOSyCFMzel6m8qRR4hHfmlRsQvo6fsiZ/vqoHeHmTJlR+yNLtFXjvNZ7ClTnn09cghTcYL9cOwnjvSeRarYeXR76IJmW8fVhiDQPaEPE/u6knvlOK/Fjv6Kx6sroy/AttBPHMGb7yp2wYzEfrHzyocNQbDzboqcAMkdmZDbYk+ZMjP0S01tHaeK/InjVIonhmLnTcvo3Mjb9SPNhiBe00Dol2Iu+1Cxq3ZgKHZhK+xjZvAnjq++TvW0UOyceeJlr60wZcrUrrH8v3Kc62JHb84ZtJQb/InjcPq+k67YOXZX6AbT7R1LDEFqvHN95J1vb/mEYlere2Bn6OvSNwR84lgYO2tT/4lDsXOkMfag3ccvNwTp+ow2PeefVvJe7Ohj7ceS3gQp9kibVH0ZXbHzr/PRyBv0nWl/nFRAwYcUbt+m2FXb87PIIdyQ5LZfwZ84LvsmC/NBsfMi9jd7b+8OQ5BCq0I/o9X7rdsiFDv6L/GN9xbj50zuGw6KTfTTs8rQHYYgpVZcETkx6vvN1mIUO/qz59At+f/EkdKDyxQ7t08/V0dO9yefMgRp/oy2PHJyzBlV7KrFvlGawBkvq4I/cZzMzFRQ7ByI/RbIhQPO1Ey3Ew1LQ185rtsOzYUpdvS3Nut8xkvw+xYJ74av2AV34MHI2d7XtcUQpF7sO7h1OwWpQMWO/p7y7Nvy+okj8RPnFLvQpobuZlgZusQQZMKCiyKnycH6HA1TpGKH7wVWryfHa0M/cQSc6q7YBRZ8YsAFNxuC7HxGeyRyqrz5mWJXLXa/7bq8nRX8iWPdp1mbA4qdZTPuj5ztG0oWsDP1Ga28P2c3x6IVO/oU3ZrvuRD8iaMuf0YqNmcwK/RUxf6k90Mi45/Rav8AsnjFjj43elFNdxmJ/cRxMMndYRS78DYFf2J6wBBk0N0X5+klnwIW+5e/+JsDh7CGO3nGfuKo2+uQis1ptMT+qX3tdYYgm4abb83PF2kKWezo1NXofL7gTxz1+8qhYvNTsctZq+vz5i+J2BH6Ga2mrxwXtNjRj5PnN2f9E0fQSaKKXVCxy5FtHVcbgky7J/QzWl9XzV45LmyxpzQNrI8cw1dXZvkTR323zlVsfij4a5lXPmwIMu+8myKnUM0OXShusaO/FlXVGS/RnzhOZXncFTtjgrc+qucu0RTmM9plHyp21dZeH7s0NskPqsGfOL76OtujrtjZ8sTCHLx0QuE/o9XmleNiF3vKlJ7pmVsMDv7EcbjW3yhXbM4i9gif9o4lhiBHYj+j7S2fUOxqBR+h8fkN2frEsTcHnzgUOzuCj8l9/CVDkDOxn9Gq/7xT+GJHH1M5NrFtlII/cdTuq+SKzbl1Php5e70z84+TSN1ntO3bFLtqK66IHMIN4984LPgTx2Xf5GK4FTsj9vws9HFS7w5DkEuxn9GqfG9XsX/1t/zyyHvDxnuz8ImjZt9PUGxSf19tHzxiCHIr9jNaVd+NVexfOdGwNHIMh25J+yeOuhw7ptik89nlk08ZglyL/YxWxRcGFfs7i0NXiM95xsuh0E8cdTvaW7E5nZ6HImf7hQPGOO8aS6Gf0Sa9x7Ni/9aCiyKH8KxnvHSXVkf+22q7l71ic3ZrH4yc7X1dWwxBAcR+RpvsOUqK/T0to49E3ilm35bOTxy1Pi9OsTmb2H0uKkOXGIKCWBD6TdmDkzpcRrF/YCT2OKzTP3s+EPqJo/Znsis2ZzbcvD5yul/wjCEojuDdqN78TLGrtit0x+7TvN8V/Ilj3ae5G2LFTrHYM/U25OxxEuf+jDYtW7dXxf6Juy+OHMIf7dow3Pxc1v4IVGwmK/bc+v6umYagcGJPVZrwI0zFPt1zuVsj7xuLvknLJ46D49/bRbGp2qby5tDPOw8YgkLatj1Drwkp9unsCL11/GYv0NhPHJN9mVGxmdwfyrsjp/u1zxuC4k690M9oE/oqjmKf3j2hsfz2hL9NsW/BTfoLg4rNZD7o3Je993bxeKeOrxwr9oTcfEHkED76L/5l7CeO6/I7soqdPkf+JHIxcey/WmUICu6e/zryfjvt39+k2NVqGthZKaiqNr5VbCZopGFf5HR/4WFDwJQZN0VOwvEe26DYZ3Goa6yIva7ycBnFZkKCvxRbxR7P5Owz2vrIiXjZh4pdtXfeLV6wv/o654Oq2KnyROjGU9++MgLfit384jevHCt2FTrfK1av5//w++CKrdh1Fbu5c3vHEkPA96y9PvLuu7d8QrGr1V16rDi93luETxyKnRqNsb9cj79kCPiRnumRU/LwuT4xKfa5LfnHbcXodfvvLy7CeCp2am6Or0RO90f+mxZDwE//jPyzoUezv3BEsasWe8ZLUu57uhijqdjpsPWfRv4lvOxvnDAEnNbVvxc5M6/5Q8WuXucree/1eL9doNiKXRM7/tvQl3yOGAHOaMVXkffi1ibFrtqJ2K+M1ttpDg1TbMWuoxsiv/365FMGgLN/Rns0cH6+ulixq7frP2jP7QL2nxTpE4dip8C/DNwV8mj+vw9B9Z/R/vayuCl664eKXQMfXpbPYM++rVDDqNjxynGzff+/2uH6Mw6vBZ7D2XedYtdAS+zxQvUxwdPeFFuxq/bfxU33oUtcfsYp8JXjfTcodi0c792cr173/aMtRRtDxY62MuxUutd/7uozgc9ov3tn1FS9dpNi18SujjwFe92nxRtBxQ42L+qls8I9TqJqI+VpQbP1byl2jZx3U156/VZPEcdPsYP990GPk/7Pb7j2TNiRwaDb859X7BrZ+l8ey8UC9j9oKuTwKXasfxC0gH3ApWdSPrk0ZMZuXqDYtTL1L/Vnvddjf3yooIOn2KFuCFnEvuAZV57JGv6dWyMm7Zsjil0zB4ayHezPvyjs0Cl2qIhfnIMNjS48VdhUjnjluKTYNdTzUHZ7/fFogQdOsSPtSX7L5raOq113qjQrYDn7cKNi11D3/7A6m72+5n8s9CcOxY7Umvz3IW5w1amB/yn5z2h/QbFr6lDXVdnrdVvHqWKPmmIHmpf0X7lzRl10amO4eX3Cs/dFxa6xla9mLdhffV30MVPsQP9zsrP9sT9lAZsafkb747FE5+9Vryl2rYWe8TJh8x2CoNiRLkr2cdISV5yaWvtgojfsf6XYtX/O9+cycw7nvj83z3gpdqCHk5zuH7zvglNz112b4Bxe363Ytbf499uz0Ov2319srBQ71D9KbrrP/UOPk6iHxv/xmuSm8c2KXQ9PLEx/sBd9Y5wUO9gHSc32vb3O1KReViX3yvFfVey6aBmdm+5eHx0QGsWONrw0ocdJg0dcbOpoz88SunH/G4pdJyMNKV7OntZ73AgpdrhPk5nuTz7lUlNnCb1yfFSx6+bIn6R1AftPfOJQ7DT4bxK5x/k+BAlI6JXjGxW7frbdl8ZgX/qJkVHsVPjn9Z/tfV1bXGcScVdrAlvu7lHsOhpu3p22Xh8rbTUuip0Of73u033oEleZxCTwyvGHil1XMWe8nFF/1xvGRLHT4i/Vebo7U5Nk1f+V4+sUu87u+a/TE+z/dpbxUOz0+IP6Tvf/2OMkkrbj/PpO6t9V7LqbcVM6er3xM2Oh2GnSUd8J71hNkvZ+vbcY+POKXX9NA+vje32w1GQkFLtIxf7FpG9w8gcJ3kvqv5WKYidiam9fbK/HWt82CopdtGJXKtc+7zKTjO7SY/Wf0IqdkLXXRwb78y+MgGIXsdiVyroHXGgS0PleEtNZsRPTMz2q1x+PuvqKXdRiV/q7ZrrU1Nk77yZzM1fsJB+aXBPR633lNa69Yhe32JXKBpsQUFeHusYqip0/CZ7x8tv3ZU+57opd7GL7Zjb11DSwM7GZrNjJWnFFssH+6mvXXLEV2+5n1E3PWwnOY8VOWufy5EZ3vkMQFFuxf8UO49TDPYOJfgZT7MSdaEjoVOC95XmutmIr9ncudCg8NTazN+FtqBU7wOIkznhpH/zSlVZsxf4+J2VTS8PNtyY9hRU7xIKL6j2wi75xlRVbsX/yd6yz4amVn7+e/Fd/FDtGy+gj9RzWo57/KbZin3atqHeHC08N7IqYvoodZqS8v16DOq33uOur2Ip9eoe9j0nVNtXv/q3Yqf0brb0+32M56doqtmKf2eMvufZUo87PSBU7pX5+ce1H9NJPXFfFVuyzL2d3LHH1mbSPLoqauYodq+bvGh6zH6NiK/a5LfPVRybptTo9HFXsLNhRruH3+fq73nBFFVuxx2POqAFg4hLbT0OxU6p2e+as+9TVVGzFHq8rHzYETFCSe1YqdkqdV5N9aTd+5koqtmJPQFuHOxYT8f4HwVNWsVOhBme/HCw1uY6KrdgT/LVpaDQMjFPA2YuKndZsvFrdlf9fDrmGiq3YE+ccTsZnzT97LAXzVbFT4u9Ud+X/qSuo2Io9udc/HjASnFPPBamYrYqt2Iqt2EUudqW/a6ax4KzeeTcdc1WxFVuxFbvYxa5UNtjGgLM41DVWUWwUW7EVOx0sZ3MmTQPr0zNRFVuxFVuxC1/sSmXoEgPCaZx3U5qmqWIrtmIrtmJXKn1dWwwJP1K7Da4UW7EVW7EVu3YudKw8P1DTTaQVW7EVW7EVu4aefMqo8J2aH9Sk2Iqt2Iqt2LVczr7DuPCtuy9O4fxUbMVWbMVW7N/Y27vDyDBlV+SZmoqt2Ci2Yo/Lnc0txqbgRsr70zk5FVuxFVuxFfsHHr/c4BRZy+gjaZ2aiq3Yiq3Yiv1D7R1LDE9hLbgotRNTsRVbsRVbsX9iWXmeASqkxa1tFcVGsRWb7BS7Unmk2QgVz4mGpamelYqt2Iqt2Ip9Olc+bIwKpnN5yuekYiu2Yiu2Yp9WW4dbWpGsuCLtM1KxFVuxFVuxz2R1Q6NxKohVXVdVFBvFVmyyWuxK5drrDFQRdJeuycJ0VGzFVmzFVuyzWPeAocq9nunZmIyKrdiKrdiKfTb9rTcarFxbe31GpqJiK7ZiK7Zin8OG0lbDlVtTu8Yqio1iKzb5KHalcsHNxiufmgbWZ2geKrZiK7ZiK/a5DV1ixHLovJsyNQsVW7EVW7EVexz6urYYs5yZNZitOajYiq3Yiq3Y43PhgOXsPNlR3lxRbBRbscljsSuVJ58ybHkx3Hxr9iagYiu2Yiu2Yo9/OfsOA5cL27ZncfoptmIrtmIr9vjt7d1h6DLv9o72imIrtmIrNvkudqVyZ3OLwcu0kfK0jM49xVZsxVZsxZ6Yxy83etnVMjo3szNPsRVbsRVbsSeovWOJ8cuoBQuzO+8UW7EVW7GzWez//oPIW+fShjVGMINeC13AbvvL9ym2Yiu2Yhew2H92SufyyGbPbzaEWdNYWhq6mvLSlOsVW7EVW7ELWewpJxpCb8BXPmwQMyX2T7zDv3xjUbEVW7EVu6DFnjJlcWtb5EPODve87FhxRQq+FajYiq3Yil3YYk+ZsuCiyPvwasvZGbGq66rIVxUHj/zqn6HYiq3Yil3gYk9pGX0kstnXXmck06+7dE3kJPnt7raKrdiKrdhFLnb4hhjrHjCWKdczPXKCXDjw27uEYiu2Yit2sYsdvelkf+uNRjPF1l4f2esfntKq2Iqt2Ipd9GJPmXL3xZF35Q0l53Cm1dTevsipMXTJD/41iq3Yiq3Yih19eOIFNxvQNGoaWB86LZ750b9HsRVbsRVbsX9hR3lz6IepWwxp6sy4P2WPXhRbsRVbsRX7W/cMRt6f+3+wYEm8WcHzYeZP/0mKrdiKrdiK/Wvn3RT7UrDl7PTYFPvM5fRfIVBsxVZsxVbs7wSvW86+zbimw3Dz7siJcO3zp/9nKbZiK7ZiK/ZvRb8bfIeRTYFt90VOgoMNjVMUW7EVW7EV+1zFjv7+7a83kCZQ7Pfzz7bdvGIrtmIrtmL/UOweV3f+8pAmwow07Isc/hfOdqSbYiu2Yiu2Yv9I8D7Siy43vFFaRudGDv2c0bP+6xRbsRVbsRX7J4LPaupYYoBDPLEwstfLyvOmKLZiK7ZiK/bEih19HvI5793UwV3B56Wf8+80xVZsxVZsxT6tzuWRzZ7fbIyT1Vh6LHLAH3/p3P9ExVZsxVZsxT7TLXxp5C38ypVGOUGdj0YO9uFxvW+o2Iqt2Iqt2GeyOPgxqZtiUvb8LAvf6VNsxVZsxVbsM1sQ+irS6oY1RjoBwS8aDh4Z579TsRVbsRVbsc8i+Os+115nqOst+Mt8Tz417n+pYiu2Yiu2Yp/VSHla5A193Q0Gu656Hooc3qMDE7gJKLZiK7ZiK/Y5xG5b2d96o+GumwMPRva6b2JnrCq2Yiu2Yiv2OW3bHnlf31BqMuB1EX3wyyUT++cqtmIrtmIr9rkNN98aeWvfeLMRr73h5uciB/WCZyb6D1ZsxVZsxVbs8dhR3hz6cewWY15jM+6PHNBjpa0T/hcrtmIrtmIr9vjMGoy8w/dPbMmTlI/mG5P4Nyu2Yiu2Yiv2uD+V3RR5l79wYKtxr5FN5f2hXwB4YFL/asVWbMVWbMUet6aB9ZE3+tm3GfhaaGneHTmMbz4/yX+3Yiu2Yiu2Yk9A9NvFdxj6qj19X+QQHmxonOw/XLEVW7EVW7EnZO31kff7aePcgpozeS302/VjrW9P/p+u2Iqt2Iqt2BPUMz2y2XeO65gnTm+kYV/k4L3wcDX/eMVWbMVWbMWeqOCdqBddbvwnJ3iX+Dmj1f3zFVuxFVuxFXviok972mUGTMITL0f2elm52pPYFFuxFVuxFXsyVlwRe/efZw5M0F3Bp50vqfonUGzFVmzFVuzJ6Vwe2ez5zSbBRDSWHoscru0v1eBnUGzFVmzFVuxJR2BpZASuXGkajP/Pq0cjh+pwbd4WVGzFVmzFVuxJWxz8oNVdc3z2vBjZ673lE7X5MRRbsRVbsRW7CgsWRrZgdcMaU+GcDgW/JnikVj+IYiu2Yiu2Ylcj+AtD146aC2fXPbAzcoAu+7B2P4piK7ZiK7ZiV2ekPC0yCetuMBvOouehyME5OlDL33HFVmzFVmzFrtbtwRtf3mg+nMGBoche93Udr+lPo9iKrdiKrdjV23ZfZBk2lJrMiNOYGXxsyyU1/nkUW7EVW7EVuwaGm2+NjMPGe02Jnw7Jc5FDcundNf+JFFuxFVuxFbsmNpU3h36gu8Wk+IFn748cjmOlrbX/kRRbsRVbsRW7RmYNRjaiv2uLafEbuzpix+KNevxQiq3Yiq3Yil0zM26K7MTOenyuy6RN5f2hr+9/Wp8fS7EVW7EVW7Frp2lgfWQqZt9mZkyZ0tK8O3IQ3vysXj+YYiu2Yiu2YtfS1OD3k+8o/NR4+vzIATjY0Fi3n0yxFVuxFVuxa2vt9ZHFmNZ7vNAT47Xg78a/XcefTbEVW7EVW7FrrWd6ZLPvrM1BUZk00rAv8tK/8EVdfzrFVmzFVmzFrrnu0jWR4Vh0eUFnRecrkZd9zmidfzzFVmzFVmzFroNVwedFfVnAOfH+B5G9Xlau+zlqiq3Yiq3Yil0XK76K7ce8gs2Iu1oj/0Zq6zhV/x9RsRVbsRVbsev1jPbRyGbPby7SfOguPRZ5sbdvS+KHVGzFVmzFVux6aSwtjczIqysLMx0634u80IcTetdPsRVbsRVbsetncWtb3h/VpsA7L0b2em/5REI/p2IrtmIrtmLX04KFkTVZ3bAm91PhUNdY6Et+RxL7SRVbsRVbsRW7rlpG50Y2++PRfE+E7oGdkZf3sg8T/FkVW7EVW7EVu85GytMio7LuhhzPg563Ii/t0YFEf4UVW7EVW7EVu+5uD94688aczoIDoeeb9nUlvCGsYiu2Yiu2Yidg232RbdlQasrhHJjZuznyog6dTPoHVmzFVmzFVuwkDMceAbnx3rzNgOHm5yIv6KWfJP8jK7ZiK7ZiK3YyNpVjPxLekqsJ8OzrkRfzWGlrwM+s2Iqt2Iqt2EmZFbrs2t+1JTfDv6sj9kq+EfJTK7ZiK7ZiK3ZyZtwfWZqdIZ8M6/G0Yn/oy/efBv3ciq3Yiq3Yip2gpoH1kbGZfVv2h75ldH7kJXzzs7CfXLEVW7EVW7ETNbW3L3Q5+46Mj/xH50devoMNjXE/umIrtmIrtmInbO2Dkc2Z1ns8w+P+WvA329+O/OEVW7EVW7EVO3E9D0U2+86EjpqqvRMNoYehff5F7I+v2Iqt2Iqt2MnrLl0TmZ5F32Ry0Dtfibxoc0ajf37FVmzFVmzFjrCq66rA+rQPfpm5IX//g8he7yvHn4Km2Iqt2Iqt2DG+/iq0QP/evEwN+JK/HHrS+O+lIVCKrdiKrdiKHfaU99HIZs9vzs5wd5cei7xU27el4iootmIrtmIrdpjG2BC9ujIjo935XuRlOpyWN/UUW7EVW7EVO9Di1tCHvR2nMjDW77wb2eu95RNpuRCKrdiKrdiKHeqJhZE9Wt2wJuUjfahrzCt6iq3Yiq3Yip0GLaNzI5v98Wiax7lpYGfkxbnswzRdDMVWbMVWbMWONtKwLzJLn9+Q2mE+763IC3N0IF2/oYqt2Iqt2Iod7/bgzTdvTOUg3xN6OmlfV9q2c1VsxVZsxVbsNNh2X2SdNpSaUndFZvZujrwkQydTd0UUW7EVW7EVOxWGm3dHBmrjvWm7HLdGXo5LP0nhpFdsxVZsxVbslNhUjv1QeUuKrsXPX4+8FMdKW9M4QRRbsRVbsRU7NWaFLtz2d72Rkuuwq8N1UGzFVmzFVuw0F3vKlBn3+2y5qbw/8iKs+zStk0OxFVuxFVux02S4eX1krmbfFn0BWkYfibwAb36W3kmv2Iqt2Iqt2OkytbevwO9If3RR5A9/sKExxTNDsRVbsRVbsdNm7YOR1ZrWG/c95Nht1sda3071vFBsxVZsxVbs9Ol5KLLZUXt9nWhYGvljf/5FymeFYiu2Yiu2YqdQd+mayHgt+ibgZ+5cHvkjzxlN/aRXbMVWbMVW7FRa1XVVYL+SP7Pq/Ssie72vvCb9U0KxFVuxFVuxU2rPzyIbtrc8rzB/n2TjnHDFVmzFVmzFTq/ORyObPb+5JaGfM3gNYPu2bEwHxVZsxVZsxU6vxtJjkSl79etEfsqeCyJ/yMOJ/WGi2Ci2Yit2fosd/X2nJB4Xv3N9ZK/3lk9kZi4otmIrtmIrdro9sTDPr2RN7Ror1At2io1iK7Zi57fYU1pG50Y2++PR+v1oTQPrI3+0yz7M1KRXbMVWbMVW7NQbadgXGbbPb6jTz3XeTZE/VtRGMYqt2Iqt2Iqd32JPmXJ7R3tg2+qzfec9oWeL9nUdz9okUGzFVmzFVuxM2HZfZN82lJpq/PPsKG+O/IGCDzxRbMVWbMVW7PwWe8pw8+7IxG28t7Y/zK2RP8yln2Rx0iu2Yiu2Yit2VmyK/Vi6bk/NfpK7L478QY6VtmZy/BVbsRVbsRU7O2aFLv32d71Rk58idlG+Vj+FYqPYio1in82M+7P+6XSkvD/0ScGnmR17xVZsxVZsxc6U4eb1WV4Bbhl9JPKf/+ZnGZ70iq3Yiq3Yip0xU3v7MvuW9YKLIv/pBxsaszzwiq3Yiq3Yip05ax+M7N603sl+kzl2k/T6fKtcsVFsxUaxz6bnochmT263sBMNSyP/0Z9/kfVBV2zFVmzFVuwsCj5SetE3E/4Xdy6P/AfPGc3+pFdsxVZsxVbsbFrVdVVgASd66tWKKyJ7Xe8TyBQbxVZsFPts9vwssoJ7y/My8tdFEqd8KzaKrdgo9lmfND8a2ez5zS3j+lcGP8Hfvi0no63Yiq3Yiq3YGdZYeiwyhl99PY5/Y8/0yH/i4XH+WaHYiq3Yiq3Yil1fsd+YOvcD57XXR/Z6b/lEfoZasRVbsRVbsTPuiYXpfakrdreX9sEjeRpoxVZsxVZsxc66ltG5kc3+ePRM/7CmgfWR/7DLPszXpFdsxVZsxVbs7Btp2BeZxjNsTjLjpsh/1OS2eVFsxVZsxVZsxa6v2BMsT7cBaOzJoH1dx3M3xoqt2Iqt2IqdD9vuiyzkwVLTD/41m8qbI/85VR1XotiKrdiKrdiKXVfDzbsjI/n9gyyHm2+N/KdUeySoYiu2Yiu2Yit2fQV/sF336Xcf97dH/jOOlbbmc3gVW7EVW7EVO0diF4/7u96YEr2k/qt/g2IrtmKj2IqddjPuj/18e7w8LRWf8xVbsRUbxVbslGv6B8cikxn6XP6h/ynPk16xFVuxFVux8yZ2o7HA99UbGnM9roqt2Iqt2IqdP2sfLF6vT/edcMVWbMVGsRU77XoeKliwz7DvmmIrtmKj2IqdcsGHUidszmgBJr1iK7ZiK7Zi59SqrqsK0uuznx+m2Iqt2Ci2Yqfdnp8VodfnPqNbsRVbsVFsxU67zkdzH+zt24oymIqt2Iqt2IqdZ42lx3Ld68PNLYUZS8VWbMVWbMXOt8Wtbbnt9d7yiQKNpGIrtmIrtmLn3RML89nr9sEjhRpHxVZsxVZsxc69ltG5OQz2ZR8WbNIrtmIrtmIrdgGMNOzLWa+PDhTu10exFVuxFVuxCyH2DMxa6+s6XrwhVGzFVmzFVuyCePq+3AR76GQRB1CxFVuxFVuxi2K4eXcuen3pJ8Wc9Iqt2Iqt2IpdHJvKmzPf62OlrQUdPcVWbMVWbMUuklmD2e51f9cbhR07xVZsxVZsxS6WGfdnONjrPi3wyCm2Yiu2Yit2wQw3r89or9/8rNCTXrEVW7EVW7ELZ2pvXwZ7fbChsdjDptiKrdiKrdgFtPbBrPV6rPXtog+aYiu2Yiu2YhdSz0OZCvbnXxgyxVZsxVZsxS6m7tI1men1nFHjpdiKrdiKrdjFtarrqkz0el95jcFSbMVWbMVW7ELb87P097qt45SBUmzFVmzFVuzC63w05cHevs0gKbZiK7ZiKzZTpjSWHktxrw83txgixVZsxVZsxeZbi1vbUtrrveUThkexFVuxFVux+Y0nFqax1+2DRwyNYiu2Yiu2YvN9LaNzUxfsyz40Loqt2Iqt2Iqt2D820rAvVb0+OuC3Q7EVW7EVW7EV+3Ru72hPTa/7uo4bEMVWbMVWbMVW7DN4+r6UBHvopMFQbMVWbMVWbMU+s+Hm3Sno9aWfGAnFVmzFVmzFVuyz21TeH9zrY6WthkGxFVuxFVuxFfucZg1G9rq/6w1DoNiKrdiKrdiKPS4z7g8L9rpPXX7FVmzFVmzFVuzxGm5eH9LrNz9z7RVbsRVbsRVbsSdiam9f4r0+2NDowiu2Yiu2Yiu2Yk/Q2geT7fVY69suumIrtmIrtmIr9iT0PJRgsF/4wgVXbMVWbMVWbMWenO7SNQn1es6oq63Yiq3Yiq3Yij15q7quSqDX+8prXGrFVmzFVmzFVuyq7PlZvXvd1nHKZVZsxVZsxVZsxa5a56N1Dfb2bS6xYiu2Yiu2Yit2LTSWHqtbrw83t7jAiq3Yiq3Yiq3YNXJXa1tder23fMLFVWzFVmzFVmzFrqEnFta+1+2DR1xYxVZsxVZsxVbs2moZnVvjYF/2oauq2Iqt2Iqt2IpdeyMN+2rY66MDJr9iK7ZiK7ZiK3Z93N7RXqNe93UddzkVW7EVW7EVW7Hr5un7ahLsoZMupWIrtmIrtmIrdj0NN++uuteXfuI6KrZiK7ZiK7Zi19uW/0t1V37/75j1iq3Yiq3Yiq3YCVhb3ZW/0xVUbMVWbMVWbMVWbMVWbMVGsRUbxVZsxVZsxUaxFRvFVmzFVmzFVmzFVmzFVmzFVmzFVmzFVmwUW7FRbMVGsRVbsRVbsVFsxVZsxVZsxVZsxVZsxUaxFRvFVmzFVmzFRrEVG8VWbMVWbMVWbMVWbBRbsRVbsRVbsRVbsRVbsVFsxUaxFVuxFVuxUWzFRrEVW7EVW7EVW7EVW7EVW7EVW7EVW7EVG8VWbBRbsVFsxVZsxVZsFFuxFVuxFVuxFVuxFVuxUWzFRrEVW7EVW7FRbMVGsRVbsRVbsRVbsRUbxVZsxVZsxVZsxVZsxVZsFFuxUWzFVmzFVmwUW7FRbMVWbMVWbMVWbMVWbMVWbMVWbMVWbMVGsRUbxVZsFFuxFVuxFRvFVmzFVmzFVmzFVmzFVmwUW7EVW7EVW7EVW7FRbMVGsRVbsRVbsRVbsRUbxVZsxVZsxVZsxVZsxVZsFFuxUWzFVmzFVmwUW7FRbMVWbMVWbMVWbMVWbMVWbMVWbMVWbMVGsRUbxVZsFFuxFVuxFRvFVmzFVmzFVmzFVmzFVmwUW7EVW7EVW7EVW7FRbMVGsRVbsRVbsRVbsRUbxVZsxVZsxVZsxVZsxVZsFFuxFVuxFVuxFVuxUWzFRrEVW7EVW7EVW7EVW7EVW7EVW7EVW7EVG8VWbBRbsVFsxVZsxVZsFFuxFVuxFVuxFVuxFVuxUWzFVmzFVmzFVmzFRrEVG8VWbMVWbMVWbMVWbBRbsRVbsRVbsRVbsRVbsVFsxVZsxVZsxVZsxUaxFRvFVmzFVmzFVmzFVmzFVmzFVmzFVmzFVmwUW7FRbMVWbMVWbMVWbMVGsRVbsRVbsRVbsRVbsRUbxVZsxVZsxVZsxVZsFFuxUWzFVmzFVmzFVmzFRrEVW7EVW7EVW7EVW7EVG8VWbMVWbMVGsRUbxVZsFFuxFVuxFVuxFVuxFVuxFVuxFVuxFVuxUWzFRrEVW7EVW7EVW7EVG8VWbMVWbMVWbMVWbMVWbBRbsRVbsRVbsRVbsVFsxUaxFVuxFVuxFVuxFRvFVmzFVmzFVmzFVmzFVmwUW7EVW7EVG8VWbBRbsVFsxVZsxVZsxVZsxVZsxVZsxVZsxVZsxUaxFRvFVmzFVmzFRrEVG8VWbMVWbMVWbMVWbMVWbBRbsRVbsRVbsRVbsVFsxUaxFVuxFVuxFVuxFRvFVmzFVmzFVmzFVmzFVmwUW7EVW7EVG8VWbBRbsVFsxVZsxVZsxVZsxVZsxVZsxVZsxVZsxUaxFRvFVmzFVmzFRrEVG8VWbMVWbMVWbMVWbMVWbBRbsRVbsRVbsRVbsVFsxUaxFVuxFVuxXULFVmwUW7EVW7EVW7EVW7EVW7FRbMVWbMVWbBRbsVFsxUaxFVuxFVuxFVuxFVuxFVuxFVuxFVuxFRvFVmwUW7EVW7EVG8VWbBRbsRVbsRVbsRVbsRVbsVFsxVZsxVZsxVZsxUaxFRvFVmzFVmzFRrEVG8VWbMVWbMVWbMVWbMVWbBRbsRVbsRUbxVZsFFuxUWzFVmzFVmxXULEVW7EVW7EVW7EVW7EVG8VWbBRbsRVbsRUbxVZsFFuxFVuxFVuxFVuxFVuxFVuxFVuxFVuxFVuxFRvFVmwUW7EVW7EVG8VWbBRbsRVbsRVbsRVbsRVbsVFsxVZsxVZsFFuxUWzFRrEVW7EVW7FRbMVWbMVWbMVWbMVWbMVGsRUbxVZsxVZsxUaxFRvFVmzFVmzFVmzFVmxXULEVW7EVW7EVW7EVW7EVG8VWbBRbsRVbsRUbxVZsFFuxFVuxFVuxFVuxFVuxFVuxFVuxFVuxUWzFRrEVG8VWbMVWbMVGsRVbsRVbsRVbsRVbsRUbxVZsFFuxFVuxFRvFVmwUW7EVW7EVW7EVW7FRbMVWbMVWbMVWbMVWbMVGsRUbxVZsxVZsxUaxFRvFVmzFVmzFVmzFVmzFVmzFVmzFVmzFVmwUW7FRbMVGsRVbsRVbsVFsxVZsxVZsxVZsxVZsxUaxFRvFVmzFVmzFRrEVG8VWbMVWbMVWbMVWbBRbsRVbsRVbsRVbsRVbsVFsxUaxFVuxFVuxUWzFRrEVW7EVW7EVW7EVW7EVW7EVW7EVW7EVG8VWbBRbsVFsxVZsxVZsFFuxFVuxFVuxFVuxFVuxUWzFVmzFVmzFVmzFRrEVG8VWbMVWbMVWbMVWbBRbsRVbsRVbsRVbsRVbsVFsxUaxFVuxFVuxUWzFRrEVW7EVW7EVW7EVW7EVW7EVW7EVW7EVG8VWbBRbsVFsxVZsxVZsFFuxFVuxFVuxFVuxFVuxUWzFVmzFVmzFVmzFRrEVG8VWbMVWbMVWbMVWbBRbsRVbsRVbsRVbsRVbsVFsxVZsxVZsxVZsxUaxFRvFVmzFVuxcWbKouiv/pze5hoqdMa9NV2zFVmzFzpzu0jVVXvnK0QEXX7GzpLG0tKLYiq3Yip01PRdUauCyb1xJxc6MzuVVz3jFVmzFVuykvfNupTbaB790NRU7E1Z8VYMJr9iKrdiKnaxDXWOVmtlbnueKKnbqreq6qqLYiq3Yip0xTQPrKzV1uLnFVVXsVKvBWxuKrdgoduLOe6tSc1997boqdor1TK/VVFdsxVZsxU7MPYOVemjrOOXaKnZar/b1tZvpiq3Yiq3YCdlR3lypk33lNa6vYqfQ1N6+imIrtmIrdsYMN99aqaOPR11ixU6bWr+1odiKrdiKnYSfX1yps8+/cJUVO1Vm3FTjOa7Yiq3Yil1/uzraK3U31vq2K63YqTGr9m9tKLZiK7Zi19tIeX8lEQdLTa62YqfCpnq8taHYiq3Yil1fLaOPVBLz5mcuuGLHq9NbG4qt2Iqt2HX10UWVRK371DVX7GDbttdnciu2Yiu2YtfR4ta2SsL6u95w3RU70O11e2tDsRVbsRW7bk40LK0EOFba6tordpCR8rS6zWzFVmzFVux6qcHxgpN06SeuvmJHaBmdW8d5rdiKrdiKXR/vf1AJ9CdHjIBiJ65eC9i/9k8UW7EVW7HroEbHC07etN7jRkGxE1X3tzb+M8VWbMVW7Jqr2fGC1Tg6YHQUOzmNpbq/tXG3Yiu2Yit2rfVcUEmFyz40FoqdkCTe2nhYsRVbsRW7tm5YV0mL9t9fbDwUOwErrkhiPu9SbMVWbMWupUNdY5UU2Vs+YUwUu84Semtj31bFVmzFVuzaqfXxgjVwuLnFuCh2HSX21sYHUxRbsRVbsWvmvJsqKbR9m5FR7LrpmZ7URP47iq3Yiq3YtXJgqJJOV/2em5Ni18cD/9fk5vHvKrZiK7Zi18aOehwvWLMVwPIaI6TYNTc1ybc2rjql2Iqt2IpdC3U6XrB25owaJMWurYTf2lg3RbEVW7EVuwbuvriSei98YZwUu4aSfmvjdxRbsRVbsat38h9WsmDsjw8ZK8WukcTf2ug7pNiKrdiKXa2R8v5KRhxsaDReil0DAW9ttE5RbMVWbMWuTsvoI5UMefMzk16xqxXx1kb/ScVWbMVW7Op8dFElY9Z9qtiKXZWQtzb+1hTFVmzFVuxq3P732iuZ0/ePtii2Yk/aHSFvbUy7RLEVG8WuwomGpZVMOlbaqtiKPSlRb238xSmKrdgo9uQlcbxgvVz6iWIr9sSFvbVx0VbFVmwUe9Le/6CSaYNHFFuxJ+ilx4Nm67JZUxRbsVHsSUroeMG6Lmd3HVdsxZ6Axa1tQXO17V9MUWzFRrEnJ7HjBevr6EAxh0+xJyPyrY1/PkWxFRvFnpzkjhest8s+VGzFHpfItzb+/hTFVmwUe3L3++sr+dFexOVsxZ6wFVcETtKuYcVWbBR7MhI9XjAJe8snFFuxzyr0rY2r/p0z/rsUW7EVW7HPounvbqjkziujiq3YZ9b4px4LnJ2rn5+i2IqNYk9C0scLJmX7S4qt2GcQ+9bGz3ZNUWzFRrEn7p7BSl61dZxSbMU+jXdC39p4bKBlimIrNoo9YQHHCyZpWXmNYiv2jxwKfWujffDLs//zFFuxFVuxTyfieMGEzRlVbMX+vqaB9ZETctE35/oHKrZiK7Zin0bI8YKJe+ELxVbs34h9a+PO5pZz/gsVW7EVW7F/4vaO9kohjLW+rdiK/a3Ytzam9Y5nC13FVmzFVuwfiTpeMMTBhkbFVuzotzaGTo7rX6nYiq3Yiv0DYccLRnnzecUuerGD39qYfds4/52KrdiKrdjft+CiSuGs+1SxC13sn4e+tXGstHW8/1DFVmzFVuzfijteMFR/1xuKXdhi7wp9a2NCc0+xFVuxFfs7kccLBpvA5xzFzpXgtzaGbpnIP1axFVuxFfvX/nBu5K1r93/yF1dH/v8vvVuxi1fsln9yNHLSvXXexP65iq3Yiq3Y3wo9XrDS37UlesOpytAlil2wYn8U+tbGhlLTBP+9iq3Yiq3YU4KPF/zts8F3Xoz8V/T98s8GxS5MsWPf2hhrvXHC/2LFVmzFVuwp3aVrIku58d7f/lM634v8lxwdyOX4KvZpBL+18fkNk/g3K7ZiK7Zixx4v+KNng92lyMOJK5d9qNiFKHbn8shp9vHopP7Riq3Yil30Yq8NPV7wNM8G72qNfELfPnhEsXNf7Pc/iJz0qxsmeW6cYiu2Yhe72FNj3/Zad0P67qd7e3codq6LHfvWRhVnsyu2Yit2kYsdfLzgmZ8Ndr4S+e86PI5jlBQ7q4Lf2nh15eT/6Yqt2Ipd4GLHHi941meDJxr2Rf7btr+k2Dktduy7jfObq/m3K7ZiK3Zhix17vOA5nw2+Frp5ZFvHEsXOYbHfeTdy0i8rz6vqX6/Yiq3YBS128PGC43k2+NH5sXfXNXkZa8X+tdg9etoHv6zy36/Yiq3YhSx28PGC43w22NK8O/JfOWdUsfNU7KaBnZHTadE3Vf8Eiq3Yil3EYt8derzgBJ4Nboo9p+GFhxU7N8U+763IqXRnLd5mVGzFVuziFfv20BXiCT4b3NURu9r+tmLnotixb21M6z1eix9CsRVbsYtW7ODjBRddPtF/8LOvR/57DzY0KnbmzewNfWtj6I7a/BiKrdiKXaxit4w+krlng8PNz0X+m998XrGzLfitjdm31eoHUWzFVuxCFXtB6PGCk342GPwRad0Dip1hPw99SLOztLVmP4liK7ZiF6jYsccLVvVs8MBQ5L+8v+sNxc6o2Bch+mt6gqtiK7ZiF6bYwccLVvtssCf0Vd9jNfykpNjJCf6ywXcHvyu2YqPYExJ7vGANng12x36d9oJnFDtrgt/a+P7B74qt2Cj2uK24IgfPBmO3rKoMXaLYmfJR6FsbPzr4XbEVG8Uen9jjBWv4bPCdFyN/jr6aLkoqdn3Fbkx/moPfFVuxUexxPE6OPV6wts8GY49eunAgixOgiMUOfmvj8xvq8UMptmIrdu6L3TM9V88Gu0uPRf48Tz6l2BkQe8D6mQ9+V2zFRrHPdre+PvLWVZdng3e1Rj7jbx88otgp9/4HkZP+rAe/K7Zio9hnMrW3L/Lete6GPN6R9/buUOw0/46HvrVxzoPfFVuxUezTaRpYn8dng/FPPQ/X4iAmxa6L4FWT8Rz8rtiKjWL/xHk35fPZ4LdONOyL/Okef0mxUyn2zcRxHvyu2IqNYv9Q7PGCbR11vz3EfnunvWOJYqfOO+9GTvoJHPyu2IqNYv/WjnLo2Rl1fTb4Gx+dn+v7s2JPUOwOOxM8+F2xFRvF/pXg4wXr/Gzwt1qad0f+nHNGFTs9mmJ3sV30Tf1/RMVWbMXOYbG3bS/MZ8/gkx5eeFixUyL2pJg7E3kXUbEVW7FzV+zbY9d36/9s8IdiT1NMYL1escfhQOhbG5M++F2xFZtiF3ukPC302eDlyf/Iz74e+RMfbGhU7GAze0Pf2qjm4HfFVmyKW+zg4wXvjPme8nDzc5E/9bXPK3ak4OGv9uB3xVZsClrsBQuL8GwwfR+y1j2g2GFiH7HU4OB3xVZsiljsxa1thXg2eFoHhiJ/9v6umYodIvY1hv5kz19VbMVW7LwUu7EUerxggs8GzyD2ZeENSX7WUuxfC/6qQO0OfldsxaZQxe5cXphng2fSHfuF3AueUexktYzOjxzw2h78rtiKTWGKveKKAj0bPLPYTa8qQ5codoJit7yr+cHviq3YFKPYq0KPF0z82eDZvPNi5JXoS8ufLgUoduy28nU5+F2xFZv8F7u7dE2xng2eY3kg9PCmCwdSOENyWOzgo9vqdfC7Yis2OS92z/SiPRs8518woQckP/mUYtf/z7JXIoe4nge/K7Zik+Nir70+8tYV82zwnO5qjVwlaB88oth19f4HkZO+zge/K7Zik9diT+3tK+CzwdTf0/f27lDsnP491tZxKu5HV2zFVuzsFrtpYH1kl64dTfNAxz43DdqutQDFDl7zSObgd8VWbHJX7Bk3FfTZ4PgEv5v0+EuKXY8/xELfK0zs4HfFVmzyVexZoccLZuKQydjv/7R3LFHsGov97l6iB78rtmKTn2LvKIeefHHlymyMduweG/F3+HwVO3Z/nMQPfldsxSYfxR5uvrXIzwYnoKV5d+SVeiQdVyoXxQ7eg3bRNym4Boqt2IqdvWJ/cmnkrWvpX1uTpQE/HnsO5+dpeJ0+D8X+bGPkMB7+n1vScBEUW7EVO2vFvj12dXZwV9aGPPY8xjSs+Ge/2LFnqQYe/K7Yiq3YWS72SHla6LPBy7M46M++HvtWfaNiV2Vm7HOS2IPfFVuxFTurxW4ZnRt560rXt4wnYLj5ucjrdu11ip3ZwYs/+F2xFVuxM1nsBQtjnw3uyO64B39MW/eAYmfyAUkqDn5XbMVW7OwVe3Frm2eDkxe7FNofuQN7hosd+xJCf8pOT1VsxVbsjBS7sbTUs8Hq9LwVeQU3xH1ay2yxN5X3h/6RekvKZrBiK7ZiZ6PYncs9G6xa8Fd6L3hGsSci+Mv0aTv4XbEVW7EzUuwVV3g2WBOx22ZVhi5R7HF7OnTDuhQe/K7Yiq3YWSj2qq6rQjNzS54mQOzW1H0hf/xksdixm8Kn9OB3xVZsxU57sbtL14Q+G7w5b1Mg9vinCweSn0LZK/ZI7MFraT34XbEVW7FTXuye6Z4N1vxvoNAjlp98SrHP9UfVK5ED9PFoWmeuYiu2Yqe62GuvD13ATuezwerd1Rq5ztA+eESxz+KJlyMnfZoPfldsxVbsFBd7am+fZ4P18f4HkVd2b7Kb0WSq2LF/TbV1nErxrFVsxVbs1Ba7aWB9ZFWit9bM95PXRDd8zVCxG2NXLF5N98Hviq3Yip3WYs+4ybPBujoR+3bT4y8p9k//jHo0ckhSf/C7Yiu2Yqez2LMGI29daTgiMgGx3yBq71ii2D+wJ/Sbd8vK89I+YRVbsRU7jcXeVA49t+LKlUWZDh+dX4RGZKPYh7piXwf8Mv3TVbEVW7HTV+zh5ls9G0xIS/OFkdd6zqhi/0rwDrKLvsnCbFVsxVbs1BV7232eDSYo+LSJKx9W7F/oeagw7wEqtmKTn2LfXpC11RSJPdExgXcGUl/s2JNQp/Uez8hMVWzFVuxUFXukPC302eDlxZwVz74eedUPNjQWutgzY7cdyNDB74qt2IqdomK3jM71bDDEcPNzkVf+2ueLW+zgS5+pg98VW7EVOz3FXrAw9tngjiJPjJm9oa/nr3ugoMV+9v7Iy56xg98VW7EVOy3FXtza5tlgpNjF1P6umQUs9pcdsdc8Ywe/K7ZiK3Y6it1YWurZYLSetyLHYEPdPu+ltdjBr+ln7+B3xVZsxU5FsTuXR966LhzYamb8UvCXgi94pkjFbmneHXmxN96bvfmp2Iqt2Cko9oqvPBtMiUNdY6Ef+y4pTLGfvi/2gUYWD35XbMVW7PBirwrdnTGDzwbr653Qza376vHnUwqLHbul+1hGD35XbMVW7OBid5euCX02eLM58WOd78UuUdR8jqWu2COxx6Zl9uB3xVZsxY4tds90zwZTpzv2kOYnn8p3sYO3Hfh4NLMTU7EVW7Eji732+tAF7Iw+G0zAXa2x50gdyXGxn3g5ctJn+uB3xVZsxY4r9tTY3Rkz+2wwEe9/EDk2e2u6nU2ain1X6LYDbR2nsjwpFVuxFTuq2E0D6yObcO11JsPZdb4SOT6Ha7hlbHqK3Ri73vBqxg9+V2zFVuygYs8I3Z0x088Gk3Ii9v2ox1/KXbE7H428oNk/+F2xFVuxQ4o9azDy1pXAAY/58Fo+jj5NSbH3/Cxy0ufh4HfFVmzFDij2pnLoqRNXrjQPxuuj83NQmVQU+1BX7Mt8X+ZgNiq2Yit24sUejt2dMfvPBhPVMjo/crTmjOaj2N2l1ZGXcdE3uZiMiq3Yip10sbfd59lgpgSfV/HCwzkods9DkZcwNwe/K7ZiK3ayxb49HyujxbIr9EzI6t86iC72gQcjr9+03uN5mYiKrdiKnWSxR8rTQp8NXm4CTM6zr0eO28GGxgwXO3jbgTwd/K7Yiq3YyRU7eHfG3DwbjDDc/Fzk2F37fFaLHXzh8nXwu2IrtmInVuwFCyNvXbXdRauAZvaGvuC/7oFMFjt224GdpXwd/K7Yiq3YCRV7cejujLl6NhjlQOiX6Pu7Zmau2LOCr1jeDn5XbMVW7ESKHbw7Y76eDcbpeStyFDdM9hNjULGDX7LP4cHviq3Yip1EsWN3Z7xwYKuBr43ugZ2RI3nBM9kpdkvstgMb783h9FNsxVbs+hf76688G8yNQ11joR8cL8lIsZ++L/ZxRC4PfldsxVbsehd7VejujHl8NhjsnRcjx7NvEn+AJV/s2G0HxvJ68LtiK7Zi17fY3aVrQh+j3mzIa6/zvdhFjolOwqSLPRJ76Fl+D35XbMVW7LoWO3Z3xg0lC9h10R37IuGTT6W52MHbDnw8mt95p9iKrdh1LPba0N0Z+/P6bDAV8yj4JKojqS32E6HbDuT74HfFVmzFrluxg3dnrGbLDc7t/Q8iR3dCG+IkWOy7QrcdaOs4les5p9iKrdh1KnbTwPrIO/q11xnreut8JXKED49/09nEih287cCreT/4XbEVW7HrU+zY3Rnz/WwwNU7EvmH1+EspK3bstgMFOPhdsRVbsetR7NjdGas/npFxei0Th6cmU+w9P4uc9IU4+F2xFVuxa1/sTeXQMyOufNgwJ+ej89PfqSSKvSr4VbwvizDZFFuxFbvWxR6O3Z2xAM8G06VldH7keM8ZTUOxg7cdKMrB74qt2Ipd42Jvu8+zwYIJPvHihXM+U6l7sWO3HSjOwe+KrdiKXdNi356JdU1qbFdHqt9bqHOxY7cdmNZ7vDDzTLEVW7FrWOzg3Rkfv9z4Rnn29ciRP9jQGFbs4G0HCnXwu2IrtmLXrNjBuzMW59lgKg03Pxc5+m8+H1Ps4G0HCnbwu2IrtmLXqtixuzNOaA8s6mFmb+hXBM6yx139ih277cDOou2br9iKrdi1Kfbi0N0Zi/VsMLUOhH4Nv7/rjYSLPSv45y3cwe+KrdiKXYtiN2brLCfqpeetyHlw7AyfOetT7OBtB4p48LtiK7Zi16DYsbszXjjgTM3U6B7YGTkXLngmqWIHbzuw8d4izi7FVmzFrrrYsbsz9hXv2WC6HeoaC/3oeUkixY7ddmBDqamQc0uxFVuxqyx27O6Mp71BE+udF1P2J1zNix277cBYYQ9+V2zFVuyqih28O+MFNxvRNOp8L3JWHB0YrmuxR8rTQl+Kv6Gw80qxFVuxqyl27O6MG0oWsFOqO/hVxA/rV+zgbQc+Hi3wtFJsxVbsyRc7dnfG/sI+G8zGRAs+y+pInYq9IHTbgYIf/K7Yiq3Yky128O6MZ9kwg1R4/4PI+fH9LXVqV+zYbQcKf/C7Yiu2Yk+u2MPN6yPvx9deZyjTr/OVyDly+Dfb1taq2I2lpZE/0Ksriz6hFFuxFXtSxY7dnXH12Q9+IC1OxB4Ns/2lmha7c3nkD+Pgd8VWbMWeVLFjd2cs/LPBLHkt9HtQbb86frUmxV7xVeSkd/C7Yiu2Yk+q2JvK+yPvXVc+bBSz5KPzY0u3pibFXhX8It2XJpJiK7ZiT7zYwbszejaYOS2j8yNnzJzR6osdvO3AIge/K7ZiK/ZkvHSfZ4NMUPBTmRf+iyqL3TM98p/v4HfFVmzFzqC2f7zEAGbTJf9hhUnZWx4xfRRbsRU7cx73bDDDnn1dfSfBwe+KrdiKnUGeDWbccPNzAjxBs28zbxRbsRU7e88Gv7eDFRk1s3ezCE/ATvvmK7ZiK7ZngwQ5MKjD49Xv4HfFVmzFzuC968mnjFte9LylxeP7I/UWk0WxFVuxM3frunDAs8EcaRrYKcfntPFeM0WxFZvMFbvPs8G8OdQ1JslntaHUZJootmKTuWIPXWLI8uedF1X5zMYc/K7Yik0Gi33BzQYsnzrfU+YzWHeD6aHYik3mir3Bl1vyq7v0mDifxsej5oZiKzaZK3a/Z4M5n4mhp2Gl0+qGNSaGYis2mSv2ugeMVd69/4FGf5+D3xVbsclisa+9zkgVQecrOv0br640IRRbsclcsVc3NBqoYjjRsE+qv+Xgd8VWbDJYbM8GC+W1jna5dvC7Yis2mSz2lQ8bpGL56Pyi97p98EvTQLEVm8wV+xHPBounZXR+oYO9yMHviq3YZK/Yng0W1Kby/sL22sHviq3YZLDY7R1LjE9R7eooZq+n9R43+Iqt2GSu2I97Nlhoz75ewGA7+F2xFZsMFtuzwcIbbn6uYL2efZtRV2zFJnPF3tu7w9Aws3dzgXq90775iq3YZLDYng3yKwcGi9Lrfge/K7Zik8FiP/mUYeE7PW8VYwH7FkOt2IpN5op94cCwUeG3mgZ25r7XG+81zoqt2GSu2H2eDfJjh7rGct3rDaUmg6zYik3mij10iRHhp955N7+9HnPwu2IrNhks9gXPGA9Or/O9nAZ73Q0GV7EVm8wVe4Mvt3Bm3aXHctjrj0eNrGIrNpkrdr9ng5xjqnZdlbNer25YY1gVW7HJXLHXPWAoOJf3P8hTrx38rtiKTRaLfe11BoLx6HwlN8F+daXhVGzFJnPFXt3QaBwYnxMN+3LR6/kOfldsxSZ7xfZskAl5raM987128LtiKzZZLPaVDxsDJuaj87Pd6/bBXQZRsRWbidv6d0PvXe/9p4aACRv+owszHOyLPjKCiq3YTMLPX/dskAzaVN6f0V47+F2xFVuxJ2VX6Ipge8cSQ8DkJ28Wez2t97ihU2zFdgUz9zHl8ZcMAdl9QDQpDn5XbMVW7MloGX3Es0Eybbj5uUz1evZtxkyxFVuxJ+GjiyJvXXt7dxgCqjezd3Nmer3TvvmKrdiKPRmxX2ltHzxiCKiNewaz0et+B78rtmIr9mScaFgaee968ilDQO30vJWFBexbDJRiK7ZiT0Ls1swXDgwbAmqpaWBnynu98V6jpNiKrdiTEHv8UZ9ng9Teoa6xFPd6Q6nJECm2Yiv2xAUfMTx0iSGgHt55N629HnPwu2IrtmJPRnfpsch71wXPGALqpfO9VAZ73Q2GRrEVW7Ezd0/b4Mst5Pjv0dO6dtS4KLZiK3bmnhv2d800BNRX8JrPT6xuWGNQFFuxFXvigt/NWfeAIaD+Yt+r/CEHvyu2Yiv2pAR//+Xa5w0ByYj97uL3vLrSYCi2Yiv2JMTuMXGwodEQkJTg/YF+bX6zkVBsxVbsSYjdx9GzQRIWuwfvLzn4XbEVW7EnZebf6Y+8d33uyy0k7n+IXcD+g7sMgWIrtmJP3HDzrZH3rjmjhoDEP2O3tkVO+kWXGwLFVmzFnoSfv+7ZIMUyEruO7eB3xVZsxZ6UXR2Rt672jiWGgIS1jM6NnPTTHPyu2Iqt2JOxqbw/8t71+EuGgKR9tDB0BXvoDkOg2Iqt2JP5rPFI5K3rsGeDJC74JfHZtxkCxVZsxZ7MZ43zI29dez0bJHEjDfsiJ/1O++YrtmIrdvY+a7QPHjEEJP5QKXQBu9/B74qt2Io9GcGbPj35lCEg8YdKF8UuYN9iCBRbsRV7EmI3Vr5wYNgQkLDbYxewN95rCBRbsRV7EmIPL+rzbJDEBS9gbyg1GQPFVmzFnrjgA4KHLjEEJCx4AXus9UZjoNiKrdgT1116LPLedcEzhoCkPR27gL3OvvmKrdiKPRmd78U+G/TlFpIWvIB97aghUGzFVuxJeOfd2C+3zDQEJGykPC1y0q9uWGMMFFuxFXviDnWNhT4bfMAUJmHB2/o5+F2xFVuxJ6VpYGfos8HnTWCS9nTotn6VK1caAsVWbMWehJ63Im9dBxsazV8SFryAPb/ZECi2Yiv2JKy9PvTLLf/VKrOXhO34V6Hn0vX9NQvYiq3Yij0JM3s3R967XnjY3CVhwQvYlcqdxkCxFVuxJ264+bnIO9ecUTOXpG2LXcBWbMVGsSfl2dcj71vLyvNMXBK2K3YBW7EVG8We5L0r8q7V3rHEtCVhm8r7KxXFRrEV271rIh5/yaQlYcPNuysVxUaxFTtjWkbnR96yDje3mLMkbNt9lYpio9iKnTUfhb58s7d3hxlLwtKwgK3Yio1iT9Rrofeu9sEj5isJS8cCtmIrNoo9MSN/fW/oAvblZisJG/6d3ZWKYqPYip01na9E3qsuHBg2WUnYzy+uVBQbxVbsrHn/g9DdGbu2mKokLPZbjIqt2Cj25NzVelXkjWroEhOVhKVqAVuxFRvFHqfu0mORt6kLnjFNSVhavoGt2IqNYk9I53uRN6kNpa1mKQl79uJKRbFRbMXOmndejLxF9XfNNEdJ2JcdlYpio9iKnTWHusYi71DrHjBDSdiOFC5gK7Zio9jn0j2wM/L+dO3z5icJG26+tVJRbBRbsbOm56HIu9PBhkbTk4TFniOr2IqNYk/OgaHIe1Nbh0lN0mYNViqKjWIrdtbM7N0ceWt64WFTk4TtKG+uKDaKrdhZM9z8XOSNac6oiUnic/7WSkWxUWzFzprYxbxl5XnmJQmb8XqlotgotmJnTex2ym0dS8xKEnbPYKWi2Ci2YmdN8HbKj79kTpKw4Jc2FFuxUexJaYndTvlwc4spSbKysICt2IqNYv/E0+dH3o/29u4wIUnYjPsrFcVGsRU7a17raA+8G7UPHjEdSVhGFrAVW7FR7B8YadgXeTN68imTkYRlZgFbsRUbxf6+zlcib0VHB4bNRZIVvOuAYis2ij05T7wceSPq69piJpKw8+6vVBQbxVbsrLmr9arI+9DQJeYhCcvWArZiKzaK/SuNpcci70IXPGMWkrCpGVvAVmzFRrG/1flo5D3oWGmrSUiymgaeq1QUG8VW7KzZ82LkHai/6w1TkISdd1OlotgotmJnzaGu0AXsdQ+YgCTswGClotgotmJnTfdfXB15+5luAZvk/0btj5zzbYqt2Iqt2JPS81DkvetgQ6PZR7KaBtaHfkYeulexFVuxFXsyDweHQj9rdLxt7pH036ixC9izP5myVrEVW7EVe8Jm9vZF3rteeNjMI+m/UWMXsC8c2DpFsRVbsRV7woK3Z5wzat6RsKmxf6P+els/xVZsxVbsCXo2dHvGZeU1ph3JCl/APvmrf4diK7ZiK/aEfNkRu4C9xKQjYT1vxS5g3/bdP0SxFVuxFXsCNpX3R967tr9kypGwtaEvWf5qAVuxFVuxFXuiWpp3R967Dje3mHEk61AqFrAVW7EVW7En6OnzI+9de8snzDeS1Z2SBWzFVmzFVuwJea2jPfDW1T54xGwjYcEL2E/e9qN/j2IrtmIr9niMNOyLvHdd9qG5RsLWPhja66MDPzmXTrEVW7EV+9xaRufG3ruGTTWSdahrLHLOT+vdcpq/IRRbsRVbsc/liZfT8/INJKB7YGeaFrAVW7EVW7HH567WttB71yWmGQmLPebmpwvYiq3Yiq3Y49FYeizy3nXx3SYZCXvn+uAF7DMtAim2Yiu2Yp9N56OR965jpa3mGMkKX8A+fsZ/mmIrtmIr9pnt+Vnkvau/6w0zjGSlcwFbsRVbsRX7nB82roq8d6371PwiYSldwFZsxVZsxT77h43S6sh715vPm10kLLUL2Iqt2Iqt2On9sHGwodHkIulnSqldwFZsxVZsxT6zA6HbPY21vm1qUahnSmdfwFZsxVZsxT6TqbHnFb3wsIlF0s+UpscuYD81nn+kYiu2Yiv2jww3Pxd575ozalqRsD3vpnsBW7EVW7EV+7Rm3B9571pWXmNWkaxVsV+KGMcCtmIrtmIr9mnMGoy8d7V1LDGnSFZ36ZrYBew7xv1PVWzFVmzF/q1N5f2R967tL5lRJKxzTmivL3tqAv9WxVZsxVbs77Q07468dx1ubjGhSNaeFzOxgK3Yiq3Yiv1DT98Xee/aWz5hOpGszCxgK7ZiK7Zif9/tHe2B9672wSMmE8kKXsBuH7xjov9ixVZsxVbsXxhp2Be6mPehqUTCOt/LzgK2Yiu2Yiv2d1pG52ZoMQ+q92mmFrAVW7EVW7F/7YmXI+9dfV3HzSOSlbUFbMVWbMVW7G8t/v3IBezKxBfzoDprGh4LXcD+X3dN8h+u2Iqt2MUudmMp9OZ16d3mEAnL4AK2Yiu2Yiv2L25ej0beu46VtppCJGvFV6G9vrOalzYUW7EVu8DF3vOzyHtXf9cbJhDJujF2AXtvb1UvbSi2Yit2YYt9KPbmte5T04dkBa8BtVf70oZiK7ZiF7TY3aXVkTevNz8zeUhY7BpQDXYdUGzFVuxiFrvnoch718GGRnOHZL1/RXYXsBVbsRW7wMU+8GDkvWus9W0zh2RlewFbsRVbsQtb7Km9fZE3rxe+MG9IVtYXsBVbsRW7oMUebn4u8uY1Z9SsIWHBC9iLarVtvmIrtmIXrNgz7o+8dy0rrzFpSFYOFrAVW7EVu4jFnjUYee9q6zhlypCsu1qDF7B31O5nUWzFVuwCFXtTeX/kzWv7NhOGZIUvYNf03HfFVmzFLkyxW5p3R968Dje3mC8kq3N5PhawFVuxFbtgxX76vtCHg+UTZgvJeuKD2AXsmv+NqtiKrdjFKPbtHe35eTgI57Y4RwvYiq3Yil2gYo807Iu8eV32oZlCsk405GkBW7EVW7ELU+yW0bmRN6+jtft2C4xP9AL2N3X5qRRbsRU798V+4uXIe1df13HThGTlbgFbsRVbsYtR7Lta2yJvXkMnTRKStTh2ytdjAVuxFVuxi1Ds4K+jXvqJKUKyTjQszd8CtmIrtmIXoNix+ykfK201Q0hW5yt5XMBWbMVW7NwXe8/PIu9d/V1vmB8ka0HoOxv1W8BWbMVW7JwX+1DsgcDrPjU7SFZ+F7AVW7EVO9fF7i6tjrx5vfmZuUGy8ryArdiKrdh5LnbPQ5E3r4MNjaYGiWoZzfMCtmIrtmLnt9gHHoy8d421vm1ikKwFC0N7ndAxN4qt2Iqdu2JP7e2LvHl9/oVpQbJey/sCtmIrtmLns9jDzc9F3rzmjJoUJGsk/wvYiq3Yip3LYj97f+TNa195jTlBooJ3za88/k1yP6tiK7Zi56nYswYj711tHafMCJL1USEWsBVbsRU7d8XeVN4fefPavs18IFmvhR77XtlbPpHoj6vYiq3YeSl2S/Pu4nzYgPBj39sHv0z4B1ZsxVbsnBT76fuK9GEDwhewL0/8R1ZsxVbsXBQ79ulg8h82KLyPLqoU7pmSYiu2Yueg2MFPBy/70EQgWQVbwFZsxVbs3BS7M/Tp4NGBYfOARBVuAVuxFVuxc1LsJ0IPGOzrOm4WkKgCLmArtmIrdi6KfVfs/oxDJ80BkvV0ARewFVuxFTsHxW4sPRZ587r0EzOAZN1eyAVsxVZsxc5+sTsfjbx5HSttNQFI1Eh5WiEXsBVbsRU768Xe82Lkzau/6w3DT6JaRh8p6AK2Yiu2Yme72Ie6roq8ea371OCTrKfPL+wCtmIrtmJnudjdAzsjb15vfmboSVbwAvayNOzqp9iKrdhZLHbPQ5E3r4OlJiNPojYVewFbsRVbsTNb7HdCF7DH/viQcSdRw390YegD8Q+eSMd1UGzFVuysFXtmb1/kzevzL4w6ydpW+AVsxVZsxc5ksYebn4u8eX08asxJ1q7oBex5qbkUiq3Yip2pYj97f+TNa195jSEnUZvK+0MXsDvuStHFUGzFVuwMFfvLjsibV1vHKQNOolqaYxewt7+Uqsuh2Iqt2JkpdvCnja++Ntwka9t9ob2en5oFbMVWbMXOVrFbmnd7+4YisYCt2Iqt2Nksdux+T3vTd/Mi58IXsJek75ootmIrdhaK/Vrop42UbB9BgQzHPlJK2wK2Yiu2Ymem2CMN+yJvXpd9Y5xJ1ksWsBVbsRU7k8XufCXy5nV0YNgwkygL2Iqt2IqdzWI/8XLkzWta73GDTKKCF7Db0riArdiKrdhZKPZdraFnag6dNMQkygK2Yiu2Ymez2I2lxyJvXpd+YoBJ1s8vtoCt2Iqt2FksduejkTevY6WtxpdE7Qrd1C/FC9iKrdiKnfJi7wk9U7O/6w2jS6IsYCu2Yit2Not9qCt0AXvdp8aWREUvYN/3UvqvkWIrtmKnsdjdAzsjb15vfmZkSZYFbMVWbMXOZrF7Hoq8eR0sNRlYEvWlBWzFVmzFzmSxDwxF3rzGWt82rCTKArZiK7ZiZ7PYM3v7Iu9en39hUEnUcPOtoR+wX83OMbKKrdiKnapiDzc/F3nz+njUkJKsZ1+3gK3Yiq3YWSz2s/dH3rz2ldcYURI1a9ACtmIrtmJnsdix+0e0dZwyniRqhwVsxVZsxc5ksYNfv/nqa6NJoixgK7ZiK3Y2iz38R6H7Ryz/L4wlyZoRugRUee9fZO+SKbZiK3Yqiv30+ZE3r73ZWs0jByxgK7ZiK3Y2i/1aR3vgzat98EsDSaJ2lDdbwFZsxVbsDBZ7pGFf5N1r0TeGkURFL2BfmdV3NhRbsRU7utidr0TevI4ODBtFEjUj9hvYjzRn9soptmIrdmyx33858uY1rfe4MSRR98QuYO/L8jsbiq3Yih1Z7H/8B22RC9h/csQIkqiZfz90E96rWjN9s1NsxVbsyGKHuvQT40eiwhewV2b7+im2Yit2QYt9rLTV8JGo4G9gzxnN+gVUbMVW7EIWu7/rDYNHosIXsLO/a75iK7ZiF7HY6/YYOhI1szf4G9h52DVfsRVbsYtX7I2fGTgSFXyKbOWFlbm4jIqt2IpdtGJvKDUZNxJ1XuwCdm6OfVdsxVbsYhV7rPVto0aighewVzfk5th3xVZsxS5UsT//wpiRqPAF7Bzd3hRbsRW7QMXOzdNBsiJ8AfvhPF1NxVZsxS5MsfPw9RayxQK2YqPYil3Ur7eQJQcsYCs2iq3YE/fq1waLRE21gK3YKLZiT9z85hZjRZKaBmIXsD9/OIcXVbEVW7HzX+y9WT5gkEw67yYL2IqNYiv2RLUPfmmcSFTwAvbBhpy+Y6nYiq3YOS/2om+MEoma2ht6BvZYa25vaIqt2Iqd62IfHRg2SCSpaWC9TYIUG8VW7Ima1nvcEJGontgF7GtH83xxFVuxFTu/xR46aYBIVPgCdmOuL69iK7Zi57XYsz8xPCQqfAE776fcKLZiK3Y+i32stNXokKToBex1+T/lRrEVW7HzWOz+rjeMDYnqecsCtmKj2Io98U8be4wMybZkyAK2YqPYij1hG+81LiTKArZio9iKPQkbSk2GhSSFL2DfUJgnGYqt2Iqdp2IX5tMGqRG8gP3mdcW51Iqt2Iqdp2J/foMhIdmIxC5gbyjGArZiK7Zi567YOT2wiPQ6FLuA3V+wR0qKrdiKnZdir87rgUWkVbcFbMVGsRV74to6ThkNEtXzUOwC9vOFu+KKrdiKnYtiv7rSWJBsPR70nQjFRrEVe8LmN7cYCpJ0qGssdgH7xkL+laTYiq3YWS/2svI8A0GSugd2xi5gP1DQ5xqKrdiKne1itw9+aRhIVPAC9sbPinrhFVuxFTvbxV70jUEgUe9cbwFbsVFsxZ74r6AFbJJlAVuxUWzFnoRpvceNAEmygK3YKLZiT8bQSdefRFnAVmwUW7EnYfZtrj6JsoCt2Ci2Yk/CztJWF58kRS9gd800Boqt2IqdwWL3d21x6UlSd2l17AL2p8ZAsRVbsbNY7KFbXHgS1TM9tNcX3GsIFFuxFTuLxd7o7kWyghewj1kCUmzFVuxMFtvrNyQsfAH7DWOg2Iqt2Bks9lih948gQPQC9tAsY6DYiq3YWSz2uhtccRIVvYB9syFQbMVW7CwW++NR15tE7XnXArZio9iKPWGrG9a43CRpVddVFrAVG8VW7Ilq6zjlYpOk7tI1sQvYvsOo2Iqt2Jks9qsrXWoS1TnHArZio9iKPWHzm11oErXnRQvYio1iK/aELSvPc51JkgVsxUaxFXsS2ge/dJVJkgVsxUaxFXsyFn3jGpOozvdCe33p3YZAsRVbsevj79f39rXzQ5eYJK28MrTXu//lsDFQbMVW7DppqPsjwktcZJISvIDd5xRZxVZsxa6jf6vud7H9//S4y0wS1vyzx0I/YP/Dk8ZAsRVbsevo6wRuZDt91YUEBC9gz7aArdiKrdj1tSORm9nr57nS1Plvz1dDe33hf2IBW7EVW7HrbV8yN7R1D7jU1I8FbMVGsQvggqR2lfhLh1xs6mNNQ+wC9uAdxkCxFVuxE/APE7utHXR4F3URvYD9iSFQbMVW7ET8jQRvbW9e53pTayu+il3A/iML2Iqt2IqdkAcSvb294AwvaupGC9iKjWIXx6JE73BXtTonm5qZ99eWRva6/U+OGAPFVmzFTtAfJnyXc5QXtdL5aOwC9m2GQLEVW7ETtXVu0je6V/6wxWWnau9fEdrro//EArZiK7ZiJ+3fT/5m97gDQqhS8AL2tF4L2Iqt2IqdvJMBd772v7LLhWfy5v17sQvYf9oCtmIrtmKH+DMxn1EcEMJkBS9gP2kBW7EVW7GDfLo/Zh3wz1sHZDKe+CC013c2m7iKrdiKHeaf2yyKzLjrH7eFLmD/3zYZA8VWbMUO9L9G3f6GbnHxmYjGUuwW4kO2EFdsFDvWidf4OfLyAAA0aklEQVTD9oz6v890+Rmvlj98JbTXj19uDBQbxY52T9ybtxtKTa4/4xL9DewBC9iKjWKnwF9oj7sRTr/Z9efcFv9B6AL23v/NArZio9jp8Fcjb4YvfmoAOLsTf3tf6Dew/1c7CCg2ip0aA/2B98O2DgeEcDady0MfiF/2lCFQbBQ7RZ5+L/KWuM8BIZxR9DewLWArNoqdMjPfDb0tzvkXhoDTWfzfxy5gl0eMgWKj2Gmz9Z+G3hkrX71vDPixE/9u7AL237vdGCg2ip1G5z0Smuy2f7zYGPB9LX8hdkret80YKDaKndYPNA2hZyJV9vbuMAj8hgVsxVZsxebMFrde5SZJSuZimz8fFVuxFZuzeP+r0GRXLnOWIfHPe9oHnYGt2Ch2BnS+F9vsoUuMgUn4SugcXPSNIVBsFDsTukurQ2+XfV1vGIRCW/By7NpMc4sxUGwUOysOdY2F3jKPlbYahMKygK3Yiq3YTOi3ayj20fgFnxmDYrKArdiKrdhMVM9Nsc1e94AxKJ6W0dgF7MctYCs2ip1Fw823ht48+1vfNggFE7yAfdgCtmKj2Fm1o7w/9AZ6sGGNQSiQ14IXsMsnjIFio9jZ9WVHe2izPx41BkUxEr2A/aUxUGwUO9teOj92OfuFlcagCMIXsC83BoqNYufgVhp8QEjHEoOQewsWWsBWbMVWbKo30hB64mFlWXmeQci14AXsZRawFRvFdkf1EYjx/EVoAVuxFVuxqZ0FH8QuZz/+oTHIp5bRuaEza7sFbMVGsXOn89FK7CehO4xBDn0Uu4A939MbxUax86ixdE3ozXVa7xaDkDOvxX570BsSio1i59aqrqtCm310wAEheRL8SmN7x13GQLFR7Pzac33scvbsu41BXoQvYL9kDBQbxc63nrdimz00yxjkwkcXWcBWbMVWbOqre2B96K22v2umQcg8C9iKrdiKTRKm9m4ObfaGUpNByLTgBWzb6Ck2il0g9wzGPhp/c9QYZFf0AvZ9FrAVG8UulBkXxzZ73cPGIKMsYCu2Yis2yRpu3l2JfbJ5yiBk0O0WsBVbsRWbxG0qTwtt9j4338yxgK3Yiq3YFPLzUuURDzgzJfrg1le/NgaKjWIXV/Cu0JX7HOOQHU9fFPz3nSFQbBS74B+bXgm9DbcPHjEIHshYwFZsFJtxONHwWGiz9/buMAipNxL70oP3FBUbxeZbd7XGHhBy58CwQUj5k5jYBewrLWArNorNr614NXY5+8nbjEGKPX1+6OyYM2oIFBvF5rc658Q2e+gSY5BSwQvYvgSo2Cg2P9I9sDM02X1dbxiEFNpkARvFVmzFTp1DvX2hzT5W2moQUiZ8AXulMVBsFJvT/koGHxBywWfGIFW2WcBGsRVbsdOq5/7YZq+7wRikxq7oBew1xkCxUWzObLj51tBk97e+bRBSYVN5vwVsFFuxFTvVdsTeqSsHG3y0itfSfGHoLHjBaayKjWIzDl8GHxDy8agxCLbtPjMAxVZsxc7GDTv2jaPKC/a4ihS8gL3aUxbFRrEZv5bRuaHJdhBynPAFbHcExUaxmZCRhqWhzV5WPmEQAgw377aAjWIrtmJnzGutbaH37sPNLQYhaS9ZwEaxFVuxs+iJK2KXsxd9aAwSZQEbxVZsxc6szkdDk90+eIcxSIwFbBRbsRU7yxpL14Q2e1rvFoOQiOgF7M8tYCs2ik2VVnWNhd7JLxxwQEgCfn5x6ChfO2oIFBvFpnrvPBi7nH3pz41BnQUvYNvnTrFRbGql563YZg/NMgZ1FLyAPdbqHqDYKDY10zTwXGiy+1tvNAh1Er2Ave4LY6DYKDa1NLV3c+h9fUNDo0GoBwvYKLZiK3bu3DMY+2j8Tff22vuyI3RMD/o7TLFRbOri2diPY5V1vgBUW+EL2A5DV2wUmzoZDj41ua3jlEGo4WjeGvsH2A3GQLFRbOr5qWxa6F1+X3meQcjFE5M3rzMEio1iU1+3x351t/KIA0JqYVbsWwkWsBUbxSYJH70cu5y9/XJjUKUdFrBRbMVW7EJoGV0emuz2wSMGoQoWsFFsxVbs4mgsPRZ6z9/be9wgTNazr1vARrEVW7EL5Mauq0Lv+3cODBuEyQhewLYTjmKj2CTv0xdjl7Of/MQYTNiOcujWdf0WsBUbxSZEz/TYZg9dYgwmJHwB+wFjoNgoNjG6B3aGFqCv6w2DMH4zghewnzcEio1iE+dQb19oBY6VmgzC+ATvC7/BSCk2ik2wA8EHhGz8zBiMQ/gCtuNSFRvFJt5598c229d7z8kCNoqNYpOGHoy1mkRnNeN+j0FQbBSbbwXvelk52LDGIJyJBWwUG8Xme3YFHxDy8agxOK2ZvRawUWwUmx/YdlHscvaVXxuDnxhufs4CNoqNYvMjLaNzQ+vQ1rHEIPzQeRawUWwUm9MZaVgaWohl5RMG4bcsYKPYKDZntLg19oCQw80tBuFXohewu2YaA8VWbMUm1Z64InY5e9FTxmBKChawPzUGiq3Yik3qdb4X2or2wZPGIHgB+4J7DYFiK7ZikwXdpWtCezGtd0uxByB459hjpa1+CRRbsRWbjFjVNRbajAsHCtyMqdEL2A5UU2zFVmyy5J0HY5ezp99c0AvfNBC7gD10i8mv2Iqt2GRMz02xzS7mu0/nxV71C2428RVbsRUbn/ZskHlOFrBRbBSbSQn+SnBlQ0NjkS63BWwUG8Vm0mbFfuirvDlaoEca6y1go9goNpP37KWxzf784WJc5+DXBqY/Y6ortmIrNlk33HxhaEvaOk7l/yJbwEaxUWxqYFPDvtCe7CvPy/cFntrbZwEbxUaxqYXbW9tCmz0/zweEWMBGsVFsamjBy7HL2dsvz+uV7Xkr9MJeerfJrdiKrdjkTOfy0LK0Dx7J5W10KPSq7rSArdiKrdjkUGPpsdC67O09nrdLGryA3de1xbRWbMVWbHLpxq6rQpt958Bwni5n+AL2Jaa0Yiu2YpNbe96NXc5+8pP8XMvgBezZn5jOiq3Yik2u9TxU8cGwFvfP2AXsQp9nqtiKrdgURHfws9y+PHx7+JAFbBQbxab+gt+XqhwrNfmjx3MKFFuxFZtxCN5Us7Lx+SxfPQvYKDaKTXJmvB7b7HU3ZPbG+aAFbBQbxSZBw827Q8sz1prJmXeoa8wCNoqNYpOsTeX9oc0+2LAma5ese2Bn7AL2SdNWsRVbsSmkXR3toQH6eDRb1yv4m3FP3mbKKrZiKzaF9fRFscvZV36dnWv1zvWhl+qoBWzFVmzFVuxCaxl9JbRDbR13ZeNCBS9gT8vfpuwotmIrNhM00rA0tNnLyifSf5EsYKPYKDYpsLg19oCQw80tKb9CFrBRbBSbdHj/q9jl7EVPpfnqhC9gD5uhKLZiKzbf6XwvtErtgyfTemUsYKPYKDap0l1aHdrslO4NEn1Zhu4wNVFsxVZs0vVhsrKzlL6vL/VMD70klz1lWqLYiq3YnO6eEHvmc2X6zem6HhawUWwUm7TquSm22ese8Mzh1/ZawEaxFVuxOYumgedCk93femM6LkTwAnb7oAVsFFuxFZuzm9m7ObTZGxoa0/CwwQI2io1ik3pfdsQ+Gr92NPoK7Hk39ALcaQEbxVZsxWZ8XrovttmfPxz506/qCt0DzgI2iq3Yis34tYw+Eprsto5TUT96d+ma2AXsI6Yfiq3Yis0EjDTsC232vvK8kJ87eAF70YemHoqt2IrNBL3W2hYar/kBB4REL2Cn/kwUFBvFJpUWfBC7nL39m2R/3vAF7B3mHIqt2IrN5HQ+GprsRBd1LWCj2Cg2GdYYm7EEX5wOPr1s0TcmG4qt2IpNVYIfFVeODiRxQMieF0N/yMMWsFFsxVZsalCz2AMxKk9+kvO/Sixgo9iKrdjUSM9Dsc0euqWeP50FbBQbxSY3ugfWhya7v+uNuv1swQvYj1vARrEVW7GppanBB4QcKzXV5ef69GcWsFFsFJt8uWcw9tH4xudr/zNFL2CXT5hXKLZiKza1N+P12Gav+6K2P0/4AvaX5hSKrdiKTV0MN+8OTfZYay2na/QC9uUmFIqt2IpN3Wwq7w/N3OqGNTX6SVZ8ZQEbxUaxybPbO9pDU/fxaC1+ihtjF7CXWcBGsRVbsam/pxfGLmdfuaLan6Cx9JgFbBQbxSb/WkZfCU12W8ddVf37g8832W4BG8VWbMUmKScaQj+kVvVU+f3YBez5FrBRbMVWbJK0uDX2gJDDA8OT+neHL2DPM3dQbMVWbJIV/Fm1suipif+boxewO5aYNyi2Yis2yeucE9vsoZMT/QcHL2C/ZM6g2Iqt2IToLq0OTWBf15aJPBS4wgI2io1iU1SHevtCM7iztHWc/9K7Wi1go9goNoW+kQQfEDL93vH8K4MXsNssYKPYKDbxeu6Pbfa6B875TwxewH71a7MExUaxSYHh5ltDg9jf+vZZ/30WsFFsV1Cx4Vd2BB8QsqGh8Yz/NgvYKLZiKzb81pfBB4RcO3r6f5cFbBRbsRUbfmjb+bHL2Z+vPM0/qnO5BWwUW7EVG36oZXRuJfbz7Kkf/Yue+CD0H/RIs0mBYqPYpNJIw9LQRP5wzXixBWwUW7EVG87gtda2lLyXHXy82E8/8INio9ikSvCT6Mrj33z7zwhewL5ypZmAYqPYpF3wdiXtg0ei/2yYM2oWoNgoNhkwL/aBdGXvi6HfNLvmzzaaAyg2ik02rOoKfenLAjaKrdiKDeO05/piBvsFC9goNopNxvS8VbxeW8BGsVFsMqhpYH2xer2vvMaoo9goNlk0tXezBWxQbBSbDLhnsDAL2A8bbRQbxSbLnr24CL3+eNRIo9goNhk33Lw7771e3WABG8VGscmBTeVp+V7A9kuEYqPY5MTtHe25DfbnFrBRbBSbHPlooQVsUGzFVmwyoGV0ef56bQEbxUaxyaHgE6trb6zVbw+KjWKTS3e15umAkM+/MKIoNopNXn36Yl56fe2o0USxUWzyrGd6Hnp90AI2io1ik3fdAzstYINiK/Yk/HeuIAlb9f8Yy3SwX9xjDElYy3+u2Ir9S1997RqS9OeFDB8QYgGb5C24qKLYiv3rTRadEkjSzrs/qwvYjQaPhC1ubasotmJ/Z1/ZazQkbLj51iwuYL9t5EjYiYal1U9dxc5Rse21SIAd5f0ZC/a6G4waSeusyWaBip2rYtsOggC7MnVAyJvXGTGStuKK2sxexc5ZsT3wI8C28y1gw5ms6qrVLoGKnbdi/+KeVGpyOUlWy+hcC9hwOt2la2o2gxU7f8WuVN78zPUkYSO1eK/GAja5U9PtARU7j8X+xa3pU1eUhNXguyv1XcB+3hiRtLXX13QSK3Y+i13p73rDNSVhT1yR3l5vsIBN4qZ21XhfQMXOabErlWOlra4qCet8L5297m+90eCQsKaB9bWeyIqd22JXKpd+4rKSsFq+ZVPDVaIHjAxJO++m2s9kxc5xsSuVoZMuLAlb1ZW2A0I2WsAmcffUZdN9xc51sSvTeo+7tCTsnQdTtYDt244kbkd5c0WxFXvijg4Mu7gkrOctC9gUV/1221fsvBe7UrnsG1eXhDUNPGcBm4K6++K6TWjFzn+xK+2DX7q+JGxm7+bwXm+0lRCJu72e2+wrdlrU9SyFfX9unitMwu75f8b2ev3/y/cbSdqOf1XXo+wOu8Ip8Vh9716Hm1tcYxL27KWBC9hdMw0ACWsZfaS+03q6a5wSdT9IYfs2F5mEDTdfGLWAbZ9eErfgonrP64UuckpcXPd7WFvHKZeZhG0qT4tYwL7XlSdpSWysP+Qyp8SVCdzHrvkfba1M0r78M+0J93r937SATdJO/I1lCcztv+JCp8T/nsi97ONRV5qkffRysgvYDsEhcZ3LE5ndf86VTol/mdD97PMvXGtyejuzgE2MFUmdWveMa50SK5O6o421vu1qk7DG0mOJzO4LLGCTuFVdVyV1+3bzToum5F7QOfYPbLRM0pb8rfq/lvPcgAVsEv9r9E89lti9+xGXOzX+6wSX+t60FxSJ+/RdC9jkTs/0BO/c/7vrnRr/b19XJe83t4fq+b2XW1xgkvbO9Ynet+92xVNj07JEh94HEpLXPbC+XgvYN7u6JG1qwmfBX2jVJ0UGK8m69Xecw0nSVv1xfz3m8v/HrYykNf3zDQnfs/+Si54iLyW+M9Sln7jqJO3AoOdF5MB5NyW+V/4lrnqa/C/J7+Y4dNJlJ/Fb3esWsMm4ewaTv13/Y5c9VS4P2IC5r+u4C0/Chptvrd2DIi/jkLgd5YDT36864MKny1BAsit3/m6LK0/CtvTW5o6328sYJG7rwHMRt+r/w5VPmcUHI+ZB5bIPXXqStqujvQZPiCxgk7i7Lw65Tx+d6tKnzR+FzIRK++AR156kPV3tYcJDXsQhk39qTooNeFPowZi5UFn2t+e5+CTsy+om7X5XkKTt+Ff7g+7RXjtLozduCpoOlcPNLS4/ig1n1DL6SNQNetEmlz+N7tgdNSMq27e5/Cg2nMFHF4XdnZefcvnT6Yl9YZOi7feudv1RbDiN2/9ee9i9+dha1z+tnn4ubFpU9pXXGAAUG37kRMPSuBvz0ZUGIL1Ovhk3MypzRg0Aig0/0Lk88K781i4DkGY3fhU4OSr/i3M4UWz4rfc/iLwlX7/FCKRby8C+wPkx1vq2IUCx4Vuruq4KvB/vLbUYgtS75NXIv+kONjQaAhQbpnSXrom8GS+cZQgy8TG7eXfkNHnzM0OAYlN4PRdE3oiPDtg3Pys2lfdHTpV1lrNRbIrtnXcjb8JOVsyWXR2Rs6XfKQsoNgV2qGss8hY8dNIQZMyzr0dOmGOlrYYAxaaQmgbWR95+L/3EEGTPcPNzJg2Krdgk7Ly3fFxi4mb2bvZgBsVWbBJ0z6AlSSbnwJCXH1BsxSYpO8qhn5O89ptxPaHPZ3zBAMWmOIabb/XVWqrRPbAzcgpd9qEhQLEphJ+Hvu9r+6p8iP2eQfvgEUOAYpN7uzrabRFNDbzzYuRffnvLJwwBik2uBe9b9cIXhiBHOt+LnEyHm1sMAYpNbrWMPhJ5i3XUcd50lx6LnFDbtxkCFJuc+uiiyNvrvvIaQ5A7d7VGnvvW1nHKEKDY5NBroQvY7q15FXu2+jJ/B6LY5M6JhqWeX1IXna9Ya0GxFZva3VSXe0eI+v05uM/7jCi2K0hNxD649D2c/HvNdwZRbFeQGljVFflyUPvgl4agAD463748KDZUp7t0jf0kqb+W5t32vkWxoQqxm1w4s6FIgrfncb4Mik2mvfNu5C10Wq9zEYtlV0fkfHOGK4pNdsUe1lAZOmkICufZ0GNmjpW2GgIUmwxqij0Q8dJPDEERDTc/Fzrt7jYEKDaZc95bPuwQYWbvZo92UGwYt3sGLSgS5cBQ5Ozr6/L6BIqNTzle2mV8eh7yFQUUG85tuPlWX4wlVnfsWxS2AUCxyYSfh76te7DUZAiY8stvKsRutXfEEKDYpFzsN2Jt8Mxv7XnRdvYoNpxJ8K5TnztEie+L3XHPkXEoNunVMvpI5A3y41FDwA91lx6LnJLbXzIEKDap9NFFkTfHfeU1hoCfuKs1cjm7rWOJIUCxSZ3YE4rbOk4ZAk4r9nT2Zf6SRLFJmRMNSyNvi199bQg4o85XIifnnFEjgGLjlugNH8ZlpGFf5AR94WFDgGKTErGPHfeW5xkCziF20ca3DlFs0uHG4J0qvjQEjMPT54fu7NPQaAhQbIIFf33msm8MAePT0rw7dPfc5w0Bik2o2C0qnLjARARv8OOEGhSbQO+8G3kDnNbrVEMmJnYTXafAothEOdQ1Fnn7GzppCJiwZ++PnLTHSlsNAYpN4ppijzO89BNDwGQMNz8XOXEvvtsQoNgkrOctH1XIppm9m0MfDl1iCFBsEnTPoOVAsuvAUOT87evaYghQbIrxGWXdHkNAtc+IHvIlBxSb/BtuvjXyZrfxM0NA9bpj38O47ENDgGJTdz9/PfJGt6HUZAioiUPBm/UdMQQoNnUV+31W2zNTS3tejN0Q/4QhQLGpm+A9oz6/wRBQU52PRk5oh86h2NRLy+gjkbe3j0cNAbXWGLsv/vaXDAGKTR18FHr20b7yGkNAHdzVGrmc3daxxBCg2NRY7PnCbR2nDAF18v7LkX+LLvO3KIpNTZ1oWBp5U3v1a0NAHXW+Ejm954waARSbnNzQ5ns/hzobadgXOcVfeNgQoNjUxPsfxH4HZp4hoO6il318bxHFpno3Bu8z8aUhIBFPh75aebCh0RAotmJTle7YL78s+sYQkJSW5t2Rk/3N5w2BYis2Veh8L/IWdqcFbBIVvEXQugcMgWIrNpP0zruRt69pvccNAQmL3YbXObKKrdhMzqGuscib19BJQ0CAZ++PnPbHSlsNgWIrNhPUFHsY4ezbDAExhpufi5z6FzxjCBRbsZmQnrd80KCoZvb2hT5eusQQKLZiM24HBi3mUejfgKHI34C+ri2GQLEVm3F+wtgc+gnjFkNA/FOmhyJ/CY4ODBsCxVZszil4FW/jvYaANOiOfZPjyacMgWIrNufw7OuRt6kNpSZDQEocCt7u74ghUGzF5ixiv4061nqjISBF9rwYuqV+7w5DoNiKzRlE7/h0gyEgZTofjfyVOGzXP8VWbE6rZXR+5M3p41FDQPo0xu6s//hLhkCxFZuf+Cj05KLVDWsMAal0V2vkcnZbxxJDoNiKzQ9Enw58yhCQWk+8HPnX7DInxCu2YvM9Jxr2Rd6SXl1pCEi1zlcif0HmjBoBxVZsUnE7mt9sBEi7kdg/al942BAotmLzC+9/4JEfnEv0wtHVhkCxFbvwbgzeJeJLQ0BGPB36cubBhkZDoNiKXWjdsV9dWXS5ISA7Wpp3R/66vPm8IVBsxS6wzvcib0B32h6CjIneZOgBQ6DYil1Q74RuwTit97ghIHNiN/J1Eq1iK3YxHeoai7z1DN1hCMikZ++P/MU5VtpqCBRbsQsm+CjB2bcZArIq+EDaC54xBIqt2IXS81bkLWenjwlk2szevtAHVJcYAsVW7MI4MBS7FLfFEOB3qAp9focUW7EL8/lgc+jng1sMAXl4TvVQ5K/RhQPDhkCxFTv3gtfgNt5rCMiH4HdBnnzKECi2Yufcs69H3mQ2lJoMAblxKHjDwCOGQLEVO8div0s61nqjISBX9oTuabC3d4chUGzFzqno/ZpuMATkTuejkb9Uh+0bqNiKnUvBeyJfO2oIyKPG2L35H3/JECi2YufOR6HnDq1uWGMIyKm7WkOXszuWGALFVuxccbYv1M8TL0f+PeyMecVW7Dw50bAv8oZy5UpDQM51vhL5KzZn1AgotmK7mdTA/GYjQP6NxP5Z/MLDhkCxXcEceP8DD+yg/iw9odhUJ/ilmMFdhoDCeDr09c6DDY2GQLHJsO7YL54sutwQUCTRX6F83hAoNpnV+V7k7eNOmztQONHbFD1gCBSbTHondAPFaTZQpJh33dCtgPu7ZhoCxSZzDnWNRd44hu4wBBTUs/fHHrez1RAoNpkSfBDg7NsMAcUVfKTtBc8YAsUmQ3oeirxhXDjgj3yKbWZvX+gjrksMgWKTEQeGYhfSthgC/BaG/hb2+S1UbDLy1/3m0L/ubzEEkIInXcOGQLFJueAVtI03GwL4leC3SZ58yhAoNqn27Ouxb6k2GQL4jUNdsVsOHjEEik1q7Yr9JmjrjYYAfmBP6K4Ie+2KoNiklN2WIH06H438tTxs50HFJoWidzS+zhDA6TTG7u7/+EuGQLFJmdhTg1Y3rDEEcAZ3tbZFLmd3LDEEik2KOJkX0uyJlyP/onZKvWKTHiMN+yJvB1euNARwDp2vRP6Szhk1AoqNW0FlfrMRgNT/Yf3Cw4ZAsQnncRtkg8UrFLvY7moN3aHBKy0wAbEviB5saDQEik2Y6K+NXG4IYCKiv4T5vCFQbILEbs1wp60ZYMJsdIRiF5HtDyGTt+XYzYS7ZhoCxSZhsUcMVIbuMAQwSc/eH3tgz1ZDoNgkyDF+kGHBh+Je8IwhUGwS0/NQ5K/7hQP+RIfqzOztC31IdokhUGwScWAo8le9r2uLIQC/xyg2/jaHgoh+VjZsCBSbuope/7rZEECtdJdWex8Fxc4t75hCnsR+56N98IghUGzqNZyx3+NsvdEQQI3t+Zl9FVDs/LFXEuSRvQtR7LyJ3o/4OkMA9RF9PsBLhkCxqanYM39WO/MH6uiu1rbI5Wxn8Ck2NeRcXcg359yj2Pkw0rAv8pf5yocNAdRby+jcyF/zOaOGQLGpgc5XIn+RH2k2AuBPcxQbD8uA71j+UmzFzrK7WkP3V/BCCiTq6fsi/0I/6BVTxWbSfOkDCsbXOBVbsbPJxgpQPLZKUmzFzp49L9q8EIpo1mDodsRdMw2BYjMhDgiA4nLkj2IrdnZ0D+yM/IV1CB/Eij5W9xlDoNiMk4Puoeim9vZF3gaGLjEEis04HBiK/EXt69piCCANd4IH3QkUW7HTbaa/rIFvedqm2IqdZlavgN/oLq32RotiK3ZKeUMU+L7Yb41Uhu4wBIrNad3iW5jAj+z5mZ0ZFFux08ZOR8Dp2P1QsRU7XaJ3E37eEEBaRZ8wcLkhUGy+x4k9wJnd1doWuQmiU/wUm99wKi5wdk+8HPlX/bLyPEOg2PzCSMO+yF/FFx42BJB+LaNzI28UjzQbAsUm+NdwzqghAH/cj8OV/rhXbI+6POoCxscCmmIrdhyvkwATEfuS6movqSp2YUV/ZeMlQwBZE/1F0OsMgWIXUuy2CIdtiwCZZLMlxVbspNl6EJicWbEbGrfeaAgUu1Bit/dvHzxiCCDDHBqk2IqdFEfoAVWJPpj3ZkOg2AXhmHqgWlN7+yJvJEOXGALFLoADD0b+mvV1bTEE4F7iXqLY+LsYSEz08zrL2YqdZ9FrT88YAsgT78QotmLXy4zQ9zuPeb8Tcif2eyeVoTsMgWLnUvB3KLveMASQQ/Z2UGzFrjX7FAH1Ebt/4p32T1TsnAneC/jN5w0B5Ff0GQWXGwLFzpHY83YOOm8Hcs45gIqt2LVxe/CZtm8bAsi9J16O/FywrDzPECh2Dow07Iv8RXrhYUMARdAyOjfyVjO/2RAotl+iqswZNQTg40EirvTxQLE9qKrmQdUaQwAFEr0Ed7UhUOzMin0ZpM3LIFA4sa+5rvaaq2JnVPAXLra/ZAigeIK/SnrtdYZAsTModlODwzY1gIKyXZNiMzHBGweWTxgCKKzgLZFbbzQEip0hsZvztw8eMQRQaLHHDm1w7JBiZ0bwAXiXfWgIoOiij/a92RAodibEHjJ/dGDYEABTpvb2Rd6Khi4xBIqdegcejPwl6es6bgiAVNyNthgCxfZXrb9qgXGJfeJ34YDlbMVOr+CVo0vvNgTA9wW/VTP7KUOg2CkV+3bmMW9nAj8R+82VytAdhkCxUyj4G5BdbxgC4DSCd4fo3WEIFDtloncZ+tQQAGcQuwPjnXZgVOxUCd7J983PDAFwZsGnHDx+uSFQ7NSIPS3noNNygHOIPUmw3UmCip0SsSfSjrW+bQiAc3ri5chPFsvK8wyBYocbadgX+WvwwheGABiPltG5kTer+c2GQLEL/SswZ9QQABn5gHHlSkOg2JGPmRbGPmZaYwiACYhdxGvruNoQKHaQ2Fc52jpOGQJggmJflF3d4HOGYkcI/rrE9m2GAJi44C+jXnudIVDsxMVuSXDYlgTAJEVv+PSAIVDsRAVv+1c+YQiASQveVLn1RkOg2IlZFbq1fvvgEUMAVCX24KINpSZDoNiJ6C5dEznVL/vQEADVCj4ceOPNhkCxExB7RPzRgWFDANTA1N6+yJvZ0C2GQLHrbO2DkVO8r+u4IQBq5EDo/ay/a4shUOwc/0160hAANRT7zPDCga2GQLHrZLh5feTkvvQTQwDUVndpdeRtbfZthkCx6yL23cpjJX+MArV3KPS7L5WhOwyBYtdc8PcXu94wBEBdxO4vMa13hyFQ7JraVN4cukfQp4YAqJvYPRzvtIejYtfQcOw+vG9+ZgiAego+J2HR5YZAsWtk232RU/lgQ6MhAOos9izC9o4lhkCxayD2PNmx1rcNAZCAJxZGfjZZVp6n2IpdpZGGfZGT+PMvDAGQjJbRuZG3u/nNiq3YGZ7AH4+6hwCF+Yhy5UrFVuyMPiTaV17jBgIkKnYZsK3jasVW7ElZHPoiRlvHKTcPIHFPh75qu7qhwJ9UFHvSgr/s8NXXbhxAhJbYr7Nee51iK/YExW4ocNiGAkCYTeX9oVtG3aDYij0BX38VOV33+pYDECp4W+bWGxVbscdpVejG+O2DX7pdAMFijz7aUGpSbMUeh+7SNZET9bJv3CqAeMPNz0XeCjferNiKfU490yMn6dGBYTcKIBWm9vZF3g6HblFsxT6rtQ9GTtBpvcfdJAB3xF8tZ3dtUWzFTu1flCfdIIBU6Xko8qZ44cBWxVbs02oaWB85NS/9xM0BSJvgN3tm36bYin0asW9GHittdWsAUij22zOVoTsUW7F/JPjbh11vuC0AKbXnZ7Ev+OxQbMX+nk3lzaE7/HzqlgCkWOwukHcWZBdIxR6P4dhddN/8zO0ASLfgkxYWXa7Yiv2tbfdFTsSDhdzaB8iau0JPM2wf3KXYih18GuxY69tuBEAmPLEw8tPNsvwfuKDY5zBSnhY5BT//wk0AyIqW0bmRN8z5zYpd5GIHT7+PR90BgEx9yGnYF3nTvHKlYhe22AtCH/HsK6/x6w9kTOxCYlvH1YpdyGIvDn2Noq3jlF99IIOeDn1Zd3VDfj/rKPaZNJaWRk66r772aw9kU/AXYq8dVeyCFbtzeez7Ey1+6YHM2lTeH7rp1A2KXaBir/gqcrLtzf93FICcC97YufVGxS5IsWO3tW8f/NIvO5B5sYcnbcjj3lOK/RPBR8ct+sYvOpAHw83rI2+mG29W7NwXu2d65BQ7OjDs1xzIiam9fZE31KFbFDvXxV57feT0mtZ73K84kKd76oOhy9ldWxQ7t8WO/nvwpF9vIGd6Hoq8re4sbVXsXBa7aSB0zWX2J361gfwJfjdo9m2KncNiz7gpclIdy9UfggC/Ffv9m8rQHYqds2IHf3ew6w2/1EBu7flZ7CtCOxQ7R8XeVN4cuj/PHr/QQK51Php5k70zH/tIKvaUX35p8NbQLw3e65cZyLvG0mOhW11crti5KPa27TbmAai32PMQ2wd3KXbmxZ7lOtb6tl9joCCeWBj5+WhZ5o9sKHqxR8rTIifQ5zf4FQaKo2V0buQtd36zYps8k/TxqN9foFhGGvZF3nZfXanYGbUg9AHN6oY1fnmBwoldimzruFqxMyj2JYi2jlN+cYFC2nafT0uKPRGNpaWezABEGG7ebUVSscetc7m3HwCiRG9blc23fotZ7BVX+IYBQKTYraHHWm9U7EyI3ZS+ffBLv6oAU2bcb/cqxT674IPfFn3j1xTgl4ab19shWrHPome63egB0mFqb1/kLXnoFsVOsbXXR06Oab3H/YICfP+u/GDkXbm/a4ti+2vutH/N3eGXE+BHeh6KvDHvLG1V7BRqGghdMZl9m19MgJ8KfrsoQzfn4hR7xk3+jANIo9hv8GTnAWhRih37zb+MLZUAJGzPz7xkpNi/siN2d52svY4IkLjOR32RR7F/+ZW/W33lDyDdGkuPhW6Wcblip8C27bbVAUi/2BMVM7AhZe6LHXsSaza3rgWI8cRChz4Ut9gj5WmRw5/R42EAgrSMzo28aaf8YMVcF7tl9JHIoc/sEawARf2g9epKxQ6xIPTxyuqGNX71ACYsdjGzreOUYicu9hWGto6r/doBTMq2+3zeKlKxG0tLPVcByKbh5t3WNAtT7M7l3l0AyK5NsRtfpfO94VwWe8UVvh8AkG2xm0un8ru5OSx27JbyGfgOPkAmzLjf/lf5LnbwsW1Z2OcOIBuCD0lO3R7TeSt2z3R7yQPkxdTePuc45bTYa6+PHNppvTv8egHU9r7+YOR9PV1nJeep2FO7xkL/FrvDrxZAzfU8FHlr31naqtg1F7zeMfs2v1YA9RD8flJ6bu+5KfZ5N/kjDCCfYr8DlJpHqDkp9j2h39tL10IHQP58/VXsa0rHFbtGdsTujZOylwkB8qjz0cJ/FSgHxR5uvjX0C3s3+0UCqL/G0mOh2218o9hVu/tim+IAFEHsmYzxW1pmvdix56j2p3HjWYDcWrCwyMdGZLvYI+X9kYOXzsNdAPKrZXRu5G0/9mjGLBe7ZfSRyIG79jq/OwDJf1SbFnnrf3WlYk/m4chFkYO2umGNXxyAALHLoW0dpxR7gmJfQGjruNovDUCQbfcV8hNbRot9omFp5HBdudIvDECc4ebdkRH4eFSxx61zeXHfPABgypRNsVtnfR7x5nEWi73iiiK/3Q/AL80K3Z56LODbvdkrduyG8O0dS/yaAKTCjPuLtYNW1oodfOjaosv9igCkRfAxyxvvVeyz6Jle+J3gAfiNqb19xTkJKlPFXnt95MDs7d3hlwMgZdY+GFmG/q43FPt0f0l1jYX+JXWHXwyAFIp9+nqstFWxfyR4tWL2bX4pANIp+A2nxAKRlWKfd1PkcFw4sNWvBEBqxX6LqDJ0UrF/457Qb931d23x6wCQaiu+iuzEtN7jiv2tHbE72yT7KiAAk9L5aN6/TJT+Yg833xo5CBfc7NcAIAsaS6EnTiz6pvDFvvvi2C1tLGADZEXsqY7tg18Wutixp6D2B2wbC8DkLViY44MnUl3skfL+yEu/7gGTHyBbWkbnRoZjfj2Xs1Nc7JbRRyIv+7XXmfkA2TNSnhYZj1dXFrDYCy6KvOSrGxpNe4BMil1Qbes4VbBix74+0NZxtSkPkFnb7ov8zLevvKZAxT7REPqK/pUPm+4AWTbcvDsyIx+PFqbYncsjL/QjzeY6QNZtit186/MbClHsFVfk+N18ABIyK3SD67HWt3Nf7Njt3Ns7lpjkADkxI/QQqQ2lplwXO/jItMcvN8EB8iP4oOaN9+a42LHHkiexjzsASZra2xe6FdeenBb7nesjL+ve3h2mNkDurA1tS3/XGzks9tSusciLOnSHaQ2QS7HPb4/V7EiptBQ7eK3hyadMaYC8Cn5HavYnuSr2eaHv81044ExNgDyL/R5SZehkbop9T+h35vq6tpjMADm34qvI0kzrPZ6LYu+I3Zdm6BITGaAAYvfTPDownPliDzffGnkJL3jGJAYohsZS6JkVi77JeLF/fnHshjQWsAGKI/ZcyPbBLzNc7F2hZ5j2d800fQEKZcHC0J0/qjq6IrLYI+X9oTvRPGDqAhRNy+jcyPTMr2J3zbhit4w+EnnRrr3OvAUoopHytMj8vPp15or90UWRF+xgQ6NJC1BQt4cuybZ1nMpUsWMX/9s6rjZhAQps232Rnxr3lddkptgnGkJfsL/yYZMVoNiCv1r88WhGih37JfY5o2YqAJtit+/6/IsMFPv9KyIv0bKq3qwHID9mhW6RPdb6dsqLHbsZe3vHElMUgF+bEXoM1YZSU4qLHXzg2eMvmZ4A/FbwUc8bP0ttsXsuiLwwh6v42joA+TS1ty90M689qSz2O++Gbg3Xu8PEBOAn1l4fWaf+rjdSV+xDXWOh268fMSkBOK2e6ZHNPjbeQ6kSKnbwSsGTT5mQAJxJ8FtWl36SomKf91bkpbiw+mPEAci12G8yVYZOpqTY94R+462va4upCMA5rAjdLWRa7/EUFHtH7K4yQ5eYhgCMQ+yOnEfP+Ty43sUO3rn1gmdMQQDGp7EUeurFom9Ci/3z12O3k9lqAgIwbrEnS7YPfhlW7F2hJ5D2d800+QCYkAULQ/cOOdvhF3Us9qby/tB9ZB4w8QCYqJbRuZHxmn/m/TnrVuyW0Ucif+RrnzfrAJiMkfK0yIB99XXCxf7oosgf92BDoykHwCTdHrqo29ZxKsFivxb8s15tugFQhW3bIz937iuvSajYJxpCX49/4WFTDYDqBH85+ePRRIod+xX0OaPmGQDV2xS7AdjnX9S92O9/EPkDLjvbe/EAMAGzQjfZHmt9u67Fjt1Kva1jiQkGQM3MuCn0NepSU92KHXxc2eMvmVwA1FLwYdEbP6tTsTvfi/yxDp/5S+cAMElTe/tCtwP7tA7Ffufd0I3deneYVgDUwdrrI/vW3/VGjYt9qGssdPP0I6YUAHXSMz2y2cd+faxVbYrdNLAz8od58inTCYD6CX5P69JPalbs896K/EHOfQg4AFQn9rtQlaGTNSn2PaHfV+vr2mIiAVB3K66IrN203uNVF3tmb+ieMEOXmEQAJCL2HM7D/6y6/37z3wz9otrFd5tAACSlsRR6bkaGfff2HAAkY3Frm/xW8Q01AEjKgoUKPNFdYB4wbQBIXkvscnbmvPm8OQNAjJHyNCEep4MNjSYMAGFu72gX43H4yYmhAJCwbdv1+JxeeNhEASDacPOtknxWc0bNEgDSYEd5syyf0bLyGlMEgJSYNajMp9fWscT0ACBFZtykzqex/SVTA4B0aRpYL9A/3gG9ucXEACB1pvb2ifT37C2fMCkASKW11+v0d9oHj5gQAKRWz3St/tZlH5oMAKRZd+kaua4cHRg2FQBIuVVdVxW8131dx00DADJgxRWFDvbQSVMAgIzoXF7YXl/6ieEHIDsaS0sL2etjpa0GH4BMWdzaVrhe93e9YeAByJwFCwsW7HWfGnQAsqhldG6Bev3mZ0YcgKwaKU8rSK8PNjQabgAy7PaO9gL0eqz1bUMNQMZt2577YL/whWEGIPuGm2/Nda/njBpjAPJhR3lzbnu9r7zGAAOQG7MG89nrto5TBheAXDnvphwGe/s2AwtA3jQNrM9Zrw83txhWAHJoam9fjnq9t3zCkAKQU2uvz0uv2we/NJwA5FjP9FwE+7IPDSUA+dZduibzvT46MGwgAci9VV1XZbrXfV3HDSIAhbDiigwHe+ikAQSgMDqXZ7TXl35i8AAoksbS0gz2+lhpq6EDoGAWt7ZlrNf9XW8YNgAKaMHCTAV73aeGDIBiahl9JDO9fvMz4wVAcY2Up2Wi1wdLTQYLgEK7vaM99b0ea33bQAFQeNu2pzzYn39hkABgypTh5ltT3OuPR40QAPzKjvLmlPZ6X3mN4QGA37hnMI29bus4ZWgA4AfOuyl1wf7qa8MCAD/WNLA+Vb0+3NxiUADgNKZ2jaWm13vL8wwIAJzB2uvT0ev2wS8NBgCcRc/0FAT7sm8MBACcXXfpmuBeHx0YNgwAcE6ruq4K7PW03uOGAADGZcUVYcEeOunyA8C4dS4P6fWln7j0ADARJxqWJt7rY6WtLjwATNDi1rZEe93f9YaLDgCTsOCiBIO9bo8LDgCT0zL6SEK93viZqw0AkzdS3p9ArzeUmlxqAKjK7R3tde71WOvbLjMAVO3ui+sa7M+/cIkBoBaGm2+tW68/HnV9AaBWdpQ316XX+8prXFwAqKF7Bmvf67aOUy4sANTYeTfVONivfu2iAkDtNQ2sr2Gv5ze3uKQAUBdTu8Zq1Ou95XkuJwDUzdrra9Hr9sEvXUoAqKue6VUHe9E3LiMA1Ft36Zqqen10YNhFBIAErOq6atK9ntZ73AUEgISsuGKSwR466eIBQII6l0+i17Nvc+EAIFknGpZOsNfHSltdNgBI3OLWtgn0ur/rDZcMAEIsuGj8C9i3uFwAEKVl9JFx9Xrjva4VAEQaKe8/Z683lJpcKAAIdnLw7MvZm//SVBcJAFLgnf9j8xl7/dj/9y4XCABSYurffLn9NLlue+Gf2OEMAFLli3/t4I83EP//HXFZACB1hg/8N73Xn7/x1tVHH1r43/5v/6lcAwAAAAAAAAAAAAAAAAAAAAAAAAAAAAAAAAAAAAAAAAAAAAAAAAAAAAAAAAAAAAAAAAAAAAAAAAAAAAAAAAAAAAAAAEC+/P8B/2rN6ktZCm4AAAAldEVYdGRhdGU6Y3JlYXRlADIwMjQtMDctMjRUMjA6NTY6MTYrMDA6MDAoU4/1AAAAJXRFWHRkYXRlOm1vZGlmeQAyMDI0LTA3LTI0VDIwOjU2OjE2KzAwOjAwWQ43SQAAAABJRU5ErkJggg==;" vertex="1" parent="1">
          <mxGeometry x="446.54999999999995" y="190" width="76.91" height="80" as="geometry" />
        </mxCell>
        <mxCell id="lt6rpjhU2XfIqA4amkJT-15" value="" style="aspect=fixed;sketch=0;html=1;dashed=0;whitespace=wrap;verticalLabelPosition=bottom;verticalAlign=top;fillColor=#2875E2;strokeColor=#ffffff;points=[[0.005,0.63,0],[0.1,0.2,0],[0.9,0.2,0],[0.5,0,0],[0.995,0.63,0],[0.72,0.99,0],[0.5,1,0],[0.28,0.99,0]];shape=mxgraph.kubernetes.icon2;kubernetesLabel=1;prIcon=api" vertex="1" parent="1">
          <mxGeometry x="410" y="282.5" width="150" height="144" as="geometry" />
        </mxCell>
        <mxCell id="lt6rpjhU2XfIqA4amkJT-16" value="" style="shape=image;verticalLabelPosition=bottom;labelBackgroundColor=default;verticalAlign=top;aspect=fixed;imageAspect=0;image=data:image/png,iVBORw0KGgoAAAANSUhEUgAAAYcAAADKCAYAAABOr4x4AAAAIGNIUk0AAHomAACAhAAA+gAAAIDoAAB1MAAA6mAAADqYAAAXcJy6UTwAAAAEZ0FNQQAAsY58+1GTAAAAAXNSR0IArs4c6QAAAAZiS0dEAP8A/wD/oL2nkwAAAAlwSFlzAAAOxAAADsQBlSsOGwAAIABJREFUeNrtnQ9wW/WV78/5SXYcW6VO68fzBhPcbjZ1eSGW2bQvJemu6Yvt0KbbdEtaUkIitmGBCSz5YyflUQYzgUkTOwQGMtAJGZQ/NGESHjDQJbHDwwzZNjzSxaZpm91NF0MUCEx2N7vYjhtL97zzu5ITyZZk3SvJlq7OZ0a2/t2re3/3d8/3d35/zkEQBMH5+DZX8l9+YDkEXQFw41nwrz4nBSMkAqUIBMGpgtBWj4RrAWgOv6qI840z/DhOgG+AEToIu9cfk0ITRBwEwcGo5ZufZKN/h8XNAoiwwwi69sCeNSelFEUcBEFwEsvbf4JAG9I0Da8QGtvAv+6gFKiIgyAI+c7ibR4sHfiIn3kytMcuQngQ/C1dUriFhUuKQBAcxFfrf4iA38/gHqu5BelT3sYamjn/LfjN4f+SQhZxEAQhz1C1jWv536zY7gF6mtC1EnDoYUDjMSD1C0D8Fzb6l/HHU1Pc9UxU+DdQ2/QH6On4nZS085FuJUFw0g29vO1t/jc76p1XaGfztxNu4NsyR5FxMwEs5VflKRqNPQa675apsOI5CIKQL+Lgbfrf0UaeELdCd0fiKardHQHq6XwV6r75M4DQvyHg1RD2KJIxC8FYAd4G4u1+B92HBqXkRRwEQchpcWhcFS0OCqDXNP5joQ18T+cvoW7uk0DFHyPCdfxuSZItSllIGlkkVqG3YTbU8dOZNwzCu4f+Xa6CQ+qSFIEgOOiGXt72e/5XE/XWWcL+K8Hfaq11v6S9QhXTAwRwl8VD0F1N5uI6Ni4BA6lHSw/0DhyHrtagXCERB0EQJkYcOvnf/Oj3CPB+2Nn8kK0dhldZP8N7qU7z0IJhwaBjBqpfwx/hAOxtPitXLHeRbiVBcBLepqu4xfeNES3Aa2Hm/GdtTUPt7uyFGd/ZoYqGSiE80K1sHpneTsd2upaPZyG6YB16G29U3oapVNfwe/6dPrl4Ig6CIGSL2kYDEZaNMOIlSuHl1NP5gq19/u7vL/C2h6CuaT8Cag9iRoaO9nIWi7/gfd6lvI0zqbbpY+jp+EAuYo54oVIEguCwm3p5mx6AXjDyfSJcDLuaD6T9A0sfmQ7u4I1I8B09BA7JB66t0kWG0SJBAEUcBEHINL7NlUj4GxgdifUMXcBrMtrXv3ibByb317OjUqmQagmois3KTP6kKj3RoBcJ1b3gbz4hF1TEQRCETLGsfQUibY9zy79C7/d9N+szh3ytLAyf8YJhzFYIcwlgXkQwrBBkA/WocQE3yeC1iIMgCBlCLW/bHVn5HNsmJ7wNdjU/PQGCNU8BfIsQbrI4++kMEfExr3tFrqqIgyAIabfet5YjBX8Tp8XeR0Hjy/Ds+sAEejbzFOqwHajFK6UIsgjoN9C1WsJ2jA8yW0kQnIpe9Vy34FcIpA2wO+qTYlRqBvR07J2wY+vp+IB6On8BdQ3PsDcxyKZfBwsca4zCi2AshfDUV0lGJOIgCIJ9gegIgLfhjzrUxYhPZkBt4x+gp/PdiT2+zj4WidfN2E4Y+k8+Tr26O1lsp8v4O0uVt6GSpsw9BL1dhlxkEQdBEGy10jt/id4GL4QN70UQoRGuuWF/TsRD0l5Od+cRHdtJ0SQ3IOgpssWJN8DZWF78TZjV+Ct4t/MTucgiDoIg2OHqptfQBT8c0SovRkVXw5S5e3OmBd7dFaSejtd0dxOGp8ROT/LtqSxwP4Taht+yAP6zXGQRB0EQrHK8Y0D31bPBvQliV09/ET5b/C8T3r00SiQ6+/iYnuVjfp+PuR4Sj0eUIOIPVV0jUvncI9LNJOIgCIJ1g3sSvY164Pfq6Le59T2NvYdnctKwdnd26/EIBUY1v5qZ5Jv1WF78Vf7uLyS/RGaQqayCUEj4NlYjufX01pjpo+mE1lDLN28gwJ9EXp5ho7LPuIAPZ3zhmq/9DiR6HGJnXo3ykciAJbC75bhcbPEcBEFIuSX+2jmoayAEnD/Ce5jB3sMOO94D1TZewdv/deSlFp056MLvw8z/9bytSLAJj73jGNQt6ESgen71uQTfutwch6hrfMuMKCvYRkkRCEKB0TvQznIw0nB6YZpnka39fdC/jyXi6AjJqFZutTbjx+5fe5TQ/ZXRvxdDORK8Cr62VXKxxXMQBCFlcWDvoLaxn1vYfzXCe/gi9HRut7W/WfN7EPFvYhucWAk9HY9l3vs5NMhezk5VXqy9h68m+JYbARao2qYSc/aTIOIgCEIKTLnuXSwv1sY8emrrVKhrfMNWd8y7hz/UiXv0+oOodz0sNhuyJXBmbmxvQz8CfgMS9YIgzFPepmqact0vZCaTNaRbSRAKka7WIBLuGWVLCdbb3aUxUNbC/6LjNbmzfh4717UTwi38LGEmOQLyqas826G+1S0XXsRBEISxjLka+hmYcY1iWAC+9hpbO9y/so+I7ox658y4nIi/ZR8hfT3Z74UFouwZEYjUkW4lQShUul87p7xNegWyd0SLMWimBbWDXqlcZ8ZyqudXvzQXso3LuXSegbpvPI+g9CK/RFFeZ6nySdOki0nEQRCEMaC6po8RaMWIt6fDjEVP6tzRNg31ERaIl1linsvoVNYUxC4iEAsh8VRXrwiEiIMgCGMa1I4Aeht1azs6pWgpFA/9ho28/YVkuiU/nsIQKxAvI7j0tNzypALR0/GSVIDEyJiDIBQ4CHB41HsE38vbE/Lf20s4dH2ctRyXPCYgH/g2/1iuvoiDIAgJMAifi/P2Qp1JLq8FIhj6ejKBQMKNOte21AARB0EQ4rGr+Qj/PTHi3RIwggvz+ryeXR8IexCJZzEh0pPsQSyQSiDiIAhCPCMJdGC04cQf5P2JmV1MdAM/SxQE0M0exH64ZdNsqQUiDoIgjMBA2Mb/grHv0gJY0l6R/wKxrpsIvwuj13QM40Hl2u+Ic80gMltJEAQzuQ56G/8CdPKf6Majm/7DnJqa7/R0fAC1DTr+0w8TfKMcXaQj0z4vU1zFcxAEIdpPiDMwjYQ3O2ZV8a51rxDg/Ym/gIvgKo/MYBJxEAQhhg/6/DB68HYmTPPMccw57mx+CAH9CeUB6AHwtdVLZRBxEARhGB2MD2B0MD60H4wvFzGw784k+SDcSLAbfJsrRRwEQRAuGk7cAaMHpheysfQ65iT9rYOE8F1IPMW1CgkfF3EQBEG4aDibT7D3MGpaqyJc76zzXHeGkG5N8o0bC717ScRBEIQR3oMalb2NAG6CZe3zHCYQB1kIH030MRJsh8XbPCIOgiAIptFcezRenzwibXVaPgTj/X6doChRgMHpqrR/faFWAxEHQRBGQQbdDaPGHmA2VJfd5agT7WoNkmHcGudcIx4TNsPNm6oKsQ7IIjhBEEbz7uEP0ds4i59dHeM9AMyDWY0vw7udnzjpXJW3UefSvi7Op26l1OcKMby3eA6CICTwHuDBOC1qDyp41WlTPY2BUn2ugfjeA/kKMfaSeA6CICRoUXd+ouoatY2oH/HJZQg4G+rmPgfdXUFHnKvOelfX+BHqWUpxQMRrYcrcZwoptIZ4DoIgJG5R+1ta+V+82Er1iso2Oupk/S37+G9Xgk9nw7TSggrtLeIgCEJSCGkxxOlyIYBVTutuITJjLwUTeA8bnTZbS8RBEIQ0WtTrzlDIpZPm9I0yIMq10lHnuqv5CAI8keDTmVBdulTEQRAEYZg9a04i0KOjvQea57RTNZA2xRNC03vQqUV9rSUiDoIgCBeNJvwhztt9TvSU2Ht4KsGnlWCUFUTeaREHQRBSg1ScxWAYcKYQ0paE3gPCykIYexBxEAQhJRCodpReIL3myJNN7j3UFMLYg4iDIAipykOcmUnU5dSzTeo96Ci1DvceRBwEQRgb38ZqFoLqESayF3oHjjv2nE3vgfYl9B6mld0k4iAIQmFDrlErh9lwvqgD1zn5tI2QW89cSrDuARztPYg4CIIwJgj4P0cZTlTPOf7E96w5yX9fTPDpTKj2LBRxEAShMAnP6x8ZOiIAvZ8eKwinCenhhKJJdJ9TvQcRB0EQkmN49EC0J9aTgH1O71K6iH9dd7zkRxEcG3NJxEEQhDGsBI2apWQQvVFIRUAIP0voPSCuFXEQBKHgQIK5I946B2rgcEEVQu/AHnN2VnzqnZjvQcRBEISxqBkhF0fA3zpYUCWg04kC7EgooMr1gIiDIAiFQ3iwdXr0W2wk3ypMF8r1hOk1xYUWgq+9RsRBEITCoPozurskNgqpETpYkGXhX30OCZ9KaEyJHBW+XMRBEIQkhMpHvDEIp853F2ppGGpID0zHnaXFHtUKuHlTlYiDIAgFYA1xeuwbeKZgprDG9R7u7UXAPQk+LVFutV7EQRAEx6MQvjSifXyi4PWSEg9Mm97DkvYKEQdBEJxOTLcSAgUKvkR2NR/hv0cSeQ9QDHeIOAiC4GhIZz6L5YyUCpcL4WOJPmMBvQd8W8tFHARBKBjPARBDUiSm93CA/yaKLVUBFLpLxEEQBAeDMf3nhh6QFoa9h01JvIfbIwELRRwEQSgADLA3U+nmTVW4vO33aln7Rmd5DwkD8lWBUbZCxEEQhIJAKbI+j59b0OhWL/OzGkJqBt+WOY7xHjDJ2IMOyJfH4bxFHARByK6RobI2/ueNvHQjhRyzFgB6+/XYw8kE0lGdz6lERRwEQUjWNo7tRiL4vKXNb9k0m2Dk1E5cBL7NXkcUjw7IlywZEMID+eo9iDgIgpCMQKw2gKXgcqiU9hrco70JdY9zvAcdzjuR9wDT89V7EHEQBCGZ5zAyCmnqYw6+tnrQuQ7i7RVoKfg2VjvGeyBIMvYA9+Sj9yDiIAhC4pY/wNkRb9XA4m2elIwLwe1JPnYrcv3IMQX1Qf9TI72sKPIylaiIgyAICTEA/mnUm2UDY2c9YwEhgKQGkQDvSFVo8sJ7QEwy9oB5Nwgv4iAIQjILHifQHo09FbWs/0YYubp6NBUw+fxNjikrf7P2HhKFM5+Xb1N4RRwEQUjiOrhHiQMSfGdMw0LqL1PZPSLcl+8riWNkk5J4D2RsEHEQBMEZ7FmjZ+GMGHfA2WMltaEEA9FxvlkNhmehY8orHHMpUcTW+Wp5+zOw9JHpIg6CIOQ9CHB4xFtuKHIlNuimcLDRT3X/SBvyeSXxKLlDuhsSZosjH7pCv8flba9GZnPlLC6p+oIgJDV2dQ2fQb1wLVYwSqCnc3fcDf686Vr+3JdACl7hP5dDbF7qCphS9B50dzoj/Wh35xlV21TKhTQvSaN8ui4j9DYuhLrGT8E79yR0d+VUhj3xHARBGIuDcd6bD772+AviDJiZYD9BQuM2Qrx3lGQQbnDMzCVdBKrvwSRB+aKZjQR7kcpOKV9bay6VgXgOgiCM1RLu4xZuPT+rjm1Z0jnq6Xx9VIvT27iY/10XZ0//F3auexK6O46ht2EBS0L0uMVlUHThP9gb+aUzyoy9gBmLnlNFwan8amYKDfFSftRj0dDfstfxOZrxnbfgd39/QcRBEITcpq4BR3YtsXGfwQbwZ6OMmLfp7/jvjFHeAcD/YTHpNF/UNr7PO1wW+znOiru/fIXPg3o6XoJZjS/wuequtKtT2MrsjmKRWMZlNART5v4j9HYZE3H40q0kCEIKDOyD0SlCK6G0P06+ZKqMtwcD6bcXX+xq0YPcXSP3p0oHNjiu6Ha3HKedLYsp5PozFshHIfFK6miqWFAex6vK3gHf5glZXS2egyAIY6O7SbxNk9m4fWNEa/9aqPvmdug+NGi+oXM3QPEjECfYHujcB92dvRdf1zaeHuk9gA41cc0Ne+HdQ//uuDLkc2LP6RB7A4/DlEnvYLiMZozRSL+cy3gpehvnc7m8OZ7lIuIgCEJq1F3/AYK6Y4ThL1Vo/JG6O8NegHehnoWzKu72SFocLnkfPZ3/qrwNVaAFJqo3A5UxjT97zrHlqLuJujtO8Dnuh7qG7fzOx1yuWiSSrSifhor+Buqa/kOP2Yg4CIKQQ97Da+dUbZMnzhTNeVDb9Dr0dHwA3sYbWRzir4HA0Ca9j+i3aMai17Fo6Pv89HNRX6yB2oZfs/H8Z+eXaWefOQg/5bpt8NlJv0GkaSMG6qMp1mVrehGzGt+Gdzs/EXEQBCEnoCnXvYHlxT+MNebc2kf4PreCP0KC9SM+GyYIA54HRg0269e1Te9Eupcudq8g4ldhxqJnHDM4nYo30dPxOxaKHewd9KDuXotfjmEvAuFvwdtwHqbM/X/ZGrAWcRAEwZoRq2v4FwS8CWL7yosjs5kSGbR/hJ+v2hb3E9PjaDjP2zdGvfs5VTw0dLG7qqA8NLPL6XEWzd+yCFyboEyVLi8sL2qEa254IxtjESIOgiBYNF6dJ5W3YdqIsYLkHgfihqR95T2dv0Rvk24tR0+BnQOz5h+Cdw9/WJDlrD2JKXOfhPKiT1kIvgqxq8qHfayq8FhEw0eZXmEu4iAIgmUiYwXaYH0xhW8fhff77x6z++Pqxk50oR5/GB6YdSPi1Wwgd0/UXP+c8NT0mMTVTTuUC4oh3N00cnaT6bUpb+N0vi6dmeqKE3EQBME62gDVzd2PUDTTHEBOzHHC0PfgxfvH7vY43jEAdde/hKB0l9VwGIlp8NlJp7gV/Y8FXd5cNuY02LomLnOshjiLDJlZLNh/zd95jb20syIOgiBMDHrtg55yWrfgkApPb9UGXfeP6zUP3USwEc6X3g0/X5P6rBo9m2nW/DfYY9AD1OaUWUTQ/erPOXLtg+UyZ6Pf07GXBeBjBHPW2Miupgoz6GFtw2/Sne2FUsMFQcg5fJsXIOELUcbvGL3f/zWdjlMKJ8KS9gpVDG06DHicT4OEdD/41/1UPAdBEBzUQu48CXWNf+DWq54BpfvYp6rPTiqmno7XpHAimF1NHS9xOb2BgPUQu4hOz2aar7wNlTRl7iE7YzYiDoIg5KpAHIe6hlNs5BaaAoEwhw3hmzEhOAQwy6Puhp0KjGqAkeHScTaWF18Hdd98+WKIExEHQRAcYPi6owTCbbaQr2581hy8FqLK6dAg9XQ+z+L5T6hzbcSORXwRwVgAVzc9b6XcRBwEQch9gahtfA8R/opffQ5dMAumzH2uYKe3jultNb3EAqEjuUYvnqvkcvsmzFi0O9WpriIOgiDkPj2d7+oupUjcplmqvEjFSzQkQHhGU12DnvK6FC5NCdZcjkVD17JAvJSKQIg4CIKQL63iXjZ6nWz0bgTABTq8hLmKWIjFt7EaQM2PdMWNnOo6XWenMweyx0CmsgqCkGfGb7MXCV/VrWIyjOth9/pjBVcGSx+ZDsrwsgWvUUCfJ6DqSDTXmRA3zEYsRLgYdjUfEHEQBMFZ3LypCt1Kr4OoIgx+Dfz39jr2XJe0V0ARsRDgHARq4ne8ENtdZAN8hXY2f1vEQRAE51Hf6sarPCwQNJ0u4Ndhb/NZx5zbLZtmK5daSATfgnA8pUwSZE/jXti5rl3EQRAExwoEXOX5Mbeoa+n9/iV5vYKavSHlxtvJHFOBmiz8wlk2+IcNAx7Wea3H9C2kdgmC4ISWNgx6TsD+lX15efy+zT9Gwvsg7e6iiwRABz0E/AcgOAEKjkNv30kr4umWWiUIQt6T54PSLAwPQAoDyQk4x3s4ggTHDQVvARhHwb/uTLrHJOIgCIIw8RzlR32K3z0LQEeI1C/AUF2wZ81J/SZl+IBEHARBECYYQnwOicYSh5OEcD/09h8Yj7EVEQdBEISJpn/yHigd0F1LlQkFBOhn4F+3b7wOSVZIC4IgTDRmZr3GX5uJehKAgN/QQQgznStaxEEQBCGX6e7sVbVNJawC8xJ8Q0VyRZfTlLmvZTvwoIiDIAhCjqCTGaG3wTtGXu45WF78F+xFHGJBydrUXREHQRCEXKJu7ksIk3SIjBlJvlVtRl2tbeyBns5/zcZhpLYITq9CrC6dGVYzqlaG+iygUQ6IHxtEfbyX4/BHdcxRy9eH8W2uBEPNCwe4Mq5izy4yiG8EDFSnuUy6AT7tBn/roNRqIRGBTVDlKo4/ASRkQCUZl+a4X9kCXVJiBQ7bXHWVZ3uC/NAjjDg9ZLw/8GCmZzDFFwff1nIwQvMV0lwKZxWaDmMv0OADo1cIXZvAv/Zovl8YqC67EYnu0Wn2YOxZXfqiHCaEQzBkHIBn1wekducG722F8kkhNr4EVaSgKlLpKwwDPIjg4ueVdOn6VkDyFaqVSe6DSrC/iCmGqubsRi54rxVKJnmgOkRQyWVQwb/m4fKpBDKPv8x8L1wOFVbODwnO8j3Qx/8H+f8ZPomgQXA6YmkCvN8z/P6JSZPgzOUrISvdIafazLUC9RY368pZQQ6vnN6Qgg3qJsQl4G8+kR1xYFFQFNrKanVTOhWdd7rPuIB356UncUvbTFS0nc9iThp7OUioHsx7kcxTtIHgOvgjM+cwu9+QZ1O2MykOuiyUgtls/P+UX9bwjmsoyXTJcUTH9jnCZ/qWS0HXn6yG3gydbyuL0ANWtuGyeZDFoTVnK8SyzQsRcX8KNrmPCG8dKxS3LXHA5W1v8r95GTqlE6xk382kkmX/IrTN54r1cqZagFzpboFdLXvEXI8PH7bDIgNMw+DN5/NIRxyoFdynPbCIn34PwlnTPHly2kdZtF4KGuD/wjqwHfrBkeJwsdEKj6fiFZmNc+y/Nd2ubleU++JDwL/L4OlU8EEughmLtqeas3SC3Tcvn/8hflaaMbcM4ZtQ1/S8mbZPyJ6n8AhMX9MAO/hpK+RGqzgtHumAB+2Iwm3fhmWfFsNz/PIOCCd9Kc4nTWR7Md+FcNfaRqhe1QDvbe2ET6zuZE0je41ouVvpDf6trpwunXc7P4Epc59V5cXaPn2VHyrJt2ciFNfD1U0vw/GOAbs/efEHkHB5Ni64Kh3YkPPVUseFJ3wmC62sEkXGWjHfWRSGdliBBrxtNkQKFD2u8mEZe7wEug5Pz/PTKWEPYoVCeCfQDj/Roie1PEJXa9DY2dJCCA0Q7pZLxjwshre1x5GeOCzepo3ivGycD+lWzM2bqnK60KeV3ZGtrggzNrse4BYyLwxb4HEWhe38tLxghWEzVBaF4FdsMBY47NT0PbPhtAde0APo2fwhPTEhr0rG39JFA6Vf4+PWHmaSriOqRgW/0mMW9sWhbCCVGTn2W89uM055buLbWs6FvD6Lv1AOV0yuBCGjcKvySSS4q5DLQHsMxeExshoHn+bCIg88mWUPoirvSmX/yj7D39JKQePP+NXBJN/0IOLLsKx9hT1xSL4aLxOt5xXg21idi2WsKLgh65XDpZx8846/MGwx48/cUejlwB7DdvYYZhfAqfo+/Ayskpofh2fXB2hnyw1cD67nV12JvSPaDr52S/eMChtI44psu4iK3LnX976kvYIAbsq+AuF0qcUZai1vNufjP17o5XBqCyzlfzcWyvkSwQa9kFDugATorqadLddzOenxiCNxBYLoSbW8rS3Vbu7Il1RV5lNFjPQeuLXn2/xwJjIUZcxmF9N9FLvQJzu/A1RpSPXNCMUK7iH7Ewd0/6yeWq1njwUQ4IxB8EdAGNQLtMwbyIBBvlZx6ygqGHQp+9MsB4dgMJ1pmrE3urXpmgn3w+fK5amzqJ29WB4Zgsv0v0N4Wrg26rqBlE7vQQm44Hb+f7/cBUnY1XKYr+dh9hIWsRhshBFdjvxZs7qqzG3Ut7aMtaLaHdnAjoE8B9YGAj2KYKWRKxfX115DROPTZ03weam1GShGPYcfYIWdbdnwPX3BBS1fWG3W2/z2GsKrgNPxRge5hbnJ7QZ/phafpYLZ8neZXYJ6jM+OwC8UcUjVk2h+kepbX4FpHh+iKRIVUQKxSl3lKWeBuC2ZQETGHMhj/WajJ6zbSFxlxirKBa+B6D4Yt5Wz6JHamgGjeJk5o8xOQ+bk1D640wnCEGmR356Op8DewVf0oq/xFAZN1XoIVDXDQ6Sgjl/a+e2Zn2wDuZdSRRv+Xc1P0wX8Ml/3dgiH+YnYYvKxB7ExeY9HlAdhBQNhGySdRhXfewBSKya80Hwbq2kc58WPR9dVIeAKgd2QJoexFYIOKgrboV3YSNw5rWXMOfJZ5co1cBIJbrOxqftCP8j4nVX2Np8110cYxtf4VXeUXWqG5ZubxxAHtD7Q41+nA2sdsF456Z7IuooJ9Brc99h0a3V/tY0+Y5LWTkaazFBrU53/ySlF8EGbufK52ubmJ6c2w4u5cB5XtMDhyP1ksYUgg9K22b3+GL3f/xVCune4YY+AbeBruymZ52ALA2mLjc0qoGxg4ryH8AwlO9MgT9JAqS7Yx+y0eKRmZsQDs9clqZzRnWSeCqaxpgHhlRwT+4M2KoGIQzrorib/up+yHfvasDijXlnva6vPqDjwj7CLgpYrHB/MSvC1lkzIzTXJHIS2/NuE2KIXnoBhxyVHqdCZwZYHpsg54gBpLHgjgt/mlNjbO54r5DbIAGy7CfvrEOBRbQ/ZJu8dOR6s0r/Axs9sbDYdoPSmcS8Q7TUQ2FlvcQR6+8IiqFwSRG/isDV2E3KQOPDNfJXthhGN7wB0Cl7ASRtbSUMrYwLROmjsbFlNRN/mVzoPx5NxxIHsD5juWvcK2Og7RMJ7xj3mUJGZp8Jy65MMY/WlKV8XzkityjODqsAxWfrSycVguHJMHFwQsFEA2bAZhT0myDac3u//MiHENPTdmSgcbo1vQ7S8atUL1R49b3l8Bsh8rdp1shND6ZgeyBETa8EYL2+zvKKSdrakksPAltfGld5J3p7te9WNuTVjSx9PyLrrlI2p8DKbMNz4PRhPHNLjfKkfSgf0ugFLF46N9Y9ovMQBPD42E5ZdUna5HhzPa6R8ba1kcfVriobVCdgybrlmFNPEtnF0FeeWSFb+JwROW5c6mdwxXrYoI3vZv7IPgZ620aZbqFcqZ/0szXwNZGes4USk2yyKEhv911QiVS0j2MrNTSFwUvnbPpds5W227WHaW3sirfy8EgfQ01qL9LRWy4ZTUVaPFsXRAAASGklEQVTDZYeZVqbHGiwvniHC0VN1/avtDG5KyO6MWBN7A8tGOCuaUyj0lrOsGco3cdBGEwEs50smoKV6FlFWbQramqF0BlSf5H+2im9r9hLvGPC+zS2/5aASloaGkGfiYHoPQd3StuoquqHY8GXPWG3WGbIsZ3kjwG3pJuguTAbLs1hbj9qtBR+2OyaNqPS5C/knDuC/t5fNqvVFcaBWZmtaKxLa8Rr6AF1PSPXILarWmuJga9zBAHgh0A7P6Iim2U47KWQVGXPI11YIkdqCSBZbaVQN1WU6ccm+jB5MOLl2vXWxwgNkb2xByDYEW/gCbbXrQSCCr8gDfafb4ASB+fgDt5DOkoI+NCDAIhLk984WucODt6ELENTRRKXgcwYZc8hbF3VX8xFYvplbeGgpciQS6SQuGRUHpfQ+0eo5Bo2QeliqRm5yRT88cdoDP4A0IpNqAxNJrzkbIZLmisz1EHoFsvkIDU/Ad5n5qqM5a3qWYc5FHrorVScPChoEp1G/hywo/BhScMIpocIFEYdMeQ/7LbbX55jBn/wtXRk5CN/mSiJcat1rgAO0Z81JqRq5iZ7+GNgEi9lovwnpZRZLp1ujIr5TY05+iHmjKGSKywkdZE4RPD+1OX4KR0HINVRW9vpB34t8m/RavvEzOK1VAerIq5b7lg1Uj0m1yG3Mbp4QfJ2f5ouI17BQrDIA3jzdBm87aHBcEHGwSFdrkNBWQL75GZkK6WstIR351TpHwL/2qFSL/BAIrrw67PDhfDpu3Z0VGRx/nUWiRq6kUFjiYFL0FFhfFOcGGLoj7Z82PEvBxqwGQtohVSJNgpPGbarl1GY4W9UMDQRmVrF8GzSuZ5F45/QWaJZKIxSWOIQXxfmtbmZGa00zUxwi3Wxjs7MAA/ukSqRbo4xxX6R1ZTM8PeSCayCcfD6fxou0h9vGXsRemV47ocjCwvgt9exhYPAxJPddFn+nEsrO65b/U7Z+VA9qk53pq+AnWfSWAXEgN9D4/2xkRtBD+qFTaSLCQgyvjNYLIHN9+uNNRR5wUyssSSHekD7PcqloiRqGtuI1iTCPtzjoRXG4vO0A2wpLiX2Q6GayKQ5oMaJphKDNlKdCDjKtxczWpx8/1a9PPQLT0QAv141KUvCnLF7auFZDuOtxWDiqYGJXH98Y+Ay8BGOHoBFxSN7KC0xE40TEwZb3oNh7MKxmfZtna1rrsvZ5AFRv4zBfBP86SeLjUK5cY3Y1pd3d9Mk28IQuhMeyKARVIQUeDEENKLiKDdJ8SDPAH4vXfew97LMZrVQQ8ksczNk/NhbFKYIfGQCWxEGhmR/CMoQki96EMYmEvB5eANcb+X8xQUpgM3snCBsJYYHNn6j5yGMu7pO1EMKEo8bjR4hwm+VtdFeUb2N1yhvo/NA6wqv1ozuqk21LVRDSpWoddF/RAjeAjYkYw4TCHkgyxKsQnCMOsKtF96NaNcBuRe57Uj6RYuMeO56QXs0t1UDIJMWT4W6wmdKUPY8vjfGVs1LCgnPEQRthRMvpNtl78KW0KG7xNg8B+mwc1snwam5ByBxm9xPF5uO1wFjTKmVGXeaRYH4TKQ7gb34RrA8KlgOF7hrzW5MHtDBYzw+NuCWSWFsQMgoCvGVrOxJDlSZ2PCsJAz6h4gDm2MMm6zcZ3a7DYYzhit9urxK5ZNFb5pEFRYyh7EViJUxuqAjsR3h9b3NuXRs9+yvjNsbIrTzZIg4p/5qZdtNqmAP2CEoTT4X1tesgZpanELLoPAWSsyEbTQBZUKSrugFZmRqNaYhDSVFuLfYanhZs8fyzUq65Jpy5wPgu+vG3DtKytk3c0n/cmquN66m+dU+8LiAksrPobdDAopwciDb45kepl3kP1/FBm2uxxjL+tsccgpTa/R7YAj52UbanaB/08WiD3UsEx5DgWT1rK2tNjyyNueSacGaSD9thHtuVmyON6OHu95N8vbpdCDumNsOJiRcHs0nV/zRQ2QawtsqzBqaV6rnjsSlIdX5osp4fmo3vU7mb6Y3OhdPNWGBJewXsbZZZLLmF3euRtF7yDf0x2mw9qJC5KnzMcb+qteA/tQWCbOifScFGaKOq91vNx1XPVbc50A7+oT648wutyQ05hTJvkNnYBQ0b2w0FnTfWo1Pi8jXZakBcG6mv13z+TF+vAxCC1SMzHqpxP2L2HrhuP229JYYr43gUP7LTgNIxnxxVC1xKwinkmufgstfCZYM8OEbDxnajxsDUkyNduRb2sHFYDPbWVfiKy+DNj7Ym/70Q2erKGatb+qzN61XlpPp3qh1+zMa/E2KFQYeU0eOsfq5nx6LevxFc8I72MCZWHHQlDRqP2ah0C8LhMSLcskmnebScNEVnetMxn3L3sirrN787OF3MsTOgMYybQrBdd9lY/A8r35/aDC/yDfNdOwKh81aEQvDO6bbEi/qUvckLSccc/uiyNyaBxoRkFcwKXOZ3sZ3bGOX1PcWewZVVzXANP5bw49YrWuArXP7/DS7FsKtgL+JVHbRyQsUBnl0fMI209cp9MVMcKrUebHSLGUibcvrKhkKW8xIoi6FJhHEw8iGbLVFMPtuGW//2B2TJet7tqrXwihYImwPB5SwSrwba4Y4E51prY59JyycSnXfQRrl/yQn1Trf+ucy3Rl6eUwZ7BbrrzwUb+Do8ox+n22G7viYspEEWijvZi2iAsEfq4cbH/uHw8WqiTsIw4GHrLRJaCLe0zYyE1Vho42cP53yoDBuzXIioKXeOX7lB0C1nW4LNN+pvkzYEKK0AgrPH6upJJBDKBV+zKRC6PjzJBmkjtcY25thLslNGqTSerHtXBItGHl8+YkR7DAi3YBH8GvRi4qgHl/sKfU2K2LN7byuUsxdxmL+7OrKLmiJPOAHVhIkD7G7R/V+WVyejgq1I7jawEYOdyPoq7YnwqqyLJnsOy9rm58Txo0wJNA0wwVqbXT+BMbp6zoL9rHfuoGHvuP5kNfSmIRBaCH582gOdw+IU6b6YZ6fXJIXfOmFjv9V8fD/Oc6+hJqpMD5heX8ytCU/zn1vhUuyv6uJgOEiknoSAl1b136yFUk3kyZBhbLJuCM0+zBtt/NpR2NWcL9Euj9swKntNr2qCUazcBest8A2lp4GGQvAm2etP1/dCKnXUdj1mA3BXoA1W2WklDwsE2A9/Xs9l897pNnjbFR4stXwMKoV7QyH8g83j010vG7KxOG+cvIaLdpEU7Ijjzf6DFgE95hC1TXQe853D3kPgMqie2Bt59/pjsLz9oNldlO0bN48C7LHCdxFYnqJbwV7V27h88x6D1M48EsK8IDqXgyZkQCUa4OGbsIqbqn/KRnf2aeRWWxrhL3gf3VNbxp5tw3XjNbSYQGtEBdvKreQfsEg8x4b0GLogMPifcGasqafDAsGt/wY28q8D2BvE1YPVNo/87J/0wdEx9x+Cw2n0ifxk6Dys4LI5zM9/zfs5qVdd64kCRe7weAfXg+AV5+FMruXd4GP888gs576q/zKPPy7Rg85sM3qHn19ww8GiUOR9A7wT3sojI/QgKrUAsrvm4gQbywP5YoiMkGsbukJ32SiTEgJcgUgrYHkbV1w6hoB88XFQzxFj9+J01q8nwV9ma9/cqpuwHF8Xzsc1cjB8RJSBlYuGgpSmWE+aDPv4eHTXajpTmOewSMwx1wSwQSjymOWbEqHQhN0aj6VikPUiPD6XLu2p2DSylVw2Ovz/Uv1CryvB6PN2AZy2UF7ZgFv/GKdROVwfzsYtp3C+cr1oeNirPXDFp5cyD+rB/IvnhOCZ+C6AcfAe+MbN/bGGaPasOckegF8b+jT24tZjEeFBPwpXHUmfmMscqfoUUor1paO+nmpjQ4m2UuLmJXqso2gyPGqhj2U1t/p/BQWUH1qvkYk0UhJ5rxVwKchgkL/7UrSIDM9SighkUOXCSWnvAbKXxKQbevsP5NuFNnBA5wToKpB6XdApWrXhIwW3WummCLpNQ3migMrozkgmvtRa1uw9sPG7DQopORJeDFtSEd11FPX5rUN9MJktv/YW3Cwm26NjSrkvu+RpYQiO54Q4mN5DlgwhEezIy7DcOg4V9uusYgcKoFYXco6C3hBBQyTPdcroLgAWlG+D/ZlLeQO3Ym8zF+RZRK/y5n+6kVUQ9csgODT8XCmIGz1CjysNEbREyqSkGC8NYqMB34k8PTs0ACdUzlSA8DTTTBvxM/BB/1N5e7W1QOxsWUyI3wVz7EBwGP7iyXDNtBbrs9NM48eCwjdwHdpPLJTrBLUwXNlsPdzORQ+iGZ7iBqJuZDk+9lhVvzmLrTeiqCsSrWn5wjrTUze7MNm7+oH+r/OfQ3gdhOaAFpGcEYfw7BrMaCUnpHsdkczH3/wiDUy+hl3rJ0AygTmBE3pVqp5SaKWrJB563UMkb/ViJ3kRZleb9qjSEIaLItoCXUMu+DPeqe6Kc2yYft0tyfVqeFamJxSCFwwDpsR3My5Ofpj3hy0wAxTshfD4TB+EzAXKubUikIKhO9GtdJygmvQrFz1NvQN7HHPl96/sM7SLvPSRx5QrtJLAXLwyPdeuoZCUAFfM+/UMkUxPg2ShOUCt8OLpMriLf0PnU6/O54IiA264MoOhvyNhNVZ/2A4P832kw3noBGFVTqtg3FB4ItAOOmKCnuDjZYH9OXsAX+dGRMzU9khYddThNiYRPB9lc1uGo7PmlmF5dn2AFm/7iiod2EjhC2jn+M4RYQvtannakeZlz5qTXLn1UvfV4fzaQ2wEFD8MPY2tUgGWgIGThlcqkzk7gYZnL/BzjJrJQHqbHIjoSk52+XtRh20heG5qP3Rlc258ZN+Pskg8cdpjBqX8FoRXzOZfYEYFz7DhaoisCM8Ykf09xGX008BlMF8Z8L1IGI8apzS0iifDkgvn4WUIT+WtYXvxJgvGUV0HuS4e59dBRPN8f2CE68fweT+ku+GG95N7hRHTQg4uJ0Bfigof4BPeYfSXtut9FEQ7NJyTojvyiHiLabB4mwfK/is2O1dIVYBLeUa4pFWgolZCG8qtFJnXiFsq/xPCXo0VxvN6nUvWtcBu+VkaHfzubIJjHNT5FSKu6iDXvzN6CiCXT8DFz92TIZBut1EaInEg8jAX8A0OQLUOS83nV4k6AqdhTncsw0tpSXWXQmVUOXiSpCwdj0aFVxu1j7bCDXrhXZbK6GDkYXLqEZjuMqDSQPPcKiL1uZKNaklEsD4fleNbfx59X8SUn0U8kME81rrOvdcKNxR74HEKjyPoe9Vc1xKZ1D76/kO4W6+eju19yQd8m/VgyQJF6ksEphHSLvMZBDxpEP2afdCjcOp8tyPGF/KdZW1L2eDstrjVYdrZ0jDWlxINsKW6ulcYHwKboMpVfKnhaYTgvkiwN1uel8sF12dDIAoBHW8phLCSRW1pHEHXZbpnyIBtkUFqyD9xEPIHX1s9V8TXLbXiAP3GzuZbpfCcy6k2aOVGw302eytEIDJxDdgzgkgoeTTg5MjMbyIOQg6KAzxq7GxZLYXncI/CWm7qUQJByvp6EME+SopAmGgMwH+TUnA+kT7tJWBvOnY1t3Z/9cEjtoP2CSIOwgTjtbwFGgEptgIRCD3lVpmpR+0M1Fe4DHg5krdAEHEQ8ob6Vh2vZaV110FJV0EBceUaOMju4tftCISOmGoAvH2qzV7EVUHEQZgIpnl8YGdO/fnJ3VJ4BeZB6EVYYYGw0zDwIMIL0sWUXVxSBELa3LypSv150xp+puNjFVvc+jj8fNVjUoiFxyOdcObuG2C3i8wIojMsbl7CXur318yHQ3o/UpqZR0Iv5Du+1hKASQkW3xSVcOusImbBWiIMrguRhWyjwXI1PEea4PN6lTUB6d/08HPehqrJZq4IbgE+L2kmCpdIWItvB7bAHDb23+H65SW8OKag69iofAxm3KXwoPYZbt4uBwDxPLOATGXNxYuyvP29S69Mw17pUCHvo6DxZR02Ra66IIjnIIwJVReECCJsIREGQchJZEBamCgBPGrGwRIEQTwHQTA9BoA9Bg7cBvvXSTwkQRBxEASdwAXvpl3NB6QoBEHEQRDOEeAWGJj8aMGEUxcEEQdBSEgfAjxtIG0Cf4vMRRcEEQehgNEi0E2IL7E2+MnfKuMKgiDiIOQYAQBMkgCJdBfPqDSMmHA7YxAQzcxnBvHnxEKgjCAYGDCfu9yBSHY6QRDynP8Pm+wRuaxobNgAAAAASUVORK5CYII=;" vertex="1" parent="1">
          <mxGeometry x="670" y="20" width="120.01" height="62" as="geometry" />
        </mxCell>
        <mxCell id="lt6rpjhU2XfIqA4amkJT-17" value="" style="shape=flexArrow;endArrow=classic;html=1;rounded=0;entryX=0.014;entryY=0.428;entryDx=0;entryDy=0;entryPerimeter=0;exitX=0.97;exitY=0.572;exitDx=0;exitDy=0;exitPerimeter=0;" edge="1" parent="1" source="lt6rpjhU2XfIqA4amkJT-7" target="lt6rpjhU2XfIqA4amkJT-15">
          <mxGeometry width="50" height="50" relative="1" as="geometry">
            <mxPoint x="224" y="346.73" as="sourcePoint" />
            <mxPoint x="324" y="346.73" as="targetPoint" />
          </mxGeometry>
        </mxCell>
        <mxCell id="lt6rpjhU2XfIqA4amkJT-18" value="" style="shape=flexArrow;endArrow=classic;html=1;rounded=0;exitX=0.982;exitY=0.339;exitDx=0;exitDy=0;exitPerimeter=0;entryX=0.016;entryY=0.577;entryDx=0;entryDy=0;entryPerimeter=0;" edge="1" parent="1" source="lt6rpjhU2XfIqA4amkJT-15" target="lt6rpjhU2XfIqA4amkJT-4">
          <mxGeometry width="50" height="50" relative="1" as="geometry">
            <mxPoint x="600" y="470" as="sourcePoint" />
            <mxPoint x="650" y="420" as="targetPoint" />
          </mxGeometry>
        </mxCell>
      </root>
    </mxGraphModel>
  </diagram>
</mxfile>
